<mxfile host="app.diagrams.net" agent="Mozilla/5.0 (Windows NT 10.0; Win64; x64) AppleWebKit/537.36 (KHTML, like Gecko) Chrome/121.0.0.0 Safari/537.36" version="24.7.8">
  <diagram name="第 1 页" id="ECLiiI5kjHyu9u4358Uv">
    <mxGraphModel dx="1600" dy="669" grid="1" gridSize="10" guides="1" tooltips="1" connect="1" arrows="1" fold="1" page="1" pageScale="1" pageWidth="3300" pageHeight="2339" math="0" shadow="0">
      <root>
        <mxCell id="0" />
        <mxCell id="1" parent="0" />
        <mxCell id="PKdy3DJYKVn4SzaQrBq4-4" style="edgeStyle=orthogonalEdgeStyle;rounded=0;orthogonalLoop=1;jettySize=auto;html=1;exitX=1;exitY=0.5;exitDx=0;exitDy=0;entryX=0;entryY=0.5;entryDx=0;entryDy=0;" edge="1" parent="1" source="PKdy3DJYKVn4SzaQrBq4-1" target="PKdy3DJYKVn4SzaQrBq4-2">
          <mxGeometry relative="1" as="geometry" />
        </mxCell>
        <mxCell id="PKdy3DJYKVn4SzaQrBq4-6" style="edgeStyle=orthogonalEdgeStyle;rounded=0;orthogonalLoop=1;jettySize=auto;html=1;exitX=1;exitY=0.5;exitDx=0;exitDy=0;entryX=0;entryY=0.5;entryDx=0;entryDy=0;" edge="1" parent="1" source="PKdy3DJYKVn4SzaQrBq4-1" target="PKdy3DJYKVn4SzaQrBq4-5">
          <mxGeometry relative="1" as="geometry" />
        </mxCell>
        <mxCell id="PKdy3DJYKVn4SzaQrBq4-1" value="状态管理" style="rounded=0;whiteSpace=wrap;html=1;" vertex="1" parent="1">
          <mxGeometry x="1160" y="500" width="120" height="60" as="geometry" />
        </mxCell>
        <mxCell id="PKdy3DJYKVn4SzaQrBq4-2" value="无状态计算（不依赖上下游事件）" style="rounded=0;whiteSpace=wrap;html=1;" vertex="1" parent="1">
          <mxGeometry x="1660" y="330" width="120" height="60" as="geometry" />
        </mxCell>
        <mxCell id="PKdy3DJYKVn4SzaQrBq4-17" style="edgeStyle=orthogonalEdgeStyle;rounded=0;orthogonalLoop=1;jettySize=auto;html=1;exitX=0.5;exitY=0;exitDx=0;exitDy=0;entryX=0;entryY=0.5;entryDx=0;entryDy=0;" edge="1" parent="1" source="PKdy3DJYKVn4SzaQrBq4-5" target="PKdy3DJYKVn4SzaQrBq4-8">
          <mxGeometry relative="1" as="geometry" />
        </mxCell>
        <mxCell id="PKdy3DJYKVn4SzaQrBq4-18" style="edgeStyle=orthogonalEdgeStyle;rounded=0;orthogonalLoop=1;jettySize=auto;html=1;exitX=0.5;exitY=0;exitDx=0;exitDy=0;entryX=0;entryY=0.5;entryDx=0;entryDy=0;" edge="1" parent="1" source="PKdy3DJYKVn4SzaQrBq4-5" target="PKdy3DJYKVn4SzaQrBq4-11">
          <mxGeometry relative="1" as="geometry" />
        </mxCell>
        <mxCell id="PKdy3DJYKVn4SzaQrBq4-19" style="edgeStyle=orthogonalEdgeStyle;rounded=0;orthogonalLoop=1;jettySize=auto;html=1;exitX=0.5;exitY=0;exitDx=0;exitDy=0;entryX=0;entryY=0.5;entryDx=0;entryDy=0;" edge="1" parent="1" source="PKdy3DJYKVn4SzaQrBq4-5" target="PKdy3DJYKVn4SzaQrBq4-12">
          <mxGeometry relative="1" as="geometry" />
        </mxCell>
        <mxCell id="PKdy3DJYKVn4SzaQrBq4-7" value="是否需要保存中间结果" style="text;html=1;align=center;verticalAlign=middle;whiteSpace=wrap;rounded=0;" vertex="1" parent="1">
          <mxGeometry x="1360" y="640" width="130" height="30" as="geometry" />
        </mxCell>
        <mxCell id="PKdy3DJYKVn4SzaQrBq4-8" value="应用1：Sum求和" style="rounded=0;whiteSpace=wrap;html=1;" vertex="1" parent="1">
          <mxGeometry x="1760" y="430" width="190" height="60" as="geometry" />
        </mxCell>
        <mxCell id="PKdy3DJYKVn4SzaQrBq4-11" value="应用2：去重" style="rounded=0;whiteSpace=wrap;html=1;" vertex="1" parent="1">
          <mxGeometry x="1760" y="530" width="190" height="60" as="geometry" />
        </mxCell>
        <mxCell id="PKdy3DJYKVn4SzaQrBq4-12" value="应用3：CEP" style="rounded=0;whiteSpace=wrap;html=1;" vertex="1" parent="1">
          <mxGeometry x="1760" y="650" width="190" height="60" as="geometry" />
        </mxCell>
        <mxCell id="PKdy3DJYKVn4SzaQrBq4-20" value="应用场景" style="text;html=1;align=center;verticalAlign=middle;whiteSpace=wrap;rounded=0;" vertex="1" parent="1">
          <mxGeometry x="1630" y="570" width="60" height="30" as="geometry" />
        </mxCell>
        <mxCell id="PKdy3DJYKVn4SzaQrBq4-65" value="&lt;font color=&quot;#ff3333&quot;&gt;&lt;b&gt;广播流&lt;/b&gt;&lt;/font&gt;：业务数据流connect规则数据流。来自一个流的数据需要被广播到所有下游任务。广播状态下需要BroadcastProcessFunction处理（一个处理规则流，一个处理业务流）" style="rounded=0;whiteSpace=wrap;html=1;" vertex="1" parent="1">
          <mxGeometry x="2130" y="730" width="410" height="80" as="geometry" />
        </mxCell>
        <mxCell id="PKdy3DJYKVn4SzaQrBq4-77" style="edgeStyle=orthogonalEdgeStyle;rounded=0;orthogonalLoop=1;jettySize=auto;html=1;exitX=0.5;exitY=0;exitDx=0;exitDy=0;entryX=0.5;entryY=1;entryDx=0;entryDy=0;" edge="1" parent="1" source="PKdy3DJYKVn4SzaQrBq4-67" target="PKdy3DJYKVn4SzaQrBq4-75">
          <mxGeometry relative="1" as="geometry" />
        </mxCell>
        <mxCell id="PKdy3DJYKVn4SzaQrBq4-78" style="edgeStyle=orthogonalEdgeStyle;rounded=0;orthogonalLoop=1;jettySize=auto;html=1;exitX=0.5;exitY=0;exitDx=0;exitDy=0;entryX=0.5;entryY=1;entryDx=0;entryDy=0;" edge="1" parent="1" source="PKdy3DJYKVn4SzaQrBq4-67" target="PKdy3DJYKVn4SzaQrBq4-76">
          <mxGeometry relative="1" as="geometry" />
        </mxCell>
        <mxCell id="PKdy3DJYKVn4SzaQrBq4-67" value="7.4 State接口" style="rounded=0;whiteSpace=wrap;html=1;" vertex="1" parent="1">
          <mxGeometry x="1290" y="2260" width="290" height="50" as="geometry" />
        </mxCell>
        <mxCell id="PKdy3DJYKVn4SzaQrBq4-84" style="edgeStyle=orthogonalEdgeStyle;rounded=0;orthogonalLoop=1;jettySize=auto;html=1;exitX=0.5;exitY=0;exitDx=0;exitDy=0;entryX=0.5;entryY=1;entryDx=0;entryDy=0;" edge="1" parent="1" source="PKdy3DJYKVn4SzaQrBq4-69" target="PKdy3DJYKVn4SzaQrBq4-83">
          <mxGeometry relative="1" as="geometry" />
        </mxCell>
        <mxCell id="PKdy3DJYKVn4SzaQrBq4-69" value="内部State接口（Flink框架本身 InternalXXXState）" style="rounded=0;whiteSpace=wrap;html=1;" vertex="1" parent="1">
          <mxGeometry x="1150" y="1880" width="350" height="70" as="geometry" />
        </mxCell>
        <mxCell id="PKdy3DJYKVn4SzaQrBq4-82" style="edgeStyle=orthogonalEdgeStyle;rounded=0;orthogonalLoop=1;jettySize=auto;html=1;exitX=0;exitY=0.5;exitDx=0;exitDy=0;entryX=1;entryY=0.5;entryDx=0;entryDy=0;" edge="1" parent="1" source="PKdy3DJYKVn4SzaQrBq4-70" target="PKdy3DJYKVn4SzaQrBq4-81">
          <mxGeometry relative="1" as="geometry" />
        </mxCell>
        <mxCell id="PKdy3DJYKVn4SzaQrBq4-70" value="面向开发(上面所说的state)" style="rounded=0;whiteSpace=wrap;html=1;" vertex="1" parent="1">
          <mxGeometry x="640" y="1880" width="350" height="70" as="geometry" />
        </mxCell>
        <mxCell id="PKdy3DJYKVn4SzaQrBq4-23" style="edgeStyle=orthogonalEdgeStyle;rounded=0;orthogonalLoop=1;jettySize=auto;html=1;exitX=0.5;exitY=1;exitDx=0;exitDy=0;entryX=0.5;entryY=0;entryDx=0;entryDy=0;" edge="1" parent="1" source="PKdy3DJYKVn4SzaQrBq4-5" target="PKdy3DJYKVn4SzaQrBq4-21">
          <mxGeometry relative="1" as="geometry" />
        </mxCell>
        <mxCell id="PKdy3DJYKVn4SzaQrBq4-24" style="edgeStyle=orthogonalEdgeStyle;rounded=0;orthogonalLoop=1;jettySize=auto;html=1;exitX=0.5;exitY=1;exitDx=0;exitDy=0;entryX=0.5;entryY=0;entryDx=0;entryDy=0;" edge="1" parent="1" source="PKdy3DJYKVn4SzaQrBq4-5" target="PKdy3DJYKVn4SzaQrBq4-22">
          <mxGeometry relative="1" as="geometry" />
        </mxCell>
        <mxCell id="PKdy3DJYKVn4SzaQrBq4-64" style="edgeStyle=orthogonalEdgeStyle;rounded=0;orthogonalLoop=1;jettySize=auto;html=1;exitX=1;exitY=0.5;exitDx=0;exitDy=0;" edge="1" parent="1" source="PKdy3DJYKVn4SzaQrBq4-5">
          <mxGeometry relative="1" as="geometry">
            <mxPoint x="2280" y="760" as="targetPoint" />
          </mxGeometry>
        </mxCell>
        <mxCell id="PKdy3DJYKVn4SzaQrBq4-5" value="有状态计算（依赖之前或后续的事件）-提供state接口" style="rounded=0;whiteSpace=wrap;html=1;" vertex="1" parent="1">
          <mxGeometry x="1660" y="730" width="120" height="60" as="geometry" />
        </mxCell>
        <mxCell id="PKdy3DJYKVn4SzaQrBq4-28" style="edgeStyle=orthogonalEdgeStyle;rounded=0;orthogonalLoop=1;jettySize=auto;html=1;exitX=0.5;exitY=1;exitDx=0;exitDy=0;" edge="1" parent="1" source="PKdy3DJYKVn4SzaQrBq4-21" target="PKdy3DJYKVn4SzaQrBq4-27">
          <mxGeometry relative="1" as="geometry" />
        </mxCell>
        <mxCell id="PKdy3DJYKVn4SzaQrBq4-30" style="edgeStyle=orthogonalEdgeStyle;rounded=0;orthogonalLoop=1;jettySize=auto;html=1;exitX=0.5;exitY=1;exitDx=0;exitDy=0;entryX=0.5;entryY=0;entryDx=0;entryDy=0;" edge="1" parent="1" source="PKdy3DJYKVn4SzaQrBq4-21" target="PKdy3DJYKVn4SzaQrBq4-29">
          <mxGeometry relative="1" as="geometry" />
        </mxCell>
        <mxCell id="PKdy3DJYKVn4SzaQrBq4-32" style="edgeStyle=orthogonalEdgeStyle;rounded=0;orthogonalLoop=1;jettySize=auto;html=1;exitX=0.5;exitY=1;exitDx=0;exitDy=0;entryX=0.5;entryY=0;entryDx=0;entryDy=0;" edge="1" parent="1" source="PKdy3DJYKVn4SzaQrBq4-21" target="PKdy3DJYKVn4SzaQrBq4-31">
          <mxGeometry relative="1" as="geometry" />
        </mxCell>
        <mxCell id="PKdy3DJYKVn4SzaQrBq4-34" style="edgeStyle=orthogonalEdgeStyle;rounded=0;orthogonalLoop=1;jettySize=auto;html=1;exitX=0.5;exitY=1;exitDx=0;exitDy=0;" edge="1" parent="1" source="PKdy3DJYKVn4SzaQrBq4-21" target="PKdy3DJYKVn4SzaQrBq4-33">
          <mxGeometry relative="1" as="geometry" />
        </mxCell>
        <mxCell id="PKdy3DJYKVn4SzaQrBq4-21" value="KeyedState(KeyedStream使用 调用DataStream#keyBy())&lt;div&gt;①KeyedStream流上每一个key对应一个State对象；&lt;/div&gt;&lt;div&gt;②KeyedState保存在StateBacknd&lt;/div&gt;&lt;div&gt;③参见：&lt;span style=&quot;background-color: rgb(255, 255, 255); font-family: &amp;quot;JetBrains Mono&amp;quot;, monospace; font-size: 10.5pt;&quot;&gt;StateExamplesTest.java&lt;/span&gt;&lt;/div&gt;" style="rounded=0;whiteSpace=wrap;html=1;align=left;" vertex="1" parent="1">
          <mxGeometry x="1260" y="940" width="320" height="70" as="geometry" />
        </mxCell>
        <mxCell id="PKdy3DJYKVn4SzaQrBq4-38" style="edgeStyle=orthogonalEdgeStyle;rounded=0;orthogonalLoop=1;jettySize=auto;html=1;exitX=0.5;exitY=1;exitDx=0;exitDy=0;entryX=0.5;entryY=0;entryDx=0;entryDy=0;" edge="1" parent="1" source="PKdy3DJYKVn4SzaQrBq4-22" target="PKdy3DJYKVn4SzaQrBq4-37">
          <mxGeometry relative="1" as="geometry" />
        </mxCell>
        <mxCell id="PKdy3DJYKVn4SzaQrBq4-22" value="OperatorState(整个算子只对应一个State)" style="rounded=0;whiteSpace=wrap;html=1;" vertex="1" parent="1">
          <mxGeometry x="2060" y="940" width="240" height="60" as="geometry" />
        </mxCell>
        <mxCell id="PKdy3DJYKVn4SzaQrBq4-25" value="按照是否有key划分" style="text;html=1;align=center;verticalAlign=middle;whiteSpace=wrap;rounded=0;" vertex="1" parent="1">
          <mxGeometry x="1730" y="820" width="160" height="30" as="geometry" />
        </mxCell>
        <mxCell id="PKdy3DJYKVn4SzaQrBq4-27" value="&lt;div style=&quot;text-align: start;&quot;&gt;&lt;span style=&quot;background-color: initial; text-align: center;&quot;&gt;&lt;b&gt;&lt;font color=&quot;#ff3333&quot;&gt;ValueState&amp;lt;T&amp;gt;:类型T的单值状态&lt;/font&gt;&lt;/b&gt;&lt;/span&gt;&lt;/div&gt;&lt;div style=&quot;text-align: start;&quot;&gt;&lt;span style=&quot;background-color: initial; text-align: center;&quot;&gt;①value()获取状态值，update方法更新状态值。&lt;/span&gt;&lt;/div&gt;&lt;div style=&quot;text-align: start;&quot;&gt;&lt;span style=&quot;background-color: initial; text-align: center;&quot;&gt;②参见：&lt;b&gt;&lt;font color=&quot;#ff3333&quot;&gt;LongRidesSolution.java&lt;/font&gt;&lt;/b&gt;（记录初始的状态，来判断是否长时间驾驶）&lt;/span&gt;&lt;span style=&quot;background-color: initial; text-wrap: nowrap; color: rgba(0, 0, 0, 0); font-family: monospace; font-size: 0px;&quot;&gt;%3CmxGraphModel%3E%3Croot%3E%3CmxCell%20id%3D%220%22%2F%3E%3CmxCell%20id%3D%221%22%20parent%3D%220%22%2F%3E%3CmxCell%20id%3D%222%22%20value%3D%22OperatorState%22%20style%3D%22rounded%3D0%3BwhiteSpace%3Dwrap%3Bhtml%3D1%3B%22%20vertex%3D%221%22%20parent%3D%221%22%3E%3CmxGeometry%20x%3D%222060%22%20y%3D%22940%22%20width%3D%22120%22%20height%3D%2260%22%20as%3D%22geometry%22%2F%3E%3C%2FmxCell%3E%3C%2Froot%3E%3C%2FmxGraphModel%3E-&lt;/span&gt;&lt;span style=&quot;background-color: initial; text-wrap: nowrap; font-size: 0px;&quot;&gt;&lt;font face=&quot;monospace&quot; color=&quot;rgba(0, 0, 0, 0)&quot;&gt;【ValueState&amp;lt;T&amp;gt;】类型T的单值状态。参见：LongRidesSolution.java（记录初始的状态，来判断是否长时间驾驶）-&lt;/font&gt;&lt;/span&gt;&lt;span style=&quot;background-color: initial; text-wrap: nowrap; text-align: center; font-size: 0px;&quot;&gt;&lt;font face=&quot;monospace&quot; color=&quot;#ba0000&quot;&gt;【ValueState&amp;lt;T&amp;gt;】类型T的单值状态。参见：LongRidesSolution.java（记录初始的状态，来判断是否长时间驾驶）&lt;/font&gt;&lt;/span&gt;&lt;/div&gt;" style="rounded=0;whiteSpace=wrap;html=1;" vertex="1" parent="1">
          <mxGeometry x="660" y="1099" width="240" height="91" as="geometry" />
        </mxCell>
        <mxCell id="PKdy3DJYKVn4SzaQrBq4-29" value="&lt;div style=&quot;text-align: start;&quot;&gt;&lt;span style=&quot;background-color: initial; text-align: center;&quot;&gt;&lt;b&gt;&lt;font color=&quot;#ff3333&quot;&gt;ListState&amp;lt;T&amp;gt;:&lt;/font&gt;&lt;/b&gt;&lt;/span&gt;&lt;span style=&quot;background-color: initial; text-align: center;&quot;&gt;&lt;font color=&quot;#ff3333&quot;&gt;&lt;b&gt;Key上的状态值为一个列表&amp;nbsp;&lt;/b&gt;&lt;/font&gt;&lt;/span&gt;&lt;/div&gt;&lt;div style=&quot;text-align: start;&quot;&gt;&lt;span style=&quot;background-color: initial; text-align: center;&quot;&gt;&lt;font color=&quot;#ff3333&quot;&gt;&lt;b&gt;①add添加，get获取&lt;/b&gt;&lt;/font&gt;&lt;/span&gt;&lt;span style=&quot;background-color: initial; text-align: center;&quot;&gt;&lt;font color=&quot;#ff3333&quot;&gt;&lt;b&gt;Iterable&lt;/b&gt;&lt;/font&gt;&lt;/span&gt;&lt;/div&gt;&lt;div style=&quot;text-align: start;&quot;&gt;&lt;span style=&quot;background-color: initial; text-align: center;&quot;&gt;&lt;font color=&quot;#ff3333&quot;&gt;&lt;b&gt;②参见：StockSourceCkpt&lt;/b&gt;&lt;/font&gt;&lt;/span&gt;&lt;span style=&quot;background-color: initial; text-wrap: nowrap; color: rgba(0, 0, 0, 0); font-family: monospace; font-size: 0px;&quot;&gt;%3CmxGraphModel%3E%3Croot%3E%3CmxCell%20id%3D%220%22%2F%3E%3CmxCell%20id%3D%221%22%20parent%3D%220%22%2F%3E%3CmxCell%20id%3D%222%22%20value%3D%22OperatorState%22%20style%3D%22rounded%3D0%3BwhiteSpace%3Dwrap%3Bhtml%3D1%3B%22%20vertex%3D%221%22%20parent%3D%221%22%3E%3CmxGeometry%20x%3D%222060%22%20y%3D%22940%22%20width%3D%22120%22%20height%3D%2260%22%20as%3D%22geometry%22%2F%3E%3C%2FmxCell%3E%3C%2Froot%3E%3C%2FmxGraphModel%3E-&lt;/span&gt;&lt;span style=&quot;background-color: initial; text-wrap: nowrap; font-size: 0px;&quot;&gt;&lt;font face=&quot;monospace&quot; color=&quot;rgba(0, 0, 0, 0)&quot;&gt;【ValueState&amp;lt;T&amp;gt;】类型T的单值状态。参见：LongRidesSolution.java（记录初始的状态，来判断是否长时间驾驶）-&lt;/font&gt;&lt;/span&gt;&lt;span style=&quot;background-color: initial; text-wrap: nowrap; text-align: center; font-size: 0px;&quot;&gt;&lt;font face=&quot;monospace&quot; color=&quot;#ba0000&quot;&gt;【ValueState&amp;lt;T&amp;gt;】类型T的单值状态。参见：LongRidesSolution.java（记录初始的状态，来判断是否长时间驾驶）&lt;/font&gt;&lt;/span&gt;&lt;/div&gt;" style="rounded=0;whiteSpace=wrap;html=1;" vertex="1" parent="1">
          <mxGeometry x="920" y="1099" width="240" height="91" as="geometry" />
        </mxCell>
        <mxCell id="PKdy3DJYKVn4SzaQrBq4-31" value="&lt;div style=&quot;&quot;&gt;&lt;div style=&quot;text-align: left;&quot;&gt;&lt;font style=&quot;background-color: initial;&quot; color=&quot;#ff3333&quot;&gt;&lt;b&gt;ReducingState&amp;lt;T&amp;gt;-聚合相同类型元素:&lt;/b&gt;&lt;/font&gt;&lt;/div&gt;&lt;div style=&quot;text-align: left;&quot;&gt;&lt;font color=&quot;#16191f&quot;&gt;&lt;span style=&quot;background-color: initial; font-weight: bold;&quot;&gt;①每次调用add方法添加&lt;/span&gt;&lt;span style=&quot;background-color: initial; font-weight: bold;&quot;&gt;值时，会调用reduceFunction（StateDescritor指定)并到一个单一的状态值&lt;/span&gt;&lt;/font&gt;&lt;/div&gt;&lt;div style=&quot;text-align: left;&quot;&gt;&lt;font color=&quot;#16191f&quot; style=&quot;background-color: initial;&quot;&gt;&lt;b style=&quot;&quot;&gt;②参见SmsCountTrigger.java(不断叠加次数)&lt;/b&gt;&lt;/font&gt;&lt;/div&gt;&lt;/div&gt;" style="rounded=0;whiteSpace=wrap;html=1;" vertex="1" parent="1">
          <mxGeometry x="1170" y="1099" width="250" height="91" as="geometry" />
        </mxCell>
        <mxCell id="PKdy3DJYKVn4SzaQrBq4-33" value="&lt;div style=&quot;&quot;&gt;&lt;div style=&quot;text-align: left;&quot;&gt;&lt;font color=&quot;#ff3333&quot;&gt;&lt;b&gt;AggregatingState&amp;lt;IN,OUT&amp;gt;:这个聚合不同类型元素&lt;/b&gt;&lt;/font&gt;&lt;br&gt;&lt;/div&gt;&lt;/div&gt;" style="rounded=0;whiteSpace=wrap;html=1;" vertex="1" parent="1">
          <mxGeometry x="1430" y="1099" width="250" height="91" as="geometry" />
        </mxCell>
        <mxCell id="PKdy3DJYKVn4SzaQrBq4-35" value="&lt;div style=&quot;&quot;&gt;&lt;div style=&quot;text-align: left;&quot;&gt;&lt;font color=&quot;#ff3333&quot;&gt;&lt;b&gt;MapState&amp;lt;UK,UV&amp;gt;：使用map存储kv结构&lt;/b&gt;&lt;/font&gt;&lt;br&gt;&lt;/div&gt;&lt;div style=&quot;text-align: left;&quot;&gt;&lt;font color=&quot;#ff3333&quot;&gt;&lt;b&gt;①&lt;/b&gt;&lt;/font&gt;&lt;span style=&quot;background-color: initial;&quot;&gt;通过put(UK,UV)&lt;/span&gt;&lt;span style=&quot;background-color: initial;&quot;&gt;来添加，使用get（UK）来获取。&lt;/span&gt;&lt;/div&gt;&lt;div style=&quot;text-align: left;&quot;&gt;②参见connect广播流里面获取配置信息及缓存配置信息，&lt;span style=&quot;background-color: rgb(255, 255, 255); font-family: &amp;quot;JetBrains Mono&amp;quot;, monospace; font-size: 10.5pt; text-align: center;&quot;&gt;&lt;font color=&quot;#ff3333&quot;&gt;SmsPatternFunction.java&lt;/font&gt;&lt;/span&gt;&lt;/div&gt;&lt;/div&gt;" style="rounded=0;whiteSpace=wrap;html=1;" vertex="1" parent="1">
          <mxGeometry x="1700" y="1099" width="250" height="91" as="geometry" />
        </mxCell>
        <mxCell id="PKdy3DJYKVn4SzaQrBq4-36" style="edgeStyle=orthogonalEdgeStyle;rounded=0;orthogonalLoop=1;jettySize=auto;html=1;exitX=0.5;exitY=1;exitDx=0;exitDy=0;entryX=0.474;entryY=0.019;entryDx=0;entryDy=0;entryPerimeter=0;" edge="1" parent="1" source="PKdy3DJYKVn4SzaQrBq4-21" target="PKdy3DJYKVn4SzaQrBq4-35">
          <mxGeometry relative="1" as="geometry" />
        </mxCell>
        <mxCell id="PKdy3DJYKVn4SzaQrBq4-37" value="只支持ListState" style="rounded=0;whiteSpace=wrap;html=1;" vertex="1" parent="1">
          <mxGeometry x="2065" y="1114.5" width="230" height="60" as="geometry" />
        </mxCell>
        <mxCell id="PKdy3DJYKVn4SzaQrBq4-50" style="edgeStyle=orthogonalEdgeStyle;rounded=0;orthogonalLoop=1;jettySize=auto;html=1;exitX=0.5;exitY=0;exitDx=0;exitDy=0;entryX=0.5;entryY=1;entryDx=0;entryDy=0;" edge="1" parent="1" source="PKdy3DJYKVn4SzaQrBq4-39" target="PKdy3DJYKVn4SzaQrBq4-49">
          <mxGeometry relative="1" as="geometry" />
        </mxCell>
        <mxCell id="PKdy3DJYKVn4SzaQrBq4-39" value="&lt;pre style=&quot;background-color:#ffffff;color:#080808;font-family:&#39;JetBrains Mono&#39;,monospace;font-size:10.5pt;&quot;&gt;&lt;span style=&quot;color:#000000;&quot;&gt;SmsPatternFunction&lt;/span&gt;&lt;/pre&gt;" style="rounded=0;whiteSpace=wrap;html=1;" vertex="1" parent="1">
          <mxGeometry x="660" y="1380" width="240" height="60" as="geometry" />
        </mxCell>
        <mxCell id="PKdy3DJYKVn4SzaQrBq4-51" style="edgeStyle=orthogonalEdgeStyle;rounded=0;orthogonalLoop=1;jettySize=auto;html=1;exitX=0.5;exitY=0;exitDx=0;exitDy=0;entryX=0.5;entryY=1;entryDx=0;entryDy=0;" edge="1" parent="1" source="PKdy3DJYKVn4SzaQrBq4-41" target="PKdy3DJYKVn4SzaQrBq4-49">
          <mxGeometry relative="1" as="geometry" />
        </mxCell>
        <mxCell id="PKdy3DJYKVn4SzaQrBq4-41" value="&lt;pre style=&quot;background-color:#ffffff;color:#080808;font-family:&#39;JetBrains Mono&#39;,monospace;font-size:10.5pt;&quot;&gt;&lt;span style=&quot;color:#000000;&quot;&gt;ListStateDescriptor&lt;/span&gt;&lt;/pre&gt;" style="rounded=0;whiteSpace=wrap;html=1;" vertex="1" parent="1">
          <mxGeometry x="920" y="1380" width="240" height="60" as="geometry" />
        </mxCell>
        <mxCell id="PKdy3DJYKVn4SzaQrBq4-58" style="edgeStyle=orthogonalEdgeStyle;rounded=0;orthogonalLoop=1;jettySize=auto;html=1;exitX=0.5;exitY=0;exitDx=0;exitDy=0;" edge="1" parent="1" source="PKdy3DJYKVn4SzaQrBq4-42">
          <mxGeometry relative="1" as="geometry">
            <mxPoint x="1294.9411764705883" y="1310" as="targetPoint" />
          </mxGeometry>
        </mxCell>
        <mxCell id="PKdy3DJYKVn4SzaQrBq4-42" value="&lt;pre style=&quot;background-color:#ffffff;color:#080808;font-family:&#39;JetBrains Mono&#39;,monospace;font-size:10.5pt;&quot;&gt;&lt;span style=&quot;color:#000000;&quot;&gt;ReducingStateDescriptor&lt;/span&gt;&lt;/pre&gt;" style="rounded=0;whiteSpace=wrap;html=1;" vertex="1" parent="1">
          <mxGeometry x="1175" y="1380" width="240" height="60" as="geometry" />
        </mxCell>
        <mxCell id="PKdy3DJYKVn4SzaQrBq4-60" style="edgeStyle=orthogonalEdgeStyle;rounded=0;orthogonalLoop=1;jettySize=auto;html=1;exitX=0.5;exitY=0;exitDx=0;exitDy=0;entryX=0.5;entryY=1;entryDx=0;entryDy=0;" edge="1" parent="1" source="PKdy3DJYKVn4SzaQrBq4-43" target="PKdy3DJYKVn4SzaQrBq4-49">
          <mxGeometry relative="1" as="geometry" />
        </mxCell>
        <mxCell id="PKdy3DJYKVn4SzaQrBq4-43" value="&lt;pre style=&quot;background-color:#ffffff;color:#080808;font-family:&#39;JetBrains Mono&#39;,monospace;font-size:10.5pt;&quot;&gt;&lt;span style=&quot;color:#000000;&quot;&gt;AggregatingStateDescriptor&lt;/span&gt;&lt;/pre&gt;" style="rounded=0;whiteSpace=wrap;html=1;" vertex="1" parent="1">
          <mxGeometry x="1430" y="1380" width="240" height="60" as="geometry" />
        </mxCell>
        <mxCell id="PKdy3DJYKVn4SzaQrBq4-61" style="edgeStyle=orthogonalEdgeStyle;rounded=0;orthogonalLoop=1;jettySize=auto;html=1;exitX=0.5;exitY=0;exitDx=0;exitDy=0;entryX=0.5;entryY=1;entryDx=0;entryDy=0;" edge="1" parent="1" source="PKdy3DJYKVn4SzaQrBq4-44" target="PKdy3DJYKVn4SzaQrBq4-49">
          <mxGeometry relative="1" as="geometry" />
        </mxCell>
        <mxCell id="PKdy3DJYKVn4SzaQrBq4-44" value="&lt;pre style=&quot;background-color:#ffffff;color:#080808;font-family:&#39;JetBrains Mono&#39;,monospace;font-size:10.5pt;&quot;&gt;&lt;span style=&quot;color:#000000;&quot;&gt;MapStateDescriptor&lt;/span&gt;&lt;/pre&gt;" style="rounded=0;whiteSpace=wrap;html=1;" vertex="1" parent="1">
          <mxGeometry x="1710" y="1380" width="240" height="60" as="geometry" />
        </mxCell>
        <mxCell id="PKdy3DJYKVn4SzaQrBq4-55" style="edgeStyle=orthogonalEdgeStyle;rounded=0;orthogonalLoop=1;jettySize=auto;html=1;exitX=0.5;exitY=0;exitDx=0;exitDy=0;" edge="1" parent="1" source="PKdy3DJYKVn4SzaQrBq4-49" target="PKdy3DJYKVn4SzaQrBq4-27">
          <mxGeometry relative="1" as="geometry" />
        </mxCell>
        <mxCell id="PKdy3DJYKVn4SzaQrBq4-56" style="edgeStyle=orthogonalEdgeStyle;rounded=0;orthogonalLoop=1;jettySize=auto;html=1;exitX=0.5;exitY=0;exitDx=0;exitDy=0;entryX=0.5;entryY=1;entryDx=0;entryDy=0;" edge="1" parent="1" source="PKdy3DJYKVn4SzaQrBq4-49" target="PKdy3DJYKVn4SzaQrBq4-29">
          <mxGeometry relative="1" as="geometry" />
        </mxCell>
        <mxCell id="PKdy3DJYKVn4SzaQrBq4-57" style="edgeStyle=orthogonalEdgeStyle;rounded=0;orthogonalLoop=1;jettySize=auto;html=1;exitX=0.5;exitY=0;exitDx=0;exitDy=0;entryX=0.5;entryY=1;entryDx=0;entryDy=0;" edge="1" parent="1" source="PKdy3DJYKVn4SzaQrBq4-49" target="PKdy3DJYKVn4SzaQrBq4-31">
          <mxGeometry relative="1" as="geometry" />
        </mxCell>
        <mxCell id="PKdy3DJYKVn4SzaQrBq4-62" style="edgeStyle=orthogonalEdgeStyle;rounded=0;orthogonalLoop=1;jettySize=auto;html=1;exitX=0.5;exitY=0;exitDx=0;exitDy=0;entryX=0.5;entryY=1;entryDx=0;entryDy=0;" edge="1" parent="1" source="PKdy3DJYKVn4SzaQrBq4-49" target="PKdy3DJYKVn4SzaQrBq4-33">
          <mxGeometry relative="1" as="geometry" />
        </mxCell>
        <mxCell id="PKdy3DJYKVn4SzaQrBq4-63" style="edgeStyle=orthogonalEdgeStyle;rounded=0;orthogonalLoop=1;jettySize=auto;html=1;exitX=0.5;exitY=0;exitDx=0;exitDy=0;entryX=0.5;entryY=1;entryDx=0;entryDy=0;" edge="1" parent="1" source="PKdy3DJYKVn4SzaQrBq4-49" target="PKdy3DJYKVn4SzaQrBq4-35">
          <mxGeometry relative="1" as="geometry" />
        </mxCell>
        <mxCell id="PKdy3DJYKVn4SzaQrBq4-49" value="&lt;div&gt;RichFunction 和ProcessFunction 中， 通过&lt;span style=&quot;background-color: initial;&quot;&gt;RuntimeContext 上下文对象， 使用StateDescriptor 从状态后端&lt;/span&gt;&lt;/div&gt;&lt;div&gt;（StateBackend）中获取实际的State实例&lt;/div&gt;" style="rounded=0;whiteSpace=wrap;html=1;align=left;" vertex="1" parent="1">
          <mxGeometry x="1155" y="1250" width="280" height="60" as="geometry" />
        </mxCell>
        <mxCell id="PKdy3DJYKVn4SzaQrBq4-66" value="" style="endArrow=none;dashed=1;html=1;dashPattern=1 3;strokeWidth=2;rounded=0;entryX=0.447;entryY=1.048;entryDx=0;entryDy=0;entryPerimeter=0;" edge="1" parent="1" target="PKdy3DJYKVn4SzaQrBq4-65">
          <mxGeometry width="50" height="50" relative="1" as="geometry">
            <mxPoint x="1820" y="1099" as="sourcePoint" />
            <mxPoint x="1870" y="1049" as="targetPoint" />
          </mxGeometry>
        </mxCell>
        <mxCell id="PKdy3DJYKVn4SzaQrBq4-71" value="" style="whiteSpace=wrap;html=1;aspect=fixed;" vertex="1" parent="1">
          <mxGeometry x="600" y="710" width="80" height="80" as="geometry" />
        </mxCell>
        <mxCell id="PKdy3DJYKVn4SzaQrBq4-79" style="edgeStyle=orthogonalEdgeStyle;rounded=0;orthogonalLoop=1;jettySize=auto;html=1;exitX=0.5;exitY=0;exitDx=0;exitDy=0;entryX=0.5;entryY=1;entryDx=0;entryDy=0;" edge="1" parent="1" source="PKdy3DJYKVn4SzaQrBq4-75" target="PKdy3DJYKVn4SzaQrBq4-70">
          <mxGeometry relative="1" as="geometry" />
        </mxCell>
        <mxCell id="PKdy3DJYKVn4SzaQrBq4-80" style="edgeStyle=orthogonalEdgeStyle;rounded=0;orthogonalLoop=1;jettySize=auto;html=1;exitX=0.5;exitY=0;exitDx=0;exitDy=0;entryX=0.5;entryY=1;entryDx=0;entryDy=0;" edge="1" parent="1" source="PKdy3DJYKVn4SzaQrBq4-75" target="PKdy3DJYKVn4SzaQrBq4-69">
          <mxGeometry relative="1" as="geometry" />
        </mxCell>
        <mxCell id="PKdy3DJYKVn4SzaQrBq4-75" value="状态操作接口" style="rounded=0;whiteSpace=wrap;html=1;" vertex="1" parent="1">
          <mxGeometry x="960" y="2050" width="200" height="60" as="geometry" />
        </mxCell>
        <mxCell id="PKdy3DJYKVn4SzaQrBq4-87" style="edgeStyle=orthogonalEdgeStyle;rounded=0;orthogonalLoop=1;jettySize=auto;html=1;exitX=0.5;exitY=0;exitDx=0;exitDy=0;entryX=0.5;entryY=1;entryDx=0;entryDy=0;" edge="1" parent="1" source="PKdy3DJYKVn4SzaQrBq4-76" target="PKdy3DJYKVn4SzaQrBq4-85">
          <mxGeometry relative="1" as="geometry" />
        </mxCell>
        <mxCell id="PKdy3DJYKVn4SzaQrBq4-88" style="edgeStyle=orthogonalEdgeStyle;rounded=0;orthogonalLoop=1;jettySize=auto;html=1;exitX=0.5;exitY=0;exitDx=0;exitDy=0;entryX=0.5;entryY=1;entryDx=0;entryDy=0;" edge="1" parent="1" source="PKdy3DJYKVn4SzaQrBq4-76" target="PKdy3DJYKVn4SzaQrBq4-86">
          <mxGeometry relative="1" as="geometry" />
        </mxCell>
        <mxCell id="PKdy3DJYKVn4SzaQrBq4-76" value="状态访问接口接口-从StateBacknd" style="rounded=0;whiteSpace=wrap;html=1;" vertex="1" parent="1">
          <mxGeometry x="1800" y="2050" width="200" height="60" as="geometry" />
        </mxCell>
        <mxCell id="PKdy3DJYKVn4SzaQrBq4-81" value="" style="shape=image;verticalLabelPosition=bottom;labelBackgroundColor=default;verticalAlign=top;aspect=fixed;imageAspect=0;image=data:image/png,iVBORw0KGgoAAAANSUhEUgAAAdIAAAD7CAYAAADetBV8AAAgAElEQVR4Aey99791RXn3//wfz/NLErtRYxJLTGLBggqKvTdUROzd2HvvXWPXWKOioIFbCdyCohGlCggGFJAiisYGJjFZ3+97PO/N5x5m7XLO3qcx6/Wa+5q5+lxzzVxrrb3vff7P0K8egR6BHoEegR6BHoF1R+D/rFuyC/YI9Aj0CPQI9Aj0CAy9kPYk6BHoEegR6BHoEdhABHoh3UDwumiPQI9Aj0CPQI9AL6Q9B3oE5ojA//7v/w7/8z//M/zhD38o0LEQ2noa8raUb+GSXven8UsDIucc6IObdqXsLN5pejqtR2A3R6AX0t28un1uG46AhYSi89///V+lCC2idCuKT8um89B3xzWUnlCexPV+j0CPwNUR6IX06lj0Xo/APhGwgAh//atfDhdf9OPh/B+e3Ww/Ou8HE/x55541ZKtlptHgHaODVxf2tJn4lE28cj8+/5zhgh+dO1x11ZWTp2vnuE8A+qBHoEdgrgj0QjpXmDrTtS0CFBZffVpkLr3kouH0U74znHn690r7/mnfHbKBz/EZp5402BJPX7xQujrAYwsITXzypR/Jp04hMmedcXJpyp/8nW8O//HLK/Z5wnae17a17vPtEdhoBHoh3WgEu/yOjQCFY+zKQgoP40t+csHwnRO/Pnzj618bTjju6D+2vXuGE9ZawcdYfOGt8coDoTneu2ei//hjjxpo0MdsKlv4al3qXMOjg/bN448ZvvWNY4df/uLnvZCOJUDH9wgsEIFeSBcIVmfdPRHw6atVTJMmHUgh/bcT95bCNilyreKVRTOL2ZQ++r5+zL9cXZyPO7oU0cTVxdKxsvDSt1mcxTOmkEI/8YR/HX71H7/ohXT3pHSfyRZGoBfSLQx+N701EWgVyvQk6eLBXXrxhcO3v3lcKXjHffXLA80iBdz7ta+UZiEDJh5+ecAnLfH25VePMkLp8gOhUTDtM4ZPXsc8lfKZL9/g9XLejjvsEegRmC8CvZDOF6fOtYsiYMEQ5tTECaXxeSmFlCdSipHFiyJH4QJarOhnk7cuaPBIQ6ft2D1HTnSpGz5e4yIjn/YYiwf61FnzaQs5Culvf/Pr8jmwc2TO/eoR6BFYPAK9kC4esy6xwyNgkRTmdMQJpTHm1S6fLVqQLGCM7Vu8gOLFZSFVhzwUwLqp0wIqXd1ZSMWhD35tIqMNbVKoKbZZSOv5Ou8OewR6BGZHoBfS2THqHLssAhYNYU5PnFAaY/7rC58tWpAoVhQlCxWFrR5Ls6BZTIXQeeosbe+eIv/Vrxw+HHXE50ofG8ccfcTkCRU94FIeHdqFlzENXvRaVMHpM8X2N7/+1eTVrvMF9qtHoEdgsQj0QrpYvDr3LohAFo26cIzRwFtIKUYUJYrZni9/YfjMJz4yfPJjHxw++8mPDkcf+flSrCx48FoklQHaLHLy8cTL57C8ekW/fBZi+dAJjmZR5Smz2IrPSJNPHRTd+jPSnPcuWOI+hR6BTY1AL6SbGu5ubLtEYKxwJJ6+F31f7VqQjjz8M8P73/P24a1veu3w5je8enjbm183fOrjHyrF1YJG4aMYIkMBq4ujhRD+L33+U8PDH/bA4Xa3v/1wwAF3Gz7wvncMPJ2+4qUvGN77zreUPvzqRq86eRL9xEc/MDz/uc8YvnbUF69RgNHjUys+8GTt/yNlbvl/Zp1zhz0CPQLzRaAX0vni1Ll2WQQsmK1pSQN60beQUhwpXB//8PtK8aSQUkTf8dY3DO9++5uGz33646VwUujgpbDlk6qF2KLoU+cLn/es4aCDDixPuId/9hOlcCL/pCc8bnjDa19RPtfUNkWR17MUSAv1Rz7w7uHQQw4uRdICDQ0+GrIUYSBPpP4/0tZ8nXeHPQI9ArMj0Avp7Bh1jl0agSyUOcVWYQHHt3Z59Uoh4pXuO9/2xvIk+vhDHz08+uCHDc9+5lNKQf3w+99VCidPfnzW+bEPvXf46AffM3mi3KeQ7t1TCiGF8QmHPXZ44mGHTF7VYueVL3vhcJu/+9vhrnfdfzj0cQeX4k3x5OmTMfwUXZ5aKcK3vNWthoMf9dBS1Cng8D7tKYcV3byC9mmW18C/uOJn1/iMNOPQ+z0CPQLzRaAX0vni1LmuRRGYp5BSvHgKpT3g/vcuhY5CypPj+9711uHLX/xsKZAUUl7Zfugf3zn50lA+LdK3sL7q5S8abnDDGwwve/HziixPvTyl/sXNbz7c8U53HB71iAeXz2KxzStg7P79bW9b+F/8gucUH252s5sVPE/JR3zh06W43/OeBw60pz/1CcUHiimFlCdSXun2q0egR2BjEeiFdGPx69K7MAJjhdRXuxQiPgt9yxtfM7zp9a8anvn0Jw0HP/Ih5SkQHK94KWK8VuWJ8NP/9OHCyxMsn6nmN3J5avU1LU+5fC56h/3uMNxl/zsPvKqFzutaPoMtr2iPO7oUaT4zpdA+99lPKwVSnw55zCMnr4B5Mr7RjW9cijjFlydVdKCTQspnpMy1Xz0CPQIbi0AvpBuLX5fehRGwuAiZIk9uk0K6d08ppDyNUkh50qNIUez8vJRCSsGi8Ur19a95+fDG172y8PMlJYogr25t8IGjyP7zpz42/PUtbjE88uEPKp+v8uqYV7df+dI/Fx7o+91xv+H6N7jBcJ3rXqe8uqUI8/r4IQ++fynevNblKfj//b//O1zv+tcrvPc48O7l6ZfPR30izTnuwqXsU+oR2JQI9EK6KWHuRnZSBCwuQnzPQkoR4gtFfLGIJ1Beud7vfvcaXvqifyivennypOjxpMlrWwofRZT2ule/rDytUjR9rcvTpF8K+t6/faPgKZT3ve9BpXA+5UmHDq9+xYuHk751fPmSEPZuetObFhpPpDwRI88TLE/G/h4wr5hvctObFPv8JRk+38WmT8BX/Pzy/mp3JyVm93XbRqAX0m27NN2xrYqABVSIHxRS/h+pxYgnx39899tKIaWQPfXJjy+fVfJEypMhT4QULJ44ea1KweXzU+g8kfIESgGlsMHDmKfOu9zlzuXV7v7732XyuSpPvre45S2Hu9/9rsUmenhle/s73H641a1vXV7v4g+vkSnAt73d7cqXlMDxuevf3OY2w3777Tc8+YmPKz5xI8ArXr5slHPcqnh3uz0COz0CvZDu9BXs/i81AhQWi4sQA/QtpBZIngApkBS6t7/l9QX63194QoSPJ09eu/KESmHjv8FAo3haROGjCPKDDjxF8kqW4muBhYYtCjdFmC8yUaz5vJX/goNudPoaGTxPzNiDhux73vHm8kUl+Hwa5jPSfvUI9AhsPAK9kG48hl3DLoqAhVTo1Cyk/JCBBY5v41Kg+HIRjWLKf0uhcMrjZ58UQwoYY2gUNIufhdlx8kCj+f9Q5YXHxtOvfWxYLLFJsQaHHDzSeBrmz6j1b+26wh32CKw/Ar2Qrj92XXIXRsACCuTKMV82opBatChUFLj8iUBwWSjtU8goYozFoUc8NJo4bYDzc02LKPLS1aUexhZOcLQs4Pl5bP1n1FrLmfNv0TuuR6BHYBh6Ie1Z0CMQEagLB2Oe2oD+IINFD0ihotDR58nQwkdBazVf51oA4acPniJHU05diUteZNSnnpoXPK3oXvszbGVc/Wh9hGCfbh2PfYh90CPQI1Ai0AtpT4QegYhAXTj2KaSXXDT5w94UtFKc1r5xayGz0FnkLHSOocubOProk189/t9RZHgKFQ8fY3UlXpz6Gad+5NDLX3+Z9Wq3jkeEqnd7BHoE1iLQC2lPhR6BiEAWDvuTJ9JLLhq+c+LXSzGzWNUFzOJmEYM+xgM+9cib/OiBB7205ElZ+/Anj/Kpk6doCimfkf7hD3+I2V+zawyA/eoR6BFoR6AX0nZcOvZaGoEsHHX/0ksuKv+XkyKUBYs+zWJH3/9i4lOmT5bQLHoWPJ9s1VPG/NB8vOaVVx5g8u0zXvuB+oJb8zXp2Mc///rLtKXOGEzj67QegWtzBHohvTavfp97MwJZPOhzASmk/tgBhSmf8hhToCim9K9RSNc+/1ROWWTA2SyqFl4LKHzQxvjAT2SjAKtnQl/7SzD4lz9a7xxbATEeLVrH9Qj0CPQvG/Uc6BG4RgQsHL7SlYFCespJJw5nnHpSaaed/O2BBo5fHaJ/6ne/NfArQt8/7buFhz54oA0e5U7+zjeLDGOauuUFwq8Mv3wkHzT4k9c+/NCA+Kff+AUPr6gppPkZqfN2vsIxvPQOewSu7RHoT6TX9gzo829GwOIB5ALy11J+dN4Phn8/58zhhz84o0D63/7mccN3v33CcPb3TxnOO/es4fwfnj3hgc8G7zlnnTb84MxTS2FDBpw6zz379AkvMjmGj28FUwS1o96E8NHE8QRNMcUGDTx0fLzyyt+VeRkA5+xYOIaX3mGPwLU9ArumkPbNfm1P5dXM37ziSzn//d//NfzXf/3n5L/DQLvqqitLgeNXibjga7V8ukUHBY7/34k8NPWnLPak/f73V5UffeCJlH7LFv5wAbFB4efXkCik2AHvHLDD2Jb+FSX9nx6BTYqAOQjcqdeOL6S5CDt5IXZqAl1b/J5WaPhB+Wc87YnDRRecVwoVMclczD56KIT8CtKTnvC48oUfcFwUN/vqAMfFzxPyg/T8fCD6KJTqBSJnk87rXH74nl9bkgdoK4rXfBUH7FePwGZGIHNvPfm3Hpllz68X0mVHtOvb0REY25TigRYsnu4oik887JDy11949Wrhq/kJCnIUQP7/Jj8gz1+M4TWvF7R8UtQOdJ5g73GPA8of+oYH22nDMbj//M/flydQ/goNMi954XOHK3/328KPrHqV1z7jGietwx6BVUXAvBMuYkeZrc7bHVtIDeAiQe+8PQKzIjCWV25UoMWIwsfno/e5z0HDgQfcbXjec55eiqQ6EmJXWV7PKsMf/abwQasLnPzI8lu+/PWXhz/sgeWzTgon/OqlD7/jyy79yfDQh9y/FNKHPfQBA2OLtDwpUwT7Pz0COywC5LxtK13fkYXUwHlwbGUAu+3dFQFzq56VuQakiFGU+K3aV77shcNd77p/KVh3u9v+w4/PP2dSaOtChQxFk79bes97HjgccMDdyp9A02ZC7GuLH0449JCDCz/FlOLLF4XQV1/IYIMC/8AH3KcUX+x8+P3vKk/P0NVd+1fr6uMege0egdwz5vZW+LzjCqmB64fAVqTLYjZdq8Wkto5bf1sbMmkUMPLvwh//cHjA/e9dCilPpDT+iDdPqlyphz4yfFP3kQ9/UCmKFGD6F11w/uRVrXaMArr4LzL3utc9ih2KIp+tjv1RbmxQSN/7zrcMFHYadp5w2GOHn11+6eTuPX3TVoezI+D69PjNjtUqOXIdsr9Km9N090I6LTqdtu4IbIfkXo/z+l3LgqdI2Xgq5TNR/gA3n0PypEiRe9mLn1eeFlNenXyeyueW8FJ0KXD3vvc9y98XhccCnbLYedPrXzXc48C7FxkgT5r8nVG+iZsXvqGDz0MpnPiDLYopdnilTGF2Linb+7Mj4DoKZ0t0jlVFwDWo4arszdLbC+msCHV6j0BEgI1rMaLA8YrWp1Eg36yt/zwZxY0iyrd6eUVL4YWXQof8i1/wnOGnl11cniTh9cLWFT/76fCoRzx4OOigAwsvhZR22OMfU35QIXkppPjGf3eh2GrDgs0rYfxAL7z9WjwCeXAvLt0llh2BXA/6W3Vty0I6LSAGjoNgGt9WBbTb3f0RoBiRf3wbllezvHblS0AU0cc+5hHlB+HNTSBPlcjwa0IHP+qhpT3ogfcdaMhQXHlahI+mLP0zT/9eofOFIZ4qKaroOPRxBw/8+IO8QBqvdfn7qPAhQ0HVDl9YQieXhVT53b9qy5mhce5xW048N6ol12Mr12TbFdIMTCvISbcPXwZRvFC64xZs2eq4qyOQMbsaO95blH9c0/aiMC+eGoEUOQog/yeUP/jNZ5n8fB8/JQidS34KF0+d0Pn/nUce/pmBH3Hgl4oYX/7TSyZ6nTEyP7/8ssKD3LOe8eTyU4T8zB+2+NF5CyIy9PGNXzCCzuexn/zYB4cvff5TxS6/aoQ/8CnHuNX0YSdD5rWsqxWjefXPy7csX7ernjqG0/xM3nn5tjLO27qQtgKTAbbvASI/0MNCHiF4+8uCudDL0rlZejbie8ran+a3PPPAaXqWTZvXH/ksQox5lUpRrP+2Jz7mlWOKHd/u5Qk18dlXVhwyr33VS4u9mpZj+Lj0kW/v5v9VRZ8NPvvA1t5Qd8KU2cl95+QcHAPF1ZAY2aSl3DRZ+Tcbbnf/iIfXWGykA6fxJ9+y+9N829aFdFogmFQmtIeAgR6b9Ebx03zarbSxmE2bby0zjXceGvoWuWr79XgRXS1e8o2LV6UU0t/+5tfX2OAtOXDIXvCjc8vTpTz651ioHQokv6BUF0r5hPIbL35Mn9/mBd+yIa6G6huDi/Krp5arx/KtB9a6crwefcqkHvpjsZRfWMs5lr5eqJ4WXK/OZcu1fGvhxuzWvMmX8U++5FlVP+3Zx9auKaRMauyaRhuT6fgegVkRYENT2CikvGblcnNlztlPyBMpRS5x6PMCz1gcdl7zypdMnkjBK6tM2hfHEymFFPkxGXk77BHYCREg77dbPu/YQsqCe9AA+a8AfKHDxpcu6IO3Sevw6jgtMxbE3LZMvdtBl/MC8jo3fTr8s5+YfFOXTZ4FLsfmK4cAhZSf/eOSRzmgvEAuCyn2lSmdkBfvIcOYYs1nqvjLjzjkPOjXewNczq33r94rxgqYcaljWsdQuZTp/avjOi0WGUv7xJMcp22Xa9sW0nkCxCFDMAmsl4cQY/seLIw30jzcNqJjt8iOxSLXgbnCt1vmbE7lHMk9vszDrw/532KS7tzBEQteBcNHIf3WN46dFEz4vIytsQOPHE+kHDr1lTboo5+cp08h5UtR6lRWGfGMvaTtROh8Ei5jHtP0GbeEaXOabPLN2099dX9eHZvBh28btUNM0YEuLmHmeCvuiVu0nz7PKzuzkKp0XoUb5ZtmD5oXfYLKXQqfHfHtSV5j0TighPR7W34M+JZqtmtTjM0t5s+8v3n8MeVpry6k5qrQ3CZv+YwUWfq0zG1xQC8KI3lOvk+73BdAZPg1I/zU53qdnEON7+Pl75ke043FlBzmLQ43h9y8cnPZ2ju5l9grjGvc2B6SN+EYb+K3XSFN5+p+BsM+r6te9+qXFVYOMoLLAVI38Nlq+qxxytqfJbOb6cZA6FzrsXigtN0CmRN5SHGziLoB69zNMTxZSGsZx0AvDgyeSFuFNPmURc44t2Lfwsk/D0TeNg//buFxzi3YmmOLb6O4lp3EbVT/suTxqaXLG8WktfwHx76iIUPum/9f/NwnJzeh0LzU7Z5wPziWbwwmv/0x3sTvmEJaT8rAENjXv+blZU4sDIGElgHNsXiheltQnlmwJSsuZcUtClNHq7+ovmXxZyLRr/UmPWnOIXE7pa/vQHzmElfPIeefffh5tcvToHrUBV/qUQ6+upC2+MQpBxzzT94OF/vIJ2NL7LyMYz02/rnW8i4CU8+8/Vn6az2z+OehL6qz5mesHWnElPPdQnrUEZ+b8Ew799UDnOdK/nll0LtjCinOOjEnC47PqPj/dVzcwUhzAVJGXC6U/B2u7zDJuBnfxO22vnMUOr+SgFEEobcu+Nn4fkZayyOTOPpcyCxSSJVTH/6ot8PFcn1avIyrcZa3HotfJjQH9WGZuleli7h4pY1Zc0EmCynflGeMDiF99aRu+9qdBeUHznvt+ELKq10+O+IiiP3a/Ahk4mXyZX/zvVqNRebkZhVqKeMALcfygOdVFYWUz3xaMUoc/FwWUr9sBI/2k58+zcNFux0uLwLGGOg6q12a4w6XFwFiy8MS1xFf+PSkn2tgH14u18NxQa7gnx1VSHP+BoZCyp06Vx4e0lOm99cXgUzGVlxJXhKc+NP8bCP7ftYBLZv4GibPZvXn8YFXSxQzIA0Z553y0oTMQV7k+Rk/vjhB7Ghjl/HGBjeM5Dt99QqNkT4kXlxC+bcKpi/0V+HHZujVBmviPsn1FOc6jq3zdsFvlZ/zxMlzhljlE2kr3psdzx1fSDmU/LIRmzET2sUhqPZXDV3AVdvZTP0kara0zXyhcXATf2iM7bMeHDZ5sIPz4ITWatI3E9Z+tGwzjyyk8DAf51nrcAwffS4gf8uU38IlVsgSt2kXPG947SuKbXjVK9SH2mfw2pZXWPNu5lgfhPPYhncevkV59GGWfunGWkg+0Bi7T9wjjoHipkFzYBrPemjqFY7pmNdP5dFnf6Nwlm1zGZv8GcHkr+fleLPgphRSA7zMSaGTqy6kGVx5tKsfNb5FT966L/8sWMttZKytjehoyS6ql/jalOWA+cUVPxue95ynD8999tNKe8E/PHN40fOfPQCf/9xnFBp0xjbwm9m024JjfiRvzoO5MIb+wuc9q7SWDvjkhU5M4H/Os55a/twZseSAGLtYMy5izHcB+JNryNZ6az/rccs3/U/esf6YvPgxuRovfwvWvIxbfOIW4a951TENKpM84Fg/4k+uQ+OPCZz/w7MnN0qsF+vmPmntuxo3bf1r3kXGY3r1cRFdNW+tu6ZvdKx+9dSFlLG05LW/mXDlhdSJApd1qRN9FNL8shHJy5U8i9pVNuGiOuRPHfP2lZ0XzqtXvml65RmDHg4mMbro8zc4j91z5DTVnRYRIL4UR2DGMlhKN+OdPzxS8/Xx5kfAs4Y/PnDWGSc3C6n7qPZOPHCRK+Xq/iJ6krfWM8845ev+LPnkb/EmPfvEm73CxROp+8Z1AI++rbhWWkjrIC1rgqk3n0gN7DICmjY2sji1nmnjjcZnmm5ps2zIJ6z5wZvQ8hD33/32N8PRR36+fIsaOkWCxqtQX+vaXw9UX+qcpif55+239M0j66vE9I28pKVO6MSGuCFj3zjWsWYsDzGmaQu98/iWPtW+zCtf86Welh/6KKzlWz61eFp8aXtMRnzLN2mzdNd21OWcGLO+jE847ujhjFNPmhzyrqdr11pXeYDb6Uq/pvXn8bklPyY3TxyIJ3uAa6yQjulfNb4X0pEIZxKMsMyFTj2t/lxK5mRq6U/cnGomT/PI1hc4Expo44n0a0d9sYyVqW3neKv6+lbDefypZVpj9RgXILj6Sj5p4moIHT0c2i1dygtr+Vlj5eaBY7rmkU2eefWM8YlPnfalJZQGTPyi/dRjnydSfobRyzUXik+o3cRth75+jcGt9BGfeiFtHCYbWRSCypVPpJm40pdhY6M6TMpaj3hhTd/IeBU68Qe9xNlY2+e3Zr/6lcMnia7v8NeXviUt+zX/Zo7TN/uL2lcu4ZgO4ueV/PaTZszFzQvVVcN55Wu+ZehZVMei/LXP84zXa4NvX/OHAZDnmkePPPP4tVk8+jQGN8uPMTv4ZSH98hc/W/rgcg+Nya4av9InUpzPRVnmZNDLxedGfms3Ayp9mTaXrStjsxP8df6138T9l7/4+bDny1+YJLq8HU6PQJ2zGdvpkp26XSLA/wfOV7v6tZP39Hb1PQupb2jS1+y7DquA2LGhf2Yh3agTGhNuRB866ms3FFIO09bc6rmuZ7wKvamTPv7z9zgppCR3Xsmb+O3adz5A2yp9zfhoL3HaFieP+EWgsjVcRAe8y5ZH3067jAF+80S6Gwop+3iVZ9Ey1thCyv8jtZCm3lyXxC+zrw0huldeSDGiQeCyr15Ip0d0FTGvLWYh5UscXtiuN6a5II9Q/Ji/s+jq2QjEBv6yWWn0bWl/Gf2Wn6k36eLB2QcaW3Epk33pzqUF5ZkFW7K1H9N0pHzGOP2t+9P01bybMcYf5oH/9H21yzgvaDvhMr6uzXb2Gx+5rpWFdJXJlJ+RbucEaMXABBa2eHYCjuTmiZTPSOtCOu+azMM3D89G4oV+DxMhuFW02s+0MUYDn3x1v5ZzXPM5N2FNn2e8DNnUoa9jsPZpjG+z8Phu4bSQgssLn3fKha+LrMdWzcsYb2UhZe6Zj4w35Yl0lUHfiYU0F8H+KmO0at0kt4V0J7/adS2mwXljOU0HtLxq3qTV/ZrXcc3XGss7DdZy03iTVss5Tp6xvrw7CTIXD3Vf7Tp2HvDslKu1NtvRd2PMl43GXu1uhd8rKaQbTaBF5Pn/XH7ZaBG5rQg2NuuEXbUfq4iJc3A+JLff2t2phXQVcarXtmXDWAprmXosXw1rvrFxLcd4M660u1576liv/DLl8MVD3ULqEyp29BW4E670t9XfDnPAL2Oe39pN3/Q9cZvRn7uQ6iCwdSW97rf4W7j1yGUhJcj6V+sSr13pjoU1X+KVEUqrofTUlbjs17I5Tr6xfvLX/Vqmpq93nHqJOQdIq5DKN4+dWbzSgcu+0Jm5s2z90/TlvDYyt43ITvNvs2gZh5bNpGe/xVvjFuWv5Vtj8oXG1Sqk0rG9rGsj81hENnnt13MQD1zGNU2fNoDerGQhlY4f6mn5JC35ky/pYzzJn/11FdKWkdqJ1hjDNT6dqelJU04cYy5e7eYf9hYvf8KUFS9O2MKLq6EyCafxTKOpo+aZZ6xsDVM2aeA3cqVeDoxphRT6PPZSZ8u3WfRaJvmn2Z+Xr9a/rPFW21/WPDaqhziYK631quPUGo/50OIVNyYzDY+shRK+9RRS7QNnXckrf+KUT5x8LZo4oDKJS3ytRz7wxmAazxhNPbWtmp+xOOz5xitf7YL3Sn5xs2y06GN61Cld3+YupAZNWCtyLD2htGnQyYzJiU8++vxZqTe+7pVlfnzRhUMdO/K3bEoD1vQxnDI1P2MvaTWvdGDy13hotaw6kzbG09KX8uvt13q1LyTmfkbKGmgHOjQgOC5pYzqly58y0pR13IL61qKB85JPmDR5Vglr/1Zpa7vqJgbEv84V/TVGrhFQ3KJQHWNytc0Wn7561vj/SD3kkdFO+orulr4WrvYj9SR/C5849ac0LRkAACAASURBVIATL049NV4/5ashcsjkeoFTLvWqW9w02OIFR+PCnl9mzELqOqBb/jE7Y3TxwDFZ8clLn2vuQoqzXCorgxX907LRwmGe//7S+tH6Wa6N6RuTg3/eK3mzP03eBZnll/R59U6zKU2djheByOI7r3b5rV0THR3S5vF1Iz60/J3HZi3nhqzxqx6vx9dV+7SZ+p2/e2CVtpeRZ+rQ329949jh9FO+M3lawn95VjkX7dQ2jGeNb431cxEZ7Srb0ps8Y/RF8djzfPnS5z81ibHrsKi+9fI77/RnoULqHQGT4e6LBo6JAG3SWlB+ZGyJa8loDz4uJqCtK3/32/J3GsH7w9L6o/7kT/3qkD9p9KG3cMolTB3pL/h5LnWlbC6YvkCXRx+VXQQ6L/WlTmnCWq94IbL8GTV+a5c3BFzqdU1qHTlGT20/6dP6+lDziB+D8LM20hnTn3e95lnTzjM7AuS462AOuDbgaa6NazUG4ZvWlEs78mvHsRAZ+0DG5jYQHIWUnwgk97VRy9U6kq/uJ6825ZknJjk/56U8MHU4F9Zh3gv51IePY2dVzefcEl/3ax7GXPDx4MTlf3/Bf84YaPCpi77zbMVAGymTsvaF8jM2ZkA+WuSaWUgNEMz8MeIfn3/O8KPzflD6jC+64LxJYzyrKY8O2gU/Oncijy7lwdMcI8ff/FMeCP+/n3Pm8NEPvqfw0T/v3LOKXnjRDx8tddEHJ496tdWCKV/TjQF4+GjgfnLhj0qClUjP+IdkwA916DfQOEnTRu0HY31pwZpfPS1Y86qvxmvznLNOK4UUfy+64PwSX2jolkcdCdWnD47XA9WLrPpaELq8SWdTsGH6tXkR4JDjYwFzhvz54/qcX3Cu07z5IH9CZV1rxu4r9hb7jgZdOWVqqA4gNPw+Ye+egde7+q6M+1adQGnA1KW+pMsvHzR1yZe0Fk4d0LSBz7Q/6jt/+OllF5eiM2vVvem54ueXF3ltM28bc6ZpTx59WxSil7VBJ2c7/UsvvrC8/YLG/LTt/LABTl+Un2Y7Zcf4sAUfuoGXXnJRKdzEbWYhtarDzF85+O63Tyjwe//2jeHk73xz0hiLE0qXBjz1u98aTjv526WdctKJRT7p9rFDHx1C+GnoAIIHnvSt4wuEN+nw2eBVJ1Be+LUBT92m0ZJXPnTrE/EifvNc3M3u/dpXiqz+ESdeGTEH9afNVh8+7NumyWHHlrpaOPTUusQJWQd5nINQf4Dy1DZzPG9f2/I7dg4tCG/y4TcHIW83uMvcidciTxTbaX7sD244WQ/Wij3D+pgvrpPrK2zhxdUQmToPwLGv2GPz7i91mOf6qH59E0pv+SMPOu0LtcM4+9KF6G3xtHQqA9QvcWd//5TJDeRYHvlAxRMZBYoYYMdYeKbPE8s6HjnO+aAfGjrxmT6QMbTs4wdN+eSFz7nWUNvi0UtzDJQHKJ085WchPd8XKqTHH3tUufvi7+994+tf26dxV0ar8Y6lIYse2oR23NF/1IuONd3yf/P4Ywof+K8f8y+TJh84eClCQFryYQcdhVbZkQ9dygLxy7E+Jq7m30fmuKOLL/pjoGcdXhzi/I29E0/418l8S7zXfEv79vUtfWWu2Wqe2tcyl9oG47WmvDa1pR7w2MNX4km/5pUnYdGjnbV1S93a3wcmX/jcsjnRpY01fvH4op/4znrxN1V3YiH1kBs7BGfl3lbS2R/c6ZP3ZS+v7X9zONfJtQOKnwemnLLA3P/mQs07GWceRe5pnxyyL3T/Ok440buW09AKbs1OkYVW2ZrwRAwSt49efY59kz64bywI5hH50MolcBRSnsjQgzz+4auNsXPRVvokbgxO5rI2b/SxTuxP14s+9soZG3yTmO3dMzmPzCl90G49nuCNWaPGwTPxb++eUsiN00KFNCfjpJxk0gyqMHnLZNecVfa4r355Unzoy688EFzKitMu4+wztiGL3rQDzSRImrZrCD84bKQebUpjbEP/IoWU9/6ThVpL0FYi6Ys+ao+x83JuNU/6W88bWejigeoEakeobiC8x+45chJz9QDVYV9d2kl9ykkTKpt0+vhsPBjLV9tAT4sOH37TllFIPYzcYJtRpNLmZtpdxtzwl0LKGwHX0XwBLtLMBaGyrnvmhjZyn8iXuZI4c1E6Olo6nYew5lFO3foJRLf5mPTUBU/KpL7E62/qSTpnDWPeenFO5cca5lQWVXDwsF4WIvVlzHO+6XfNq0xCZNPvpLlW8BAjYOpHDhwNW8rSb8VMf+SVT/vitSE/+vGFJ13320KFVOdToYte0+QBYljnnKR0aUB10U+8fXTkpJQBoi99gBe8DZq4tF3bhB++ml890uGx1XPUDsGeVkhdBJKVJ9IjvvDpyeLXdhjrt/b0ST+0K5+xkp46wOUca3upSzl5xmJWyxxz9BGTmCNby+mDeoH25YXH+aSOMXzqgIemzhyLA+InX5TqhXQZpXG6jjyg4WR/8JkUT6SttavXTJ6ENU/mizShe4cxOuSVnhC6fPTJSXKFxpj9JV2oPvmRSRp4GjgbY+TQp1zuHX1OXanHvZI4bWrDsTxAfeW1LOuQa9Pqg6OQ8kSKr5xv+pZ26IvXXtrXbkL59Et+zzDx6tVePa75ZsVMH5BTZ8IWHZ3gecXsNbOQEjjvVHJyueg6C86J23eMozoLlK6jQCdAP3mzn3Li4QePvH1o9Gtd8HlnAz8Ja2DkZZybBRn01TrF6RNjfUAXd22tQkpCcgnpW0j1GT34YWzBawcoH1C7yKRPzrPGpYx6gdiSF5i01IUd56kvQvHIUpwco4+YZlzhAY9sbY8xstC8+1WHOvGJVuPVBx80xuIYY1fbys4qpHmwuHnG4CK8YzoWwWsv82kR+c3iTT/1lbOFL27wmpC1oJn3QtexXjd4oWUDV3Jm7ZB3/8BDHxp66AMdpw10pC15wHteFBtrHylpXzn59V+fwNNvtZLLa68kodf+gWvtHWyDB+qzc6ntSQfqAzwUBM8p18W1IjfoW2hZL77UiRz7UhvGIG2nHe2BQ4ZW+4OsNPvERT50SKefePVDVwYdxkY5ZGq8Z4g64VUf/MqKQx48T/JeCxVSFKkUqFMuekmGeCXJWD54aTrjWLqTyQDSpynjmL8yQoDUJ5SPsXqTRh87vuuGR/1+RoMOcMwJqC54aXzVnQSqbUEDhxyQMXYyQU3OhC4ET0P8J2P1qF8I3vjOG1dkbOjBb3wCx7zqpq2E2k09yBk3+vAD4QEPBEdfPiCx8TBQTrrywJTL9cL3tOVcalvoUJ9rhU5wyttnjE801oDPgLhYo7xaa5b0ul/L1/Rljzfb3qL+Gz/2g4cyOujzRMpaum5C1sZ9SD9z0RxJmGvr+kI3d80l8xT+bNpFptalPvnV6biWgQ5N/9TdwknLwuT5Bs79ri5wyojTDyF0bk7wgz54+47l9YmU9TCPXC/XyHVjf/AtWHSxZviW+uyLZ0wzPtgUhw4beHig4TcQHK/80aWv8qtDPBAcvMWvtSKPTnJIOSC8xk28+rTVooPTHvzrLqQYxRBQB1lw7uadiDyZAOAwDJRPx9Vl4qAXGmMCkhvJg1iYE4M/A5RJmTbpw4usttDHH6WGJi8weUxecPrknJyLNGSZFwnh07yJCfQgMWlJVg7xo4743CS22kaX/mrP2GrX+EpnnDj4nY9PidBZy7QDDj4bNHTCBxSfyaZebStDjPiBBvUzB26AwKsLGmOaPidOXUD9Fodd9AHTNrrgcX7QwMmXtuEDr0wWUtaEK9fN/hqpgwUiYOw8kM19IIU0c5p1sbHuNHNEPuiuG2uY68sa0+Rhb5s/8Jnn0oGea5kP6gEHD1A+aNg3r6XDQ8v8gyYdOWSQpa8v6AWvLfxlnE0ZbahXHYzl0T/tIpP7Frw88xZS1oov4/EGAV0WUueDbfQyRrfzwz/w2aShR7+Qh5dzEDo+u27IMlavdHUaEyB6jBt0ePVJHcYsx/oJjr7+II8exvSh0Yib10JPpDqPEiZ4+Gc/MXzkA+8e3vm2Nw6f+OgHysGpMYPDBOog6Eg6yC9VsEkMAskPXZvoQw6+e97zwOEGN7xBsVvrzsC46cQBaSwUX+zhoEcnPvL5JDT0qVN+fMA+eOT0jTHy0PRPn4vM3j3NQuqh4mHCYuQTqTrw6f3vefvwgfe9Y/j0P324fKsXm2mPsTFXTohv9J0H+vAfGRobIXnoZ4MH2cTRJ65AdMuTNqH/86c+NtzpTnccPvfpj5f4fvzD7xv23/8uJXb4m2vDWDvGETo6WRvWi6d1YB4w4ODDB3iNC7roA1lj+PKNgza0iTw+/ObXv7rGt3Zzrey7eTqcLwLGDdgqpH55hTVkTVhnzpN/fPfbyvnymU98pORByb3qpg5+c08IH3jzgjOD3CcPyB9o5oA2S+6sPf2JM8eBdZ98QublL33+8PhDHz2hK0te6gc494n+Fh/27pk8fcFPrrInodHwFZ/5Nj9QGc8q9Oc8zGPscROPHPsHHnA054Eu+jQKgm9iWB8u1yz70LKQopd9g9+cT6zXh9//ruGLn/tkucnFHjxp37kZD2n6Av7zn/mn4ivnLDUGGnITfWux9YwocYmPeDjjPDPQhxyxANLAqVM/GONL5oj8+saYvjBfic8spCY+AcVhFoZGcnPAv+3Nrxve/IZXl6L2qY9/aHLYY1AngQQciBMZXHSyALe7/e3LpoGPQDzwAfcpvNojqZDnKQT6055y2PDWN7226CXg4LUnL4GmLw3d+HjgAXcr9h7z6IeXwLD42Cf4JAU+0eBHHh/wmyA/+EH3G17ywucWneKB2IA/F5cYtJ5ISdK8GFNI2SDIYJtkJC7M8S1vfM3wjre+YfjQP76z+ACPfPqKf/SJgXGQDxrtkQ9/0HCTm95keN+73jrx0/g4F2OHLvrIoY8+cS5zXLupoI8cNGzBBz98xPkv/+qvSkGFhx/NuM99DioHBXzIYgOoTfHSiCkF+clPfNzwt3//d8Mtb3Wrkmvw/9NH3j886QmPK7bQjyyNPs1YvOaVLxme8bQnTooweHxEh3kBDhl+5pAfxujXciPgoVxDrHC+WEhZB9blYx967/D2t7x+n9z3cDUfXW8gOGRp5CF7EEgecVbc8U53HG7zd39b9viznvHkSX6Yq6w9fWWQIzfUyZlATsMHj3jOixc+71nDwx76gILHF+TgZx7woQs58Ok7dO3CR7F/yIPvP5FBF/ufm098B37yYx8seXzwox5aoD6iFzv46PmF/icc9tjh3W9/U8GjDx6a/iFH4aaQkvd51rtWZgJj6PDxRGociAF7+z3vePNkzThfuIHGZjnr196IYY+5pi/i8APf3vvOtwx/fpM/Hz77yY8OL33RPwx/+qd/WoozsWJOnkHOGRyNMXqJ0T0OvHuJ2e3vcPuSS/hozJSHF52MaYxpnO3cHIGDjr/yQdcOkP9X6vm+rkJKcvIUSvAopCwWBz5jNgEBwQEKD3cqBJUxxoX2vQvgoCTJGaP7cY99VJkM/Hwu6cIxGQJDIeXH6p0sNtFpIZvo37un/HUG5Eg8iiiBYuH4T7XwEfy/+uu/Lr5xJ+dGpO8YO7T73e9eZfMgz199QB7d+A2vY/wGR/KNXSQnF9BCijwFlU1EbIkF8aW96fWvKnfq2CMerAOFhk2IHI04QKcxxgd13vnOdxoOecwjh+c866mTO19ozpGERI67bWLOHOkzF/DwgccGDR/QT3MjkIDIMAcKKWtPPIkVsuhBjlgih07GNnDw8Z+r6T/xsEOGG//5nxd96HBtuNGgkOIbOpwvfdaVMT4SM/jAI4td5+znL+QF+NYT6djadfz8EfBQTqj0Hwvp+ZP84QadnKeQeq4wZj+QW6w360ru87TC2NxhXR3TJweQ4eaX/CSvHvqQ+xd+8wM8uWHuk3PkHvI28kY+5MgVchw5zpKDH/mQYpcChS/S4KWPXXjVl/LoxSZPTA9/2AMLP3mJPxRQ8hf7/BCA84TPswtZ9KIHW4yxS6OQ8sYQefDuWfxxL4HjyYoCyfpYGFwr1wkIjidSfpABX7DB+c46cVaxZjaKqfGAj7XiZog+/rqOQJp+81DG20aKKA86f/Znf1byAT+JC/Okjwy6GDMXxsTsbnfbf3jR8589weMneB4i4GfuxAO866pO+F7x0hcML/iHZxY+4okt44t9+tpfdyHFEZRwePOUROOgY2Fxnqcmkp5Ch0EOUZ4cWEycJIGQRw/NAAJ5WrnXve5R6BRR9MHDKx70k6wcnkwaXRRdn0hZJJ46oJOQ/KFv7NDntQvyLCz297vjfqUQssgcoBShBz3wvuXO5773PWg47PGPKZsUOrLQnv7UJxRfeDK66U1vWhIcnTwhYgd7bFb4M2FZqHkKKTwUUg4H4sZrUBKTGwUSgPbqV7y4zJe3AMyfmPHUx90gNwLEivlBy/iSMOB5RXz3u9+16OXuDL/ZACTsoY87eHjqkx9f1g3cy178vFJwH/uYR0zuzPhTddwxH3rIwSVu+IgsRRn/GGMbn4ghr9+vd/3rlTtLngqJIwXNHMAG8o8++GElbsSbvMEOd/jE85Uve2HZTDe84Q2LHuLDwchd4z3uccDw17e4RfHpDa99RZkzN3LI0njLQAzvsv+dh1vc8pZF33Of/bSygchJ7PLWg4OKWOA735z2FVceIL2/sQh4KAtT2x8L6Xml0JAb7FP29bOf+ZSSM+Qg5wznigcxa8UakvvkDXLsB1rmPnsJGmcLNM4JiyoHNrlKrpD75BXnFWcPec75Qz6iH1/IFc469jf2yVNuqu+w3x1KccYWN48UL4o1+5W8Ig8f9YgHlz3iPuU8ZM/Ax9zY09jkbRE4dHBDcbO/+Iuih3OKs4z5s7e4sYSffcy+Zm7sFeaGXp7m2F/sD/Y8c2QP4g83JA+4/70LjoceZCmkFEjWx/MKyDgvxuwPv7VLrLFPLNlHzJPGeUgt8DzDLuc482YexC/XCR8szMjiM+cMft/6b/6m7GNkyAXOEeZKTIgxdYA5P+85Ty/rxVMobwmwyZqyfqwb5zZ5wLnNOQHdM41YkguMb3u72w1/f9vbllgSQ9abOWKXtSF++MJ6b6iQetBzyJMEFBme8qjkHFxsAhKKBCZxMEqiOCkmQOBs3h1wqPJUSBIwETaUhzJ3OdiAB33ofubTn1QWEH/g5YmWxMA2i8lCsRjwsTgkD7bx5eZ/+ZdlY5CYFFI2zY1ufOPCx4Yl+Nh88QueUxKCVwXwQeM1EfpJFJICPhaIMUnOEx8+Yp+i7x1eJmTdJ0EtpMQFH9FLcqKTRGEOxJZCRxKhn+TELyAxwS7xzBjDx3yI3VOedGg5LEgK4saGJebMn0OBDUG8uCMkQbl5IUF53ULhwieSkkOFWMDHKydygPhyEPG5KLLcqd/sZjcrBwJ5QG6wQTicyAUK3PWvf/2S9MSeObMBbnXrW5e5Xue61ymQHGAzsb5sRDYnhxO8Bx10YPGZnGGe3EkSI+bDocLdMnOEj2KLHPNmg5KvzAs+YkfrhbTOzOWMyW9brZED22/tkqfkFecKh6VFhTUlf7hZY3+Q/+QC+5e3XuSTewI6uQBkrcHzkcDf3OY2pbBwww0/usFxGB9wwN3KWcU+I5fJ83vf+57FBocob784QMlZ/MMf9jx83JChCz/4eIh8goe8JdfZTxzQ2GVv4DPFl7MFPewNHgCYLzf5nCOcZ8iy5zmruAFFjvOGOHAGwYd9zjsaN4n4iF/Pf+4zyk0Gc8A+dtgj6KCQMOYvZuE7ee9nfaxRFtJ6raBTcH/4gzNK4eO8oShxTlEP0M2NCOcIfmKTdaBIshcZczODTdYA6FkFD339Yo9y1jBX4gf+VS9/Udm33GAQN+J1l7vcueQLBZC8IXbEjLnBQ8zwET704BsPgpwjrAEyFGhupjhHuTnh3CO+jFlXzntiRiNH9Ju4EROuhV7tkqAc1Bx6BA8nPNAIJIbAESx4gRyuTAAawWVi6CDANPrwEmQCZEElucAzIQLI4c+hzsYg4CQIQUEHG4ziC8QmwcAOG4WnRHSyCQgAeO5kKQwcsODYlASfjYxNcCQdTz4cuBQA5kFy86TFQa3/JC2Flo1AEvE6hgSDnoXUgNfJ6ZhCyqJhnw1BwSRm6Kc4Gz9i6KHBXSubyLVABnkaiYkPzIUxvrE2+EYhJL4kD5sVPooQcWNDksTIY5PNyBpz2BALCjufYRB7kpOkpEAxb+zzaoU14CDh1S4+cqChj5gD8YeY8STMnNHDHEhgDiP8oXiy9qw160LMuROnQDMnNiZxMRbo5ACDTm5woKCHDegrYHjQx4HGfNlI3AjgAxubNfDOfNZ6uW4dzheBsXhycPMf/LnzZx1Yc/KUtSRnKUDmvk9frD/7kbyDhgw30eSCec/as9bw8qaJg5O9Tz5DI9fYS/R5WuOwJT/Z9+wR9j43hOQyeU9ekSvckLFvOJOwxf7kbEKeM4g8Qic5j33mwfnDvvE7A7x5Y27o5EYYH9nH+IlOmrla/Drw7uVplfMNndiDBzn4sIlf6OPpCr+ZA69GkYeHxrlC7jMf5sf5h6/8Qg9XPoW21gscr4AppMwPu+x5CylnLbZdE84AfMRnzgEKPzTWl7V0jvjgmzxiRQFlHqwvNx3UD3ThM3v7Rje6UTmz73rX/Yt9zgeKITR8Ik6cLzzh4x+x4Ezj/MYfYocMZxg3UjxwsT74QY3hXOBVPLycM/jAemOfHDDuC31rl+B6l8LEcYIJ4gSNQ5aFJTgECRyHNIGGnwKJswSDRsIQNGg4btIQAA5rJkwQmDyvTrnT4CmFw5tJMgk2DIcjRQA+XvOQxH4Zh4LApuSJidcbJDCbBJ/gRx7b2MEum5BHf4JLwwYbhIMbeSB3N2xGCil+oAd9LN5f3Pzm5SaAw5+7MvRDY26+KszEpJ9jkjgLKXdVxJKNzqJScIw3OHxEP37iP3HlRgYaeGILZI40xvhNwlBAeP3BzQSvqpHjgKGAcjfNwQUk+fGBGxDmaCyYIwcB681TIutJPnDTwkbhc1hvoPyMFD/xhxsS4oY/JCSFkOSmkOIHT8x8uYANyU2VBwdzJKb4RsKjgwOPzQONOYLjDpVcwRf0Y4cNQPzMG/zgCYV1Zd2wzRzQz2ekflZUr8985aJzjUVgLJ68sSmFdO+esmfJYW8MOVDJVw5DcpE8Y01Zb9aRw5gCQu7QZ43Zc9BorjnFkz77lwJKzvHEwuHOupPr6OTmi8JGLpV9d8jBpThd/wY3KDeKfMTAjRlvObhxJve4weOJFJ/JOXIJefRhjxtM8ow3P9ysuzcoaJw55Dy+kc/sK/Y2svjEQwY0/OWsIpfpcyOMbc8q4kJOsx/ZN5yN0Nhf7En8QQ9vYChC8NI4a7HlE6nnPGvYWi9wPpEihw/cKDB3GnuTc5M1pBFf7BJjGmtoHeDmB5rryboxZ+LOx0XEFzpnFTcI7GHecHH+cEZwZhNDziFizk0Dbw6wg1+sP+cYxQ8cc2U9iB92KJDctKOPWFAziBPryRyYH/a5YaMgs3acGby5Qx793IAYs5lPpCS6ryeZNI3CxcFOsEhMKjYHMcEhWDicvNzxEWiSnkTFCQOIwzScI2AUTN5NM+Z1IQcjEyQoBJigII89Nhh9nijxgc1E8jBZ+Eg+7sJ4l+2H69iikHPHQXFlzN0OdinE+IVOX/cghx42AAWHBaFYwocekptF9C8M8IE0NPwHknh1YpKQdaLyWtG44Qdx5IDANhuUu0iShjmTKPhN8tFnLbipYD3AQbPhB7HgZof4URS582UDs+HQhwzFi3XijpI+8yDGfD6Ebu4Q/asIbHA2EIWLDUtRJiGB3NAQT2xxI8NmMt7YxR98424YH5CnwDJfnmbBc3PGjQvrgCz2gCQ7xR8d5BE+OU9ygIOQL2EQJ9YPefKOdYafeYIjr7DLHSXrC44N9utf/bL8fcHW+rRwY0Wj4+ePAGdL+X+Je/eUNfCphUORmzJyxoOZnHC9WUvejJH7rLdPOKyljTxhnTkP/LIP5wj7gSdCiheHJTrRR+6x93iTxE0aT3Ocb+wDig0fL2GPw5Zzhi8l8VSETnKf7wSQx+hCJ3uLfUFOsrcoqOxxbIJjXhRYDmuKAfqRJd+R54sxQOZDLJinhRQZ5gc/5xGvpOHDb/YwZ5WFzTONc5vXlOQ8f9UEH9DP+cgNv+d8fV45Zg/4GSlynMsUZ2LC2c5NNzfs3GywjpyZnoX4iv+caexJzg/k0QMP+5s+saaQwQ+OvcsN9HWve93y9gtb17ve9Uq8OTewzxnIWQTNtSd2yHI+Y4dzm/XEBno5B1lD+LBJPrA21B7Oc/jQxUMh54wxA+IbNGLo+b5QIUUBSUCACBSJwKM4jUShkJLc3hEQIJ5I4SXQBBJnWXwX14kjw2HIXR8HMXiezLijo8hRKLm7IHD0+TYXwWXDkVwUYT5ro/ASIPyEl7sYnqYoSASUzcKdIHcZvKKBj80GHdvcpRA8FhMb2AbHHQy8JIJ3KGwaeCl03OmBpwgxNzYj8zQ5s3C2DmX+jBpP0SwgMcN348tdGknC3RwbFj/Khlv7tp9Fl0SBZhIAWTPe9VM0S3Lu3VP0smm5y7vOda5T/KbQsq4kGPNm0zMvcKwZ/CQwsSQp2QgkMrHn8OFAYQ3BwcMa+bqd2LIOf/Inf1KeFllf+NjwHGoUUHKDpw8OI2xzZw2Op2juBlkz7hzJL2SYJzbgIwdYw/3226+sF3wcGPCwbtxJIs+BSkwo1KwrTxroQB8tX+3WpSDXr6b18fojwP4oP8hw3NElf3jSIO/JdW4eaRQkzhb2h+cFh6FvxsgT3l54ppj/7BHWlSc19ia5wl6Cj9znYwnyBl3kCnubXCNXyRVw8LMfyBXejnGOsZ/IcRpPRRQvzhZuHvncn1zjho/iSCEFRw7yeR83AxRFae62PAAAIABJREFUzgv8YX74Q8MmN58UBfY5fOQpvvNU7fwpmjyVcdZxLlAg8ZvGXDkn2evMhzOR/cTTPT5yPmGDs449gl0KQr55ZDXrfPfMonDwrV3Wgfi4XpxBxIpCxPpxFnFusBbYwB/ODNaVQsqNDzqkc/MAD0WTwoZu1o8ixn7lHCDevOWiJjBn4sS6sF7G2/MdHPHzBhodrAMxJz6sPecE8eUNFrUAf8gjeFhD3lrgO/Emjsh7hoDn5sprZiHNADM5Dx0CQWC8g2RBOeQoAgQEp4DIsIAkLE2ayS4kkPAyQYMIjUBw58gdGPLgWCDG4MFxgJNkJC6FjT6bg0MeHGNkKG7cqVkcoIPDJ3jAQydI6EQW++DhxTZz0QZy8MKHfu3AZ6Hz0d/ENCEduxAWUuLGnNhw3qyQmGwKYowv6IcP20DWhJjhMzTw8uAHPCY1eONCAeIVCjFnDshR3LgjMx7gmCdxQAfxwT8aPMSZmOAXvPAQH6Frz1rBAw1/0Ye/6MYf9HIwsGHwhbtaPtjHjnfs4JFhTtjCPk09+ggfDTvMF1/kxR62aPCXOezdU3SwBtxx12vjGnW4/AiwP8r/I1377xmsmx9tUDzJfQolRZMcJ5fNfc8i9yF5wXqb+0BkWGNzj1wxJ4HqApJr5IT72z3F/kCHOYVd+uDNIeTJY/IcGn1zzb2AXnDQ0ccYf8hlIHzoww98M0fB0bCBT+iGFzpjeNGJbfigw4tO7MCLz8SHMXLwYwd//NKMZxWr7DnlijumkPrLRviNTW/6WS/OLCAPRdjHD9cEv5wbPrte6IGPMb7B4xoSI8b4S5/GfMDxKpxzkfMB3cgwP88LYqEe+MkB6NjGJnrQB1554slYG/hlDMHROPPwdaGfCMxCilMEHuVMmDsziil3IwSOyeKIzgvhRy4DhiM0aDScAxJ8aRQ5Jo1OaAYAHvokhzqhawOoDgJIHx3gCRgQefwzKPAw1hZjeODHBn1s0IcPqM/w6I8Jizw3B63kbB3UvNplwZBDN33ujkxSIE9yJqf+4pNxRs4xuMTXNNaPp08SH5/hJS58/ksBY+xaoBMeZIiPsSwxWPuyGLLwQdMWfeIiv33o9LFhH8grV+4iec3i62xkXW8gMjTjBB27rAU+wIMu+vqE7/DBo03lxAP7t3Y9NjcPshf81i7rxjpwEPKRjIcyT2fkHuvMugNdR6B4aNnAo5PGOeBakxfImR/wyeueJj+ho48+8uiBT9vkGjzmFXj1Ygte5DkftA8Ofujogw6OMbJAbWsTO+B95QsfPOpwPsQIGf1GP7kPL3bAg1NOW3zEwTllsZxVSFkv/UYn68UaUQu4CeIhAF/wUz7jAj/zNQ724Usfwddj5sF80EHj6ZOijS0fxKQTM/hdGyAyzFkfoOe66K9x0TfHrgN82CNunuULPZGqGEUGBkcooEyARZJmIAgGkzBQjsHVeOSZJDqQB6ZO+sjrhzq16Vi6OtRT24NfWWj0U4Z+6nQB9EN5ZVI/uHkLKYthIVUHNogpm5CimvFFt75lX1/1y9ihE99p4JwHhRn9xgcan2myEdDLmCRST9pEBjvGrRVH7SmnX8iI0w403mbwqotXZHxBjTmjlzgqo//oRgb5tA3OJh6oPfWAk0+dvNr1y2GbV0quXZbysPbA5gmH//zuGrG25CV3/xySHHi5XvBlcx2FrDHNsfnLOPuZF9KwnTmiT0Jk0OEY6BjIfgFHUxefz+pL+ga91iMfEFu25FO/vPBkHzo4+YrN+MlC/dUGBcG8tzDkOtkHwsd6IWuMmQdFhvVi3YiBc5NH//WzhhkXecUxF32mj24aDxfYdK4Ze3VAs4lz3vrGGJq6geCgaxfIGJp++SUt8nhmIeUzDD/nS4dQhnEDRt+GUXgZZ8CQybH8NYSnlteevGUya7/HCq8Tz0M3bakvfaAPnlb0xROLvqcd56oOeLStfW2qM59IPTgyWcX5ZSPtoYc4YlNd0LQJzljAq7/ikg86/MoAwZl46JWGnMlT60BGXdDoA23o4C2C8Um99GnKyaMskLVDJ5B5T+JNIV1r8OEfTR3YpWnDHBCv3zWUT1u//c2vJ18eYF36tfwI5KGMdsYczBQb15A1pg+c5MDa2SFNumsK3mZeOAaWvFrLP/Hmh3Tx5pH4zOnabtqyjy1k4S261m4EpRdcnIXaBcqTuBrvXIDpj3rhZ38UvrV9o0/qdwwvBcEz3vPKdXKNHMPnX3+p7WEzY4rutFP8acwbvE3/kKWxR6UJ1WtuyIt9+/Cii7ExUpc+Fv/XfrWKPvK0gl/zE17tKo9OeHwlTowWKqQaQhHK00kMSmeC9KFnQ8ZJKeukxOs0Y/o67+TQmzRtKief46IjCgXjtKUf8qkvbeADfJPCE39NxXmmvdRpYuaRZFICTVQKKU/2xY81e+iu/WWsfufBOHHpkzSh8vDUiQhPrh2xlB/IWB71aQtfaB460D0cjaW6GKtLGvz0efrQB/mhwe83L+GjpQ/GirVKv+FLW8qBsyHL2vZCmlm6mj4572tEc5///kLetNYKHHlgLjBmvWiupbnDuIVTXh3yp55Wzshfcrrak9CwpW50Jp+5qS1zLX1MHHypy3ngIzR41QkfY3hyDxd8nE3w4xN441X2RzydQsv/xuF55RnlGrlmQH/ZyHNRv/BHO+Ccq3PBlk26skLpqcc4STMWnhPol6YP6JNPuv5mzMCVdctCGvHRd33Qb+zxJO81s5DyKO9jf04OA/M25JRFxrE4gyiEh8kaKPikKQMPOHUpI10IDzT5cwxOPnlSXy2TtPQvddInyEAWyTs9Ay70QGFMP59IkccWNvQrfUl7Sdc/YPKLFwcUB9Rn7KY+8Nqyn3Ktfsqrz3moS5vyGi/9EqofOXhqPvWZJ8jpp7S0pT6gtuFjTCH1/5G6RglZo35tPALmvfFkf/BlI17tuu65jvZdrxq6pjW+Nc51V05c5ov5ig7pLX3ilBWmDH31JV0ecPbdL47VD0xZ+jmGjoxywlrOsfIUB3DTnkhdLwsp6+WXjTjf3JPq1I+E2Khty5/zQEY8ffc1/VqHY3iUAadd7clX89R4/RAPVJeyQmjMe6FCSuAsBgSO/3dD0vP/DGmOwdEXLw2cPPZrCC//PydlePqgoVfdLT1J484CmZqv1qH9Fj71yVdD5YT6rSxjacauPoJIUA8TaBRSPmcgDthz7vTVpR/o16a45IMfeeJBY0wSsPjyy8O41icNKL/2ElfbhGaDxlwcpxz9tJlzxu/ad8bkHo351Hahp359ls9x+pL9ov///79lvZDWWbr8sQezuc/+uOiC80s+5P41P3KdXMf1QPRknqhXXdgTJ59joHzAxJOT8LO33COM5U/exGlDmXq+8ibUD2WSpj7tJY1+yqYtYv790747eVhyXYRkQK4Z68WXjdCpzbSFHfAtmnZrqH/po/NQV9pIfvjUl3j5U6e4GioPTB0pKy3pxM1r5hMpdyI0Lv6/0RmnnlS+9nvm6d8rC+CYrwKjGLw0xjR4bOJqWMuhDxnl5a/1yAM9ZeRXPvnG+i3e1JN9baHL+dJXN3cr+aPGBlyYiQqO/3pBUqML3TTtqVfd2pMuTD7uMvURX2iJgxecurQJnj407aFfPm3UNhknvzLyJ41+6oNX+9rGPn3lgMSTOdCnwZN88upb7ZNyyYcNdPJjE/4/UtcoYb1eSev9+SPgoawEB/MlP7lgkuush7lT50Wu63r6rj+ymQOMMx/rvNMWMtBomXuci/oND7QxW+K1oV2hdKB+Zj99lQ5UXy0PLfmwY5N27tmnl0LK2rTyXLxrxxsE7J11xsllnmmbfu5JbcyC+i2fY6F4IDhtJl5aytBPnqSJN/aO1ZM25NE2ZwZx85q7kFJML7v0J8OlF184/OTCH5XkZwNcfNGPJ41x3WbRa37HyNmfF2or+cXVMHmyL1/iWn35gC06cSJe3oQY8DHIT9Nxp4ecutXruLZVj+UHKuNacedMgjBOG/Tlh5ZyqT/5WnYSZz/tqFeaUBvSgemH+PPOPas8sbOJnZO0Fr80YNoSL05d+Pr73181eftSr5OHSY3v48UiYByBXOwPflHq0ksumuSeawNkfVzfxK+nn7kwJm9+yCtMfnMGHK85+ViAg1Ze4JjP0LKlXvrSxDsWiq+h9IQ1D2PyvLRLLir7grj//PLLJp9buy71qrpurNcvf/Hzsl6t/Z326bd8mAc3S0/qzj66lW3ZqWnGo+aVr9ad+q/42U8nNx5zF1ICazCFBDXbGD556MvXgsnbooNr8YirZcRz50tzLBzjh560mt9xzaeMiSjdcUJ54cE3L/EtmHbtt/jQBZ7Pt4H8x3ZeP2GHsXRl1QUUNw0mv/2aX/y8UHn47RuXc846rfzk2c8uv7SsYcaqta5pU12Jsw9Ne0J1J1RH4np/8QgYx1nQ9WnBRWRrXvXVeMbSapi8zBi6Fx8H8KtB3KT6c3Hwk5PmZcrXuhlLr2ngwY3pkl7L5VjdCfU95RNnv4bJjw2u1Fv3049Wv+av9c8jU/O0dIzh0n6tpzVOfvpc8HHNLKQpXCT6PwtFwPiNCUl3Ycb41otnE/LKkp/e4teC2Ph+eWy9OjdTDl95WucXSPiZtLO/f0oZM69lX65FS++q1qdlazfjjHHCnThfDlBykHzkh0T4xj2F1IPV+e3EuY35vBvnNDbXefHEhGtmIVWhAoyzL70FDXwNW7wbxY35VNvOccum9JrW0j8P7xhP6q95WraSn74yNS9jNrj4q666snxdnc3OX43gA3ReYaoDXja/+mo7s8YblVM+oT7hF/5TTPmhBn6Eml9RAeeBlf6lDvqtq8bnWPl55Fo8HbexCORarFeTayis9cxjQ1lh6gBHftr4ERH2Fr/fyvccwJOv0lt5ir6W7rRjXz6h+BpKT1jztMaL8Ld4wY1dY/ziW3LTaC3+MZx6gF4tXE1zDJzGn3T6CxXSWYp1Ivnok0y0Gr8Tx605igM633puydPq1/yMW1eLL3mlI0vMKTr8bBc/p8UPxfOLQfx/SfnqtUmb8gin0eRZL9QPIIeQkKdRXufyl1/w3wMLO17TbMoDlK+Fa9GSr/dXGwHiz5oDW5frI4TH/nphy84sveapxZIfaucGjx+A5/M0n0qzkOpf2hMnTLstPu3KPy9UV/LXuFbc4W9dqUe5Fm/yLbtf+6V+8Y6XAXOOY/qwO3chhdnFrJVDaxlJ/rF+LTcvH3JjvDW+trGI7DRd0lI/uNxEjKW70C3Y8qmWc6zdhNJcCyB+8IE4fwqKP2/EX2Hhd3T5ZRLp6Z86hKm/5qtpOVZ+DKYu5SyejOl7UOEnPz7NjQAHFn8Ngi9HwOOljhpqHz77QmUZK0e/X5sfAdfAHHCNasg6tXCu3yJQPTlbccAxXfgInadPvnTDH3jgT/bxsQN/aYiL3NXX1KOtWn/abfVTh335HLegPMCkixfnnPQPCM/Ypb551ksby4L6Pg1u1Ja6az3Ou8YTp3UVUg0J64CLHzOc9I32c1Ib1bUs+TGf6jjlWNvI2gfWV9KyLx847YPj27r8TUee5vgheAoqv4/sH7DOTVTbS13aQqf9ZcKct0UUyLd0+Ss13ARwYPEXH/jTTfqtj2O+GJf0u4XTftJ6f3Mi4Bq6Bozra2x9a7y5nzB5ptnQZs2vLvHkJR+PkIfsJ/6EILnJn+IiX/32N/xc2lQ/UF1jUF7ptQ/i54XK64ty4hnnVY9rmnK1PvVuBsSnZdlpzWPaHJOGHwsV0pbTGeC63+KvcbXM2LiWmzUe0yN+lvwYXXlg8tTjmpZyy+irv9YF3kIEjb+iQfGhkNK4c+ZvKpIIFCPatGvMDjLSEk7TJQ3++sIfL3xiTLHnT1XxGRRPo/xNVJ5MKayX//SS8hoNXcq29KpzFtyI7CzdnT49AsS+btMlrkmt5WeNr6nhmpiWDrjIN/57C384mxs8Cim5SZ7yBx94vcseRJ5LmBZSd+Jb/eSd1Z9XHr5aV8pCm3bVso7XI6OscEyHdKDXLJx0+O3Pgi3dLRnywLNnoUI6ZkB8DVvGE1fzzxqn7Fh/lo6kj+kYw6es/UV4lVk1ZHHZzLx+ouiwySlE3DUD+SPfvJZis5sIq/Zpln78IJZc+MX1iyt+Vv7YN4cVd/42vjTF30Hkzh8Z56B8Ee7/7KgItPbRohNo6RjDzaNbWXkZc5PH3uKtDm962FvuK/Lz+c99Rvl/seaksjWsddf01liZFmzxi2vxg9vINaZT/Jhu6WNwTE78mJx4+aZBeVsw5Vr0Fg6ZlRZSnaqNi18PrHXV41XoxMbYtVH7yo/pXw8enWzkn1528fCi5z97eMJhjx0e+5hHlMZfkn/2M59S7qjzrnk9dpYpk4XUp2T8x9enPOnQ4fGHPrp81suNAX+xnv8Xy42Cc8UX+q1rFTFu2dmtuFXGr14zbQkXjaly0+AiOtHjRY7yloQv8L3/PW8v/3+Um1I+Jz3kMY8sr3YZk7f11fKn5pl3vKiuFn/OK+2O4ZMn+4vobsklbp7+mL3Ez9KTvNkfk0ueVh+5dRVSBFU4Znwz8NvBh5wn/ix6rXcOLbm0T59CyZMnr0H5u478buUVP7+84LirtmDhc8ouOodl8GOfg8qCim80fOfJ9Adnnlr+9iD/D5Y50OCFR9+B9vVJnFB8h1sfgbE1qddwUU/VW8NF9SQ/usw3cu4/fnlFaeQmv2PN70Wz1/hyn98/0D567CdM/avup136Y9c02jSZ1D/Gt0z8MuypYx6/5G1B5NddSOcx3nnWF4F6sWotNd1xFhVleP3JD+LzM2YUI36cITe6fMqiaysu7HpQ6QMQv3gC4KfY+FF/xvDRaj5x4DfStmL+3eb2jUDmEl4yZl+Rl9yQ8hvZ/C4r+yxz2FxN+exv3xl3zxaNQC+ki0ZsxfxsNAtFFgbN5kaUV5wbFzkv+mx4/vQPv1cLD83PIeGr9Si72dB5APNizP/R42+V4ruXfHW86nHqrfvJS1+d2uiwR4AImDcZDXOFvwzCj5lTXPPKfFJenLLJ3/s7NwK9kG6ztWODtQ53N2JC+cQxtkgmjidQ/rYeP6zNHXRuZvhzjNxmXPrXspc4fKPo86e2+IJH+ouf8IJLfchkS1rdTz760tW9GbHoNrZXBMiBaRd0cs6PR/i1MAqpN6dj8uDrHJtmp9N2TgR6Id0ma5Wbz8MdXOLTVWk1nTGbPAsOG5w/gMufPcqNXNtRZ9pZVV9btf/Yk6ZtxjyRUkj1X5r8jpWVr6W/5oXHWKhPeXk7vPZEwBwam7F0c4S/UUkhZTztUk44jbfTdlYEeiFd8Xqxaea5ks+Nlrh5dMiDHMXTjQ6kkPID21zQwfkkp9xmw2nz1Ed9ykIqDp7WNU1vix9c2qO/1bEZ87PjVx+BWfkDPS8LaY2vxynT+7srAr2QrnA9Z23IND3rbjZ55+nnJqbvE6k+YY+WfPPoXSaPviRUvzjHFNKvfuXwTfEX272QGvndAc0n4axZyQecdfkZKTnjpbzjDnd3BGYW0nkTQr4WnDeELVlwG73G9K5Xt/rG/JKecIxXvIXNA5yx/dRjX37H6LFvgWRMv36125LVj1lQG8CNXqmr7qdu/PXLRul78tCXVsPULa3GMfYi7sZeXIeriUDGfZqFXK9p/ZaOMf4Wr7iUEZcQOrnEZSHlM1Mv6cBVXOnftP402yk3jW8ZtLRlf5peeYTTeLcDbeWFdNFJGjjhovLT+NUJ3Mg1r7z2ptmChw3pwe0XFsDxJSE2Jw28TZww8cgoB54+X8vnifTfzzmzjLWFX/POxTnMMyd554Hqq6G+4Svz4C/TH3n4Zyb+My/w0ukbjxpCs0lznPHCJj/yAA901sD4COeZU+eZPwLzxrXOj9Z4mtWN8Lf0qg8a/4eUz0jJGy9yJ/NH/DKhPrTgvHaUnZd/s/m2u3/GY2mFVIUdzhcBEoSLzcahTUEoPzbws5+WHyHghwho/EoKkD8lNq3xF1Hkv+zSn+yjg6c5/jD2uWefXr6ij00v/XC8VTD9sA+04F168YXld3eJB//pvZ7jPDFqxQ996uJHHtDz61/9crIm6ctWxabb3TcCrEnd9uUYHyk3znE1ZRYvdK7vnPj1UkjZw16bUUi11eHWR2BmId16F3enB25SoBuQP1rNH7B+4+teObz5Da+etLe88TVD3ZI+1kcGXa991UvLD9Xz59MoTB4ARFY/tlOUs9Dbp8C95pUvGd76ptcOb3r9q0obm3fi67jlWL7U9953vmX46AffU9YE28Yq+9spVt2XrYuAuUEh/f5p353sYzwiX3rObN3abLblXkg3O+LxDVGLmJuOvxzBk+WqLw8A4Hbb7C2fjNOq46J+fvKNy9e79LdbnPRVuNkx0u61GRJzrl5Ir81Z8Me590K6BTngoZeQg/rD739X+VINn9sx5jMXoK83eXK1iauhdA9+5f1skOl6AKT9LQhD0yQ+6bv+JSPzYI7wONc6BoyljUFlkk7cufj/qlzYoHG1fCmEbfCPvgH7tTkRMOZY6692Nyfm29lKL6RbtDpuxIQf//D7yl9l4XDnAkL3QJ8XIuNF32IhHph9ebcL1D+hfjE2JolbJC7qbMn4ZRH+mw2XvPa1ud2gfgqX7d9O07vs+bf0ERNyiMsvG3Fz5mXMgP3a/RHohXRkjXMjrHIzpB0LqRvSomEhbB3+4tBjH6jPQOXTlvSR6e9TRMZ4VoUf85N5MRfn53ydnzTxs2DN7xMpP47PlTHK/qrmvR69dayW7WfqX49/02RWqXua3Y3S8NvcQte0QrpRW11+Z0SgF9KRdcpNTn9VV9qhkPINWzYpl3blWa8PygM9ANQ9plOZMfoq8dpOH+u+PMvyA30UVq58Il2W/lXpMQ4Jl2lrVXrxcZW6lxmDWhd+s4/Ml9b/I3V+tWwf784I9EI6sq5u8hHy0tHYo5Dy/yXpc9VwGUadl7rHdMo3Rt+NeG9gdlIhZR1cK+Gy12ZVepft52bq84YUm72Qbmbkt6etXki3ybpwWFlIV+lSPxTHo0tsuHZyIR2fXacsMwLkijderVe72DKflmm369qeEeiFdAvWZayYfexD7y2vdusNWI836vKy9W3Un+0i78HY+ox0u/g45kdf07HIrA5vzC2kvurVonTHHe7eCPRCugVrywZrbTILqQe6PEBwjrfA5V1lkjjacmJ+yatVSHvsM1K9TwTMiV5Iez70QroFOdA6xHHDQuqdrRsV2Avp8hbK+BtfNc8qpDW/ch1eXVR2QyzmXWf5eiHdDau+sTn0Qrqx+K1Lmg3oJlQB415I/xgN41PHyFgtA2ojdfVCmtGYv28sV7le83uzMc555wKfb45ahXRePRvztktvlwj0Qrrgtx5zg0zrtxa45k8eaBZSfxgAHBcbtvVEKj31ZL+2V4+Td6yfMvKIc7wMqM4x2LKxCG/K13LQwBl3Xu3Ko9zYGkifB6JzmVft47y6lduoP6nH/FRn0ub1S76UVZ+0WbCWrcfT5Gtexy0ZaM55rJBKH5NXf8IW76K41Jf9efUsKpP82Z/XXvKlvP2kb9f+ri6kLoSwtQjSErb4wCXPrH6tYxY/dL+164HORuQC1puy1rcee6mjlmec9LF+LSdf4sUBW1fSs5/zTtnkGeu37IBLfmMqzrhTSNM2cvV4TP80vHaE03iTBn/rGtMziz/nMqajZa/GKdvSJy1hLT82Thn7Y7zi5ZsHKlNDZcfmIz988PARDH3/+4tvNOCrdSgr1Na8ULlpcJaujcqqv9YjvobT+GqaY3TMip282wnu6kJKoFmYzbhMovXaQt4fZGh9RrpZ81iv/8gZg/S1hZvHhnLz8G6ERztANjCXXzZyDE6+jdhatqw+AfOqx0mzr6zjjcBl6tqIH5spm3P2t3azkCZ9M/3a6baMG3uP/k65dk0hdQHqwO+UxcBPC6k+17Ce23Yb469N3/LuUtx2g7XPFtIav938xh98zIIvDvy0axZ9mmyn7RuBk751fPkzallI9+Xoo0UjsNPyc1cUUoKeLRdtMxdkzIf0Z6yPLJ+RrvqXjcbsbxSfczfmwO1eSFt+t/76y0bjsyr59F8biav78IiTv8P5IkDc8nLMq13+HmkvpBmd9fd3Yn7u2EJqsFuwtYQ1nzzg87CXT3oLJo99dPBKVl1C6K0r5eT1y0a+2hVKV6aGSdeWPNDo5yVtUZh2Uuc8evRD3vSHvnhtyF/zJa8+KCtMHeqRV30tXg9Cv2zEmDWQt9ZR+5J89vUlZenX+OS3L6x5tZtzk7eeH3jlhcyJpnzqk0eIfH1paxYc09HSqY1ZOqXrM+O0I10oDQjOS3rikmYfCA/yGTPH0L55/DHDmad/b/JlNfnTJjgbeGngvKTXsOav6WNj9SZs8apfmDzKgmvRk5d+fdX0eiy/eG0AW/rk325wVxbSXAD6HhwJc8ES72ZJ+qy+8hy8NnGpr5UsyffRD76n/Bk1vvQCL7rG/E+57JuAwBrfmoc8SRPXgs5PO5nQzi8hdMepT3lo9JOW/fRrVj/l9BMoXpvqAU8fCN/vf39Vmc5RR3yu4FgHaPiYOpRPKH0alB+e2i/9UD55k1+8/EDjK8yYiwPCa1xSj7q0XcOaN/lrWsq25pj8+pa4lB/ry9+iSwPW9BYtcWN99Bg3dTJ2n1JIzzj1pJI/6pDfsVB5oXih+GVAdLZiDH6Wfv1JWMskbZ5+yk/jl0+ePGO2a3/XFlISiItFufJ3vx2uvPJ3w1VXXVkgfVvi6M/blJ8Hjunk4NY+/U989APDhT/+YfGXMX4XGP7OslfbavHXPPpQ41NWGrjf/fY3g398vE5sN64QOhuCQ0cdYzDt2R/jBS8PcDROrH2sf+pDzjE8v/7VL0u+8GpX3ehlrrU96aljGk/6kLKtvj5N9MUcansc2Ob62FqIh5e1QwfjZbelAAAgAElEQVRzGo3ZSL7pV/osDriIPvmRUUfqndVHZoxnjKadFj1p2S82qviDI47ugxNP+NfhtJO/XfJH2bLev/vtZG7ihfrOmH6Nlz4NKqOOFm/yZL/FKy751C1OHqH4mi/x9pUB1jjHCclRzm+usRw3t7ca7qpCWgeT4F/x88uHH5x56nD2908p0D7jxJ1z1mmDDZ5ZTfnUMU1Gfni0kxD8lz7/qeGUk06c+HXWGSdPfK/tpL6WXXVLq/mlA+VJKD7lxOHXZZf+pBTIOuaOs5By4Jz/w7P3mXfa2khf//DNPlCdLZy0hMyJ13M/Ou8Hw9eP+ZdJ3NFb627plA+d0tXvGNiiyydUV8tuyqPvZ5dfOvWQ8QByL5hT6K516Z9+1PQWXl/PPfv0feIkb849+9CVnYdXnmXCer76Y2ywBQ8xq3nFw/ONr3+t/E3S9A16LSM99WtD2jSoztTb0iVfrWsab+pELnml1bjEs/61XfhttS+OM7bqRw/6fnrZxZOnfs+V7Qp3TSFtBZinoJ9c+KPy/7x4/WIj8U/Yu6c0cdxVZhNfQ3nQYat5WmPs1fzqgh8aX1o44bijJ3zyA2ud0sSjSz01TnzKaFuoTEL5tQ/vt75xbIkTie7TkId1vQa+mqGQcsfO/NJP9abNRfvqQK/+pg5x8iXNvjyMib8+ShfKV0Poxoa+dPHAXH/o4Gz1GF36oK4aqu+iC84rNzRja8CaQGOtLrrg/GJzTLf+pH1w2paeUF6hvNpQ3v0mHXwtI02obNqznzzikh+6MarpytZQf1q+w1vjlU+79pOfPviWfvAtP8HXTXvqU6d80hlnX7r2HcuT+qDVfPgH3r1PX1n5oSWOvnqA8Nm0BzQv1AMEj74fn39OyW3Oke1+7ZpCymFRHyYcHpdefGE5HHnKOP7Yo0qjv/drX5m0pMHDYUqTP6ELj8xxX/1y0SFdvY6B6Ele+vLZTz34dczRR0z0Mlaf/ELxacd5wQM+eaFhS/6Uhw+6/KlHXcaFGMxbSFkTXnOdfsp3yqbRTtrSpnb0b3QNGusDrzqNeepN3S08OGOD/WP3HFliUfsAn3YyfvDpg3Rx8KE7W8sf5GjKpS36towPhbSV+3nwQGcvcFOJbvSwhqkv55L6a3yO9RMcuoDMsehf2z/0nZdxSR3QibU0Yc3T0gku+bTjHNFb+wMPOO3oHzh1gUue5IVHGe0plzLwtOKjvDJA5OCXRt+xfM5Jm7VuZZSDD73K0VcXELz24K1p6tOeMuSNcvDUfkjL/aMP6jROQJv64QGHHd5icfVCmrt5yX0PjxqmmSykJgQLZZKx2LnZXOgWRAY8C26ysODKq1+oHXXBq47kMZGAylhIHatDOaD80khW8epUvsYzTpo6lAMqI688jOctpK4NhZQvY+ijutOeNrVTQ2TSF9cAvtQnn7wJ637y2kcfutMf5bSVvOKUg4asB4l08OaKutUjTB304WvxQvMA4ynTOGfuZx+6T6SsHfaYo3bp5xj9rSY/ELpyKau/KQ//2FygGRdktKG8Y+QTl3bgSVn9Sb3S9UN5ZMVpaxpETy1b+wVdHL5oW70pn/blU7aG6aexV2dLj36kHHzoTb/kS/upD7p2yDvjm3LJQ9/Ya086NqTLw9i5wg8eG72Q5i5eUd/Do4Zpjg+qyxPp2uHhYrFwNAqWRSsTUz6TRygeaCKy6CYEeHmFySsd28rDpz/QaYzByy/esTKOgRYpdalDP9LHmqZ+eJNPWejp78KF9Mrflf9nh4/6bNwSYk87+iTUF6A4IfP52lFfnMQx11Qe5dFvH2gs5NO+PPgnDQg+xzVO/fqgHvBpi75NffAQW/mE2khd8NF4ynQPZO5nPwspr87Qpz/YoE9Tf2uOtQ/qsKAzZs7yoVee1Fv3naMQP9RR84JPWo7tS1cfY+dmbqNXetoQh0wWjNRJH77Uiw7G8jlOfWlHP6BnX73qqiE61NmKk/qQg+5YGSE0mz6nPnHwK2MfPvexewO/7MNnHiiTfqsb/twj4KWBx04vpLmLV9T38KhhmuMunB844J07i2QSsMAspM1FdCFdePGMbakn9aGzxQ8PsiQH/z+RPoe+vNCRtRCAZww//qVeZfQFKM4DjYMSneDByZt9cUJ1AMFhmz62GUtPvbzanfWNOtaG1zKTJ9K1Gxp0GnvnmHa0B67G51h/9BtIcTGm6pGOrHGQlnNETp3wEoeEScs+PDR0glenPIyZJ2sMDh/gBZ+8yoJjHurUV6C4omfvnvK5p3vA3GecF2PWiqdXbaNH2+oHN60ln77oD1CfgLTkTz5tYJ+4MLafMuBybL+G6sYmMjRibS6oHzntgYMfqDwyjomT+oDyqp8xPI6B+qW+r37l8KIvcxw+x/TRwfmEDDrVkVCfEsqrLfil04eO/vpcST/TRuYFePjUpw3PBW1rhzgr79yURY+64E+8etTPmD786Dvv3LNKGvdXu7mbV9D3AEmoGXAU0osv+vFkQ7lwFDQaSUZzc5lYLj78Lq4JMEmetcNQWejqNxnQozyb6stf/GxpFlT4SBh0QOP/L2obfnzzME/79oX6bTKDF6c+E5yxdOWFyGBPGXmlOz/gPIWUDUDjy0blM9K1wo4vzM851mugHe0bc2Op/46RRxd8yKjPecCvLmJUyzs2ZvLj51e+9M+TeGCPhi59grfV4MGW65v29QEcDTvqNv657tKwqS366Gm92iX382LMOsDrHLGJDeIGZJxxMwb6x7j2I2n0yWv9Qh9NPUBtwyveeQKJdfIgzxi74pFLXeKF+MBeQp+yzMu56RM60Ksf8MIDxD8hOHnBKW8s4D3y8M9MbpKVw/4RX/h0mRM64KMhT8ux81M39rLByxjdQMb0HdtPCB+x4H8CqAs5462sesklcUB9hE6/FT/wxgGIfnn/v/bu9N+2pSrsvn9CntfRiEojiGCv2CKtCIiKLaiASCeIIIrSiHTS22CP2KAiiJFoIiYQfQTFhigxNlEUEw0xiQ2gMeGiT96sJ9/p/m3Hncy1m3PPPXefc9b8fOqMqlGjq1FVY1TNtc7ayQuXntrorD189c19ITn/pz/6/WUZr9fzXNsXpX7VftkoB3Jyjg7qU5+J1GSZNIvr1T/2Q7vv/56X7l723d++/N9NuCaxxdjkgtXra8GZ7Ff8wPfsXvLC5+6+5UXfvPvOb3/xMe3xN9KOFqj+T/20T9vd4Q53WHjIpLMF95QnP3H3jU/9uqUtoNz3vvfZPe4rH7kcAuhj+6SHW3Qcye/0bVN/+7e8YPei5z97910vfcnxBnjlK16+bJT0NS4LmiwLHPR7v40XpLfFjrf2vkQ656BE+p7//b+Wb+2mm79f+5pX7n745d+92MiH2nOTsyX96kp2ZHubEu8Pff93LfRk/sDLvnOpN6ZkzY2/+HJ16yN3wR/dNJ7xtCfv7nb3uy0BkazebEw6svHoTx/o/wS/4JufuXv+c79pl+/Zyb/kGEvjyhYQzvy/9Ftf+D7zkG2NR3vrW7tzDtoLJdLpQ/9flp32wvd8x7csP1Fp/eTf9NQGs1ndOOtjS2Nm+/d917fdKJmh6+aSr/CwB/ypn/ix3Vc8/Mv+wf9HN5xkpzPbk9P6R6fPt0P599Pv9um7n3jlDy/rq2AtoXzvd37rsh8WW8YX1thj3Pe85z2WudJm00//5I8v61I7X0wbvP0xV/e4x913fkwlGySdFz7vWbuP/biP233xF33eklziAxs3+//5q3902atih32gv3Gpx3ds85Fv4NkEkqdkY/74jm970e7+97/v8SFz0qpX8OHHZ6zRgXDKq370B5ekbA/Zp+h+8lU/snvxC56zFGu85GhM7bVjG4/+1wJZ2WmOpu1L/ehLcOrrG6l1PUs54CLAqz6RTifOAKLuv790IzWBAriNJmhINt/2kufvLDaLoAVjki0SbYtBaSNZWPXDW1A2ygMf+IAFPv5xj1pobSQbGERjUZCh/kmf8smLDdr6yWPX1zzhsbuv/ZqvWvQ6UUuq7Jx20Il22poOeIGRLTb2F37B5+7Y45ZL3pc/7EuWOhp20EseO9E0ns/5nM/a/cxPvepYjzHTwV686OBOS6T8PxPpb7/11483roTSHHzri5+3zIMgB5+v2dc4g3Nj5099T/36r9nd7na3W+y+173vufuQD/mQY1n8orBbMRY8E9fY+UVJnwRjXvTDJUM9X7ATD3lko3FQ+9zPfcAyBw9+0Ocvhyx0T/7ar17mge38To56c6guML/8e79j95Ef9VELPplopw5t68oPePDzfOY+CI9m+dbu0eGBnRKf9e+QZz8oDiLWyyJ/HDSMkX3KnJv2BHkPe8iDloOHtffRH/Mxi6zGiM+YQbT52vjgJNIv/ZIvXMakX4FHl3/Igs8n6tnSHJizT/zkT1r2tCRChvK85zxj9/Gf8AnLGtHG2xsgvBKpdeQWqZ8OB6mv/qpHL3MST33ZgP5TPvVTl8MbnMJOxZr+kgd/wfFY6TSH9PGFA4EDtAP2F3z+5+w+8zM/Y8G3ptAo2vQ2fvz8nk3WIr3x6bOOHOTI1CaH/nTHrw1PFn71xsFWePAhX/pFu2c94ymLz9BJgve5z7134oV5F0vx2dePeuTDjunyhb72jLqDzcO//EsXnvQ3vuhmIrWm16W1fRHgNZVIp0M5fSZSkyXAmWgnZicpQdxJ0A3GwrNoFCfR1/z4K5ZJ1sZrki2gJrvJtxgsCv/vqc8nLc4WuwWMhxyb9WM+9mOXk782vM1sQwnYX/91TzjeIMvp7I2vX+Sgs5jpbOGzhc3a+hXB6E53utNyC3I6J5ceC/exj3nEsS68ij56Gjt6BwPBAT59+Gsv9f9L5z9Pu/G3uPO9ds9WImWv07s5ELgFcvMg6DiRF9zYJ7GaC2M3PptfUWc7+xQJ6i6f+InLZr7//T5zd8cPv+Myf2gaJz519jductljbGS6CRS40KUrfW1weHzkVPCSp21cAqg/+PzWt7z5WP7XPenxy+GGbHaTC+JhG5nabteSAXnssa7QmB889McvkZ40B+ZCv7lwqGQnXdaiNzJzHthtP1j7zbe1IWha461l+vMNWfnnkV/x0CUps1cyfc4zn7b0GZf1aAzsVuCmD831g774849v6/UnW7t1wA6+IIed5OpzALCGJHHw8z7vs5f5xiup3O1ud1vGjY/dYOuBHoV/FDLZb87Siz665pAfP+7jP36Zs2Siw+NWKtFok1c/m/GDEqkExWeSKX+jZzNd1dHjZxucdj7KF+ZEPbzkdvd73P3Y5tY2OWjIUejRx0Z1/flVvz7J0WFk8f0bX7+sGzd4PGJfa7PDJ/uSRxd5IDwd9tJjHv3wYz1sR09fa0siFWM6KK7XeXHmIsBrPpH2f+dMogAlcD/3WU/fCbhuDdqSq9cULSyBfr7KsLCa5KDFoDz0y754CfgtENArVTfPj/roj142B7nwgpFEapPjdfP77M++/3L7uP3tb797wuMfs9wSnFAlRBvMgvOaTGB6wAPut/Cz2YJeXj3e7W67O3/ERyz0FrrbmOROtgXpdvNpd73rghdgBGi3DslS0oRjK9xnfdb9FjqvpBSvrOkRION1ozcWv0zSIm+hF7Rb2AVwr3bdSPlRopQ0+chp3yvsL/rCBy4BGN5hIB87+HTIaXOBzQfIt27yxuywQOZdP/2uy/zxh/F61SeoWAPmy+38E+5yl+X2bt7Nv5us+fLq/Znf+A3L2N1g+F2wpMv88JH54XNvMtgqAZD3ER/5kcu68lr9fve9z5KA2If32c986pLgb3Ob2yw3o0c8/CELrzHzNX62uyWS/wH/7AOWuTbn5lIyMw4HBrLo5Ys/2/h/pPw+n+ahtzPsMW5JlI/YavySBj9ZC9Yn+fSak97a4BUUFXV2tBeMyWHQmIzBOpVQzIt1z2dkmwdJyk2Ojx0i7Q1+tN7Nz1c99pFLYpSM8HrL4pUhnebaPHR4Yqe97fZl39zuQz90sdfbAGvIK2O3TfrMDT3GTC4fGKM1w7/GamwOZx92xzvuPvT2H7rMj0Ri3aMnx5w9/Slfu9ht7lo/DlDo+MVhXXK0BvjIGK119E/86q9cko83T/xj3t2g+YvNxu/GJ1mxj0w4vPe+970WOrT2qHGgc+iki/99JMF+45Lk6Cafv/Mzf1pfcOYOb3T2O//BPeyhD95Zt2KU/cRmfuADtvKX8VmX5pj/7SWHFzaaG/aw3WHN/jJ3t771rRfdj37Uly/+otu88q+16K1XMWau54tYv6YTqd9q9AULG82ECt5O3CbT548Co7YNb7ItGhvVqUoilTSczgUyG6OggQattlceNoWNZwFbtBLUssD+7w8XWLT0onVituglaifQp33Dk3bf/OxvXBYiW5xO2YrW5tfvBIrfq8uvfMxXLKdcG8wmIEsS8GruXve652KT5GoxOigYJzsFJxuFD7QtfIFRgqZPAHIrhHeCtqDhjYXsRz3iYYtfjI/fyPAzXi3yGbjXdUm2z0j5jWz+ZptinIIlnM1ZwBZsjdH4zIPAbxzsyv9B/ucrtksMgoAgxj8Co7lxWCDvMz7j3surKH9px+tT4xakHVrYAWfuHSDYh57fzEkBWF1CFjj4RCCwTvhdAOAfp23BxOvKxmSOJQGHCfLR4TcOgdKc8bk1yQ63E7TWAH3WgaAqmLnB4ZdI+VjJ98ECjrb+JZEeBT0+pUeRwB3o+Ewi7fNN48zv9ocx8qG5KXiWcNltzIIyn0mkkqbgbj/pNw/WsHn0EQS/GJ+x22PWtdeE5pMO4xPM0Zgba5wvQAnb3nEYdtuVwMylgyO/ky0hOzRLPE964uOWG6n2rW51q4VWv0RiLsyBpMdeY6JfwvDxSK970UkC7CdHwjBGc+UwwDfmhm60krZbsXGQKSFZp+KAuMFuPrFO2Wj9Gqv15/BrPPbbNz3965fDtyRsPfMPv7DRGiWHPyR7b0D4xDqxF6xtPqOHLHYpbPJGgr/EKgcGbfLoiQ5kE/9a7+ZK4QP+M8/Gbp2wxxqV8MlHB8dX9r297GBq7aC3F8hBq1jjki9/22vL746/94bjdd16vojwOkik/3nZJCZMoFYsFpNtk6jDmWSL3YTaTAKc057gIrDos9mUkgxem+D93u/9lnLb2912kWkzOWXSIUm5dbk1CTQ2nwVj8XntYjEKZDaSAs8up2O8AoBgfIcP+7Clz2Z3axK8nRBtDhvIiZFOepT3f/9/utCRRa+TqbpCptM0OpuSveSy1ylT0iVLn0AjcKnT6WTJB36X9lISqUBQAOd3gZOPS6QCE/nNg0Ruc5kLm7F50N98sVsC4D+3fadihxI+459O1AIcn5tr60EfG7zyEwAklzvf+c7HiQ+dm4aAYM7Zym/08p3Awi5zJjjws4AleGhLGvzJbwISm8w32yUp42QT+80J++HoFZxLMmRZC82LW5f1yQ4HRf+1pUQqaZ6USI2Dbn6yrs2FuZbE+bm9UBCUsAVlScE8gW7obGoMy374v5/XGpt5ELitJ2PSV0IQ4K0jhxg+MQf0kCWY89UH3uoDl9uZw4siEdgfEo/1LiFbk5IRW80PfYK/+ZMYJHM285eALGk7xFjHkq/1zrd8aOzmht87RJo/djlcGYO6fnZan+ZbIrvtbW+7HIod0hw0jMeBxFomw9rgB/Ot7aYlsdqDDhv8aE24nfv5TLdkyViSESPIMz9s9qU1fGxhtzGo02sdG6PE1Gt1BxOJtNevDqwOQg5nxmLu+FBi12evWA/G5+bIL27JfMs/ZEuI+cK8KpI8XpcHPuV/86XOX3QZEz+aC+PHJ8bSa47Jh7MP0Vgb1qODnx+4X6/nQyK9gh7g/HkjNVmCpc0nAZpYm1pdmd/0RGtBCBw2g5OaoNXCsDgUi9hC9drIYhdYybVh4BQbyyK3YN1WnPwsFH2CgODr5Ou1C1p1p15ybWwbzatVi1UwEKwkUnVBRxL/J//PP1naeN1I8QjodFms6comtgjG9NsIkqwTpyThJGzDwrND4mEXXvJtJr5wI/UZdAG8qZ2LXl1///2FzyRDcyC4mg9j42dzoG0j2+QCpo3uJqKYB0G94A1GZ9ObC8lBou7VmddH5iO/2LQ263JDOno9KcA5tHgNxicCsmBjDQhi5iG9gpsEKrgkV9A0HwKbJOxtg8CpWC8CiuBBDx+aD/7TZo9Dlrk0b4Kr24VxuFUXZNBbH3SjMy8CJX+6ka4PNHMOzEvz0Ktd8iQd/mY//7GxeRCoS/b8IOiZL3MgkXZDI8cYzRUocdkD5pgs68hNie3WnOQDZ47RCsr0GId5k3QUb0DSL6CaP2uTbL6HszbYLjn6jE4AlqDtY4cQScNcmlu6HUQkYIcFybn1I4BXl+jxSWBskuDECPOQjeZYonC4dXg1Fodp649NdFo3/MZXZMKbb+vRoc5YzCGfkS8uWHPWAXkSWD6gl5/JcuBim/lxWOAze9h+l8isTwnZrU+fsdrbfGl/tzbJY4+1aN7JdSjgO3jQmuA7hzpjYU+JFL+5Y4u5N8cOOdaFdWWO+Yxeh4ISM31iCX689j7Z6BS3W4dPa9wh4B1/+vZlbVu/6zVdvLko8Jq+kfaj9RasibLYBWyL2GbyKklQtyGdiE2wYvFKnoKBG5GkCk+OPhuPPJtaYhPU4rWwLFrB2iIRGMhGL8DYAE5+ZAnGNpWNZjMKlDa2RSrQdLtBLzk7wdpENodgy/4OAW1+gZteY/V5qYVscwhijdEYBG0Bhp1ucIIkvTakDcheYxIU3AaM2eZAI3D5/IJ/3YbmIl/XJdJ+kIFe9tmcfG4D26wOGvTDCWR08YPgIomaAzcdfmYXOUpzYg5sYLahcUOwGb3iE5T4DR+/CKh8w//4JQnJ0kHIWPE3Tr61TsxbgYfP6HYrcWPRFlglGrdL80AP280rmYIuHomA37sZoBMIQXPs0MK3vXY27k72bgTsMUay2UOmH/aeN9IS5zrAmJd+nMTY3djYbNySkSAvqJsDgZRsOugTlPkfvT0hYKbfHiiRCpR8wl9ec0tEAqODo3VoL7g98bHkKmnwV/Nm3/CFhEeGPuvWeOH5whe4HDDZsLwxuNc9l1uYBCb4SlQONuadDWRZWx/0QR+0JDk3O+O1HqwxMhsn+8xh+9vcSU7pt38+/E4fvuwja+6DP/iDl7XkENVrUnvJDQwPe8iMny8kPTqtMb5zuCqRSrp8bX2UZNiG1nwZI784fEtWfCAG8B877VOJtDUGihv4za35oZs91gDf9pGGsYhzaNGww5eorFn7xHq3zvHyD53orHF2Wz/6+Mh6x2POJG+XAPHK3Jt3OozL4cdaIIdM68SaMUbtvtAohigX+bnmE+k8hfvsweZTLHJFIrUJLIKCtEm0ESUZfTaXwGLx2XwWibbF5DRm46jrI4N8yc4GsyHgJEkLsy8AWFiCPxrFRhDU3BIkFzcSSdcmE3AkOAtTkFOn0+J1i0Lr1GcjuHF5RQZK0o3JImUT2fRKUNqKDSWQG5OTr81HtgBEJ17yFYEAnf8s3U1oLvB9idQPMuQfYy8wd9vkMwnOPPAvXwuk7HJ4AAUO4yGneUDLtwINuyRNJ3J+clAxPmMRUPXxs82eLeZNwBEgJV7FnAtW5sUNxC2dfoHEmmGDuZLo0PK3gtcBSMJxuoaTiPmbnZIJXeyxLgQTvqXHK3PJUiAUaARF8yDwGDcZEoA1IXAJQMbr1W6BJt8H1/MikXr1Z+wlIutfcjTvoPWXf8i3F9Aap3mwJ8yL8ZCzJNGj//tnrbKPzyUNc2mdemUJ58CU/xwSHXjQC9LG40ZGtj5rUjDnZ75BK3mx3+1IAGcL/1kr1pF5krjsD75mA5usDXvPzdY6E+jZrhifsdHhy2L2jYRj3ZsHvqZbEmCb4K8tSdPFV3DmlH5+lBh83GK/uB3DW9vebOAx3+Tyr/GRp7CPXolUXNFvfYL8bU3av251bGGfjxv4EC4e655Oa92aMkYyHdToxiNZOVTQ6zDHJ5KegxR5ffZpjdKvDx28i0i3YrQSPH+zkb3a8ObaPJkHeh1izYcDhHFK7vxmDs2FteJtA5zx+JOG1nJlvZ631vmkuZL1azqRCvQlUhMlkDrtO2kKIE74ArrNYPFbMIqFVxE0FYtEHzlBOHRgJX43C6/paoOCAFkzIcNZWFMHnACVLrwWqEWt0MV2rwW1yRMEBAl9C//Ra0VyGws8u8hd+I5eyVnUjSN5aNHRqy+bCpy92l0v5tlWF+T7M2qNW0ARsM1B82Bjuh3S2biz2xjmOPgjGuNd9+HTD99tqfHgxcMW0IFJwqIbjU3tlkBGvOZx6sgufhPcBXH6BDfJjg/NKT4y8dK1yDx6FZp9ID3ok4uWDLZmJxlojufh6O2IRJqf831QIKkOdiMllzzJ2V6Q+EFrSnKyTxa7jnyU7fkg/6NRT561wl524om+NZOcxm4tGg98MvIB36nzw2/82i8tMqcvos9PdLXf6mMPvHmCozebyaZXG2Rz/eGiaX7oIo/NaOonGw39kht5ChweMFp1/AqcfrLctNtreOkhNz5t+HSrN6Y5bjgy+RavApc848yPzReb6mcL3mwnK344BQ1cbbaQBZe97KQnuWizZ/pkymjtBOdhvXXcmtaeuCuZNLd0XfOJdAYPE25TFUAED4F03kYthhZp9RbAxLdoTHp0QXQWi4LXYlK0LcLw6PRrR1Nbn8Wpj1x6kgXnluy061WS25STpwCoL74CWnanJ3noyGRTCz699WUXXkW/xd9rl/Vinm31GyXSo8Qt2LgluAk4yAjebh90tUnZyLbp03V9TYOXffgUdma39uxDqzhAOeV7U+D/n7pFenMxZeQDkF/IoVub/Q4xbh++SOazZfj0gtkJTydcNNrWJLnRwQlEaOBBY4lnGdvR25HzJNJ5qDQGeq1/t217wZsC/qCHLdmDtgLHPiUcyMaO+4IAACAASURBVCZ9eM2vujWLLl/AxY/H2JT8kQx9cMmfNPDo0tm+0M7udNIVfXsBDR70i41HAZ7N2U5f8vFr06l/ys4HZMcjqcFr8y9+cPJmU74A00Gv/uizk0x2h09HvHjgtBU6wezGa4yNMx9mi/VFl0IH/JIMj942hM9O/HQo+vIpfH3w6vrwkckm+Apc+tgPTyY+iVT8EEfWcWWN20puVxJ33SRSE9RiNKluD70eqa9FqN2CaJJr61NaEPDqZLeQ4fCteWrrS0606Y5m6kjW5LHYBD43Obc7r0XwtqDjgSNbW0kPqC892tXB+qrrb4wCxx//4e8dfxFg34ItkfbfX2xWMshkv01tDswH2+CVbEk3WxpHNNHBHweDo8AdbWOkk19AfdM3dEsmXmkpXsFNmdkA4kOfDfRqOwh4G2AuerORrmjTmbz8qZ392Us/fu34sgm9seTL/h9pAWc9FwUg/f2favzJNgcOkl7BmRPjoauS/gIePBumrdE2lmyMJl5t49KvxAcfLr/pizYbJr/+5OpPXrTJrl1/ekDy8+Oc17W8ydP+Ykt2o8c/7Zs87KydPdE2xtmf/vqibUzazSEc+nj0Kdpsmnh1tuChL/na+SE74JIVvb7weNWTh7Y+9caMLnvwJzOYzPpAduKbv7Xb+i6Btq7X6/2Wal+XibTJMmEm36RZmGATj0bRr6g3+cFotNe8ZCuTLzkTr27RJSOd6QCnjNr0FfhsGPXowOqNTzv9ydae/fGkI7rwjdGmk0h9ycWzb1HD2wB9a7fNT072ZFM60q09Czy+bAomB8y++NDwb7xTb/z0q/Oh/ujrn/JnXX++az6bg+Zz2jHHmc7Ggz8cHrLri087Gn40B+jOkkibB4nUIWjhP1rv9NFf4GvcYPav4aSZ9WxkZ/tJv3a2T7lwa3/jo08fedm3pktutiUXX7jkzDa6fAvSBzflo4dTsjF7sklfvOjxg/VPnfVFVxv/HC+Z8SWfvIo+duiDi568ZIbXzhfRw815RptMdtTOBu3kpWvqjzf52upKeuJf2xcdeVMmPFp8JVIxpERavNkXcw6J9DJ7gKN9RtrfI23i5iKBa/KXRX306rHJrw8dnNLiT159LcTaeFsQsy/98a8XEh3pjW/qTT8c3uQlJ179dGir186++qJPTrRg+pNRG5RILe4W9tb0FcD71i6+xh3MrvVmqj+YPdkQ3+yHqzSexhc+enI6hcNFnx/1ZW8y0o2ePO368AkeM2CsdWqnC1xs2OOTeMlPVzi2SYjaZ02kDj0Saa8e5/iSy6Y5tsa77l/TTLr8EU99yZ4Q7Rb9Fk3rY+qmo3b6Ju8ap53P6wuu5UQHn260yU/W5K9vwjnGZCUvHflAf7gJ07GWFR5fMuBmXR9cNOu+ZCZrDdkxccmb9m3RJBd9uuOdMHsWeeONlbafCBRD1t9K34o1tzTuqr+R7juZlEjnZ6RNanBOdotl9lnwk6YFgDY8OHknXn3Km33w5Au8SpsLPrrqYDqCcHMBa5ORzdrKtGHywkcfDxhfcNqCX5ves9xIO0lKpMufURuft0y7pp10ZE+617Rbtk0Z6nNs0a8hXXD5pXYHIH1Td3QTpx4fnXMuJz26yZcta3ztCbMxHnI7BEik87S+Dij2gYLGZ6S+SEKOOUxecNqX7frCr23SN+m059xNuWte7fUcTVmTvnry0jvbs45+3Q43daBJ9ro/uvqTN9to4INT3qSf48w/k6/+tQ2TZuqtPuknLnw2gLM/fHrBcGDjiSdc+DVt+LXe+NOz1a8vPDmKtvXpRmrtSqTgRX6u6kRakNjnYDdSidQp3MQsp/DxrbMWyNJ39JqlydTXBEdXH9hiUo9/Cx/PFn066FGinXLSnY4CKJrqLbzkxZOchXZj/OkFJw/6eNd47T4jbYHvW+QlUq92f++3f/Mfvg24EcCP7Tuag7U9dG7ZsYXL9sY2adT5cY4NTok+GD7bglv8eNbBYqEft9rkLfN4hI9P35bceMia5VjG0R/2PimR2hvmB423M/57zcK/MQ/0TT3q2bAF9ScrWmNay1nzRgufv5MFVuKrb+oKB6ZPf7z1w9U/cdFlQzRrHWsedNEmY/LUv8SaPa9Li0PZls/iTWfywXSma7Z7Xb+mi38tlwx9+T790RdX8NWX3smLPrx6Ni34EWfTM/ujn7YlDzSm+ddf9sX4i4K/ahNpSXRfEIcvkf7mr//yEkB8xdxX6QUTxekchK/MPv2V8Gu6Lf7kxjNh/CB88tc8a3x87I+3sTgowMUzbdrSHS76dKcj+eGjm3It8hLpXMxzPkqkvmwkkTYPyUt+9qTfeMKp+/ZgPOEnzN6Jw5f85OpXT9akgdNHV/STf9anHvXkBetvrsKDU7Y2femcspJxGvS6Nj9P38850W+uHCrNQXatx09X9gWn7bOeXdGBcGjWfbWDkzaZ+sJHt+5b66od/YT1rWWmp/7JM/vUG8tptOnIXjAfJ78+bX2zv75gPFtw2lJ9ytrigZuy4wsHxqePvNpB+OrxaServuCUEX16pqzoJ0SHpj8RaP1e9OeaT6R/8ef/bQniXi3+x99563ER2LcKGnj0Fe3JWz3+2mve+oOTbtbrnzDdYPjJU70+MNr6Jpx0W3W0fj93i4fc3/mttyx2oNH2812C83qRz2Beov3f/+tvl58UJDs7s3XLFrr0K9nlr8fEk5wtW6f8ST9p4emYMvE1NnX06JIx61OW+hzDSX2Tbur+g9/7rUXGHHc2TJ6JYw8Zf/4//uzU11/mqO8L0NE8p2/q2LK/sQejjzZ50xf1bcHok7MPrvWh26cjGXiiS3d9E9YXnH3q6U4e3KStHkQ3/Rk+OOWHC86+s9bjzZfaJ/Gux7NFn8wtSPYco/qk29K9pQNdfJMnXDr0eYNi3c6YclET6jWRSNeO1g7393//d7u//Z9/vZT/9bd/c1wPtw/+z795926WfXRb+MmnHg39lXBbcM0/Zeyjh48vmrPoihY8zT/k/81fv2v37nf91fKzf9PPLfD8rl2/hCqZpmtt5xaeHp//+cUUhyE64da+mDYnd8LGlS9A/WRV0IRzw/MN3vrCg9m5hrMvPWuadIQnP5z/fuIVmTGGmzLDxVubjL/7u/ce+zl/NxdBiVSfvfDX737n8Rpc65jyq6NZl/rAk8Y76aqfRr/WdRYbyZ586QrOvtPkrWlPo586zEf0jROM5jS4pTt5a94p/yw6puy1rHV7Szb+9sQc55r3LO3T7G3MfoLU0/ptPV9EeNUmUs4scATDdUuCVxfIK044Sm0w3IQmUZm4m1rf0hnuUmRne3YGp6zkB2ffWevx5k964LTnU/8a3xzs00eWPnL9oQF1OF828FNrfk8WTt8cY3ZN/tm/pS+e9K3p6fJLP/7qhD4lvZN3yp4ysqX+eMDoqoNee/tdYL9v7LDBV9mWjJNga715mL5Xrw3Sh7750D5J9uXso+tK6pu2N4/B2Xc5680vmY03eBY92Rfc4kleMF1btJeKSzaYjGyacPZHdxKMPrhFq2/2q1u71mxrubV+keBVnUg5knO3ykVy8tViS348yV40LWr1nvD7+k6TXX+QXL/v6QfK/diBb/569F/uh0wbVlLzgwx+57bf+bxUXVt28k1P45S4/Taw0g/Qb/HGF4y/djD8hLNP8Jp21DfhFu/sP2udnMNzPg/k+/Nx3bzU2XSl53PqvdK6z+vRqz6RGvBJDhc0OuWA2utAEn99wfDB8GC4YH21g5M2W6Otb43H26M+6eNJfnBNM9v75MULrn1U37Rt0qhHE0xn7cYAL4DHEx5dPPrU4dR909eP0fuxeT9g7b9ulATiSU9wjc/2+rcgHg/ZvkDlh779uLZfO/IqtAdv8tdQX099jXXqzH44dad7vyzkh+n9CLofdIBLxuSF066P/OSlOzj5qs++ZCQzmvBkK7XrTwYYLpotWVsy9tEnb8L0hZu8W/Xogls0+3B4Zl8ygrNvqx7daXDyrmln31b9NPp1/1Z7ytW/NZfh69u3Hrbkh9vSk7xotuA+vsXQC/zPNZFI5wRNX5uoOTHqTd6kq15fMHwwPLh+6tvCb+H20a9p1+0t3dEkcw3rD9ZfG4Q7yT/1T5rkbMG17Ggmvvq6T4L4q7/8H8tfkfCXQxRfyfe6da0/GeBazuw7qY6PbD+g7y+USKR+vN5nQYJIz5Z8uPlEw871Ey1IrnH6Czv+Ioy/eqEON+mqJ0t7lvATzv7q6/78OPHq0devfdIT/Zpu4mffxJ8k97S+Kaf6mif8WWC80dYOhg/CVwfP+pzGM/vX9S0d0Wz1beGiB9dPffvwWzxr2tneJ2/SrOvxnFfXWs6Vbl8ziZTj1s6fkzLrV9rJV1rfHOvaJyfZchptcqeMcGs4ac5TJ0cy8YcF3NIkNcWPqsPPAI92PtkwcWet+/F3f15K0vY3Hv25K98gTOdZ5aA7zQ79Eulf/sV/X/7YgL/iI5n6M1m+rFHyNlblvE/6g1v8+vY98Z1Es4934rf4L5dsem6KrMm7Zeccxy1dz9YrYceWL9K/1XeSTeelJ+tSdZ1kx5Xou6YS6dphc1LW9TVt7UuZ/HjPCqctZ+U5K92UPetn5d+im3LUPVu4Ld7TcMmJTuLwpRtJRULzZ8kkt8c+5hHLa8+SzJpvbVPyzgLpdOP1GllCu/e977Ukb39ezxeN9Dfus8jbZ9vkNY7+wPUyznvfc/k82I/el7zpPa/uqSM7gvqqnyY3uilvXUdz3ie5W/Cmyjor/+XQfVZd0V2qzjVf8i4VTnlbMvSvn9N41vS146t9FhjPlh1n4b+laK7pRMqpc2LUCyBr/KW0zzNpp8nfkoVn/SRnH77+s8C1jHX7JBnTj2u+dXvK0VebDAlFW93jc0lf9PGHjyVQrzwVfzzZf4eR2JIRxDvtSf5COP7ZwsfrL+n4rFJxQ6TTH1qmr2Q6RJ1YTc+E6YmRTH/3tPG5dUvkdPp8eJ1MG1/8IPlnebIjG4Lh1zLCnxeu5Wjvk5ENwTXdlqxwa9rZjuYkiD694Hn5yZ48N7W+z9Ypd22nvvUz6a9Efa2/9ll176NvbrbGGM9Fg9d8Is3hW5O77qt9c8K1HefVddriWsvfap9H5xb/GncWefFEq92GgeumCfoj25KoLxkpXvH69q6/Weq2upY1g0zy90G8Pel/51/9+e5p3/CkRU866XvYQx+8e/vbfnexDe15nmwM4k23LxT5lSGvjyXPvmxknH17F206Z/08NkSbDftgdPvgPj748zwnyVn3nUXupfAk96bwJmMfXMs+qb1PRvh9vPXvg/v41vh9/OHX9Npnfda8J/Gtac+j5yS5V6rvukmkHDon60o5+JbScznHmqw5lnDgpT7JwN8NDE4ifeHznrV71jOesnvC4x+ze/ELnrO0f/jl3718AajEmd5LsQFPOt10/XHr5z/3m3Yvev6zd49/3KMWfep+cYU+tJfyzDFmp9von/zx2xZddHiN/ZQnP3H5v6Rs8O1h+qKnd9bPa0c2rOF55Vwu+uxIXu1g+LNCfOd90nUpvOfVdVPpryZbb8pYG+dNkXFL8V5XiZSTr8bJyuYJT1owk079pjxrWfvaZ9WxxY9Xsuq/fvj/nH7dxM+f+ZzSL6H0ayoSTLfXdJ5njJNWnSy66euXhV77mle+j761znSfBOdY0dWmzyvsxtQfE3/3O/9ywfm1opJ88uMFz/NMvq36eWRdDtppQ/ImTv3wXJ8euJrn/rpMpBd1mRZQ1vaFn3BNM9uTTv2mPGtZ+9pn0bGPd22jJCKp+r+j//K1r15El2TXepK5xm+1o13r05Yo+3+jvvCTvjUtucnZ0hEummD4+CXTyitf8fLlB8G12VESjXcLTnn76lt8a9w+3psLP/WnI5zxV6/vAK8PD1zt837dJdKLvCyv9sV0Xt/uGy+8x+eIJdLzyt6iT1/yowlfWyI96Vnzb9EmM7hFE+41P/6K3Vvf8uaaSzI5bozEfRa9k+9qrV8v47xa5+fmsPss++Tm0Hu5ZB4S6eXy5Dnk7Fs04a/nQGLsbiYeifRf/YufWOr5JB+dw93HpPt4w6fj9T/72mOeKvXVPg1OmSfxGqsbqT8bFU/jnzpOkjHproX69TTWa2G+buoYWvfBmyrvluA/JNIr7PUWS3Cqh9sKopPmWq/nF3AmUn6B65n1iYs/3IT1TVg/XJ+DlkjhemZ94pK1hdvqm3TqxvWqH/3B5W9AasezpS/eA7yxB/LZxF50/110+6Yvb+568xe8ufXdHPIPifQEr17Oxd4iWcPUT/zElUBm/7VQb4xBY+oxZmUmUp8brmlmG+/aV8mbcPoOfQ+8z0U9Emk2pCO+6MFw++CkjT5ctkrevlDlD25HM+VFH5x912p9jjU/Geu+5zQ/7OM7Cb+Weblok3Me+fFci3DtB+2r8Tkk0hNm7XJP6nrRTNX1rXEFkvDRXe2w8QSNp0ddgpFIX/czP7mg+wKOhv61X8Lnl2Ttg8mon7wSqb9Hmpzglr6pMzn7cOGjSx4okf77f/crxzqjSXftZIS/FmFjNbZ81DjrOwu8FJ6zyN1Hc1590Qf3yb0e8PkgeDWO+ZBIL/CslTwssB4JRhFktspp/Wue89Kv+S9H2/jI6VE3dt/a7Ys/6WmzaU+/4K0vOafB6JNdIvVXWHomzVofmvqjPwlO/uwHJVJfNjJm85HMizA3+eZKwTn2uf7DTx+e5OtD39Xlgeb36rL6H609JNJ/9MWFq13vQcONtKQmqZR8+KX6TZm0Nm9Jwg8leN74b1+3JLOp83Lpy97GQMdPvupHlhtpfQf4jx6QTGdC/ceeQ+3ggYvjgUMivThzsVhScNdwS3nTz//c7pd/8d8sRb3yS7/wr4/x+rX3lfiD++jOgk/GFjwL/1lpJDM/CejvdXpmIisJgTflmfzk+yEEPndD7HaY3uDl0tc8l0i/66UvudFc81NzDZ7Vb6fRreftNPrL3b/WP9t0/eIbfnYZ65vf+PplfTtMefhpztdNmYcD78EDl9sDh0R6uT16E+UJ2O+94T2LFMH1Z3/6Nbuf+5f/fHnFCfrMUJk49WuhNC5f9lGM/R1/+vbj174lnwlvoruPX6NKnH7ZyE8S+llAt9PLfSOdts6k4CcBG7tX2c3lnOtwlwtOPZdL5lnl0D0LvuxpvfvLOPASqnkwP9Nn05eH+sEDt7QHDon0hBm4nBt3Bv+13NqgRNorRq81O4mv+a/1Nj8oPrecQXSOez11J/WtaWvj8fCzH8T3+7700Z28bIk23n0wvq3++sj0gI1v6ozueoV9Xv2WX33jsgbmoWb6ZMvHB9zBA1faA4dEeoLHbdjL9czNv69Ol76CiFO6INsz7dknY+Lj2wcn7ZS9j/48+Cn7PHxo4xU8O0iEP0lWfBNO+vATV52f/d7us5/51EVngbv+s8J0gCc9JVJ0M4FWP4n3LH3TjtNsSd7kCTfh7N+qT9rz1Kes+Fr3v/4rv7jsBzQ9W/T1HeDBA7eEBw6J9Ap5fW7+raCQGfpKpF7tnRZY98lN3i0J5zgvxQ78p41/yr0pvuDzv/2ff717zjOftug8j95pg3p2rPGzvY9mH37yXg/19sCv/vIvHO+Hxp2PwMNz8MBF8MAhkV7BWTjLxkfTaVwi9ZyF7woO44qrMn6J7eZ8BG5/ZeZ5z3nGcfK+uf1O/s2t4+b02c0puz2wlUhvTr0H2QcPXIoHDon0Urx2M/N0GpdIr9Zgm93Bm+qyyyVnnx187jPS5z7r6Vc0uRnXeZ78cF6+8+i4CLTtgV978//7PjfSi2DfwYaDB6YHDol0euOC1PuykW8tuonN21iB9IKYumkGG7M7mN0TbjLvQV4q3x5x74N2A/J3UH3ZiK6L8jTu/LiG9V8Ue2+KHfkdbA/4jLTb6U2RfeA9eODm9MAhkd6c3r1E2QWREmkBhrhZv0TxV4SNnQV99a1yHkMm/3n4zkp70RNp4+fT6hOedZwXmc54etoDfdko/AEePHARPXBIpBdsVgSTgohv7RYsL5iZp5qT3TM4nsp0AsHllrdWJZF6tetbu5fL5rWOS23Psa/rlyrzIvJNv/dq95BIL+JMHWxae+C6TaTrgDQ38dpJV7LNjr//+79bVJ6WSOcYrpSNV8JPjWuOKdzl0p+8dJRIvdp16/PcFF3JPw2m/zS4T85pfI1j8p+F5zSa5J1GN/WfRLuWt06k+ree+Pb1b/HcUrhsvaX0H/TefB64LhNpC3ofPMnd+3jC7+OtH9z3RLOVSNd80U64Ty78pNuqXyrvSXyX2jftmzImfl2fdLMe3cSpr/HrRKp/vkad/Pr2Pck9D5yyTpKNLrmTZ6se3aXCtcyzyDkLz5pGe8qufyuRRrfmCQ+e55l81c/Dfx7a5AfPw3ugvfgeuC4T6UWeFhutIOJG6oE7PDevB/wAQ79slL+DN6/m80m/iDadbwTb1MY1x9Ye6NXu7NuWcMAePHDLeeCQSG85329qFjDcjjwl0k3Cqwy5DpQXzXy3z3UivWg2sudaTSjr9TETafvhIs7HwaaDB3jgmkmkbcR1oAnfdK/b8OGC0Z4Eoz0JTv5JN/HrOroCh2/teuJd09Y+qV/fvie+CbdoZ/+s76Nd4yeP+tazD79Fex7cWXST50bqBxn8slG2nJX3PPacRDv17aPLtpP6eyW9j+Zy4U+zJT1zXNXrA+HYrPT0hbt5I93ijf4kuI8v/IRrOfpOerZ4J26rfpK8Q9/V6YFrIpHuW6xrfJu1QFP/xM++9ZRGD8bTb7LWnnCLvv7ZN+v6O43331/OwjNp2D1t1Dd1VI9nwvq2ZEy66tEH4dXno71FH81Wf/qn3C0Z9a9htPtg9Nng8OInAr/52d94HNDXvGue2pcLTn1kbj0n4fWRYU0q2TXlhLsUuJaztnefzEk369GvbdbuewL9IMOajy3xB6OpDYYL1lcbzF/q+qfscPGt4ZRz1no61v5M9sQf6leHB676RNriW8PcH35uiPqC0QTDnwSjPQlO/jXd7Jt1dDORFhAnzbo+Za/7TmpPvupb9PVtwUlf/8Spwxdk1jT1gZfzSc8a7tMhkfbLRltr5XLbt2XHtHWr/yRcvFu2n8S3ry95+/ovBZ/MYDJqs92j3R6YN9Lo98HkrPtPw9cPrp8t3Jqm9pQz6/Xvg5N21vfRH/AXzwNXbSKdC27Wubh2dRtUoCwp1R/UP0v4pqs2OOnOUj8rb3Rk+gPTHp+ResUF15MNk37aEX4N0WzhJu+koQ/9un+rPenU189a76Qhz9xM3Vv058Ft2RhuS44+fi6RWifTJuOJH9yScR7cSbLW8te+3NemP7vV03EeuyZf/Gt7kld/7S3I1omP5ySIXv98tave3m38U248yV234df0sx1fcN032yfV459wi376ZdbXtI31AC++B66pRLrl7hZngXEu8tPq8YLR2tCVcOeF8U+YLrJKpF7tOpnD6feo45s6p5yJnzInz2njmXxTXvWpb8pV5+dsnfORzKA+9WTeHHDLzi2dcPz81+9+5+75z/2m4/nFr8+TrLPauaVn8p4kD6/+5n76casefWu8djrAqVv9JPtO4qtvLS+Z5G6V6OOfsL5k6CuR/sav/dJShyPXs8/2ZE55N3e9saYnG8Bw2Rtt7eYS3eyrXv8BXnwPXJWJtIU24T5XW6QWtS+S+HuTf/PX7zpTQTtLfIJtJdxZYfrjD+LX5zM69Xf+1Z8vCcmP1qPJDmPQDzd1JmfikxfvpN/CbfWjW+Nrb+lk/3tveM9xoNs3J+bNA/os7LS5yd5gNpwFZme0c0z5i93wf/4//mz34hc8Z5mH6PQ1L2tZyVzD7EzGul97ypr01f3uL1/uO5hM31rj6G54z/9ebF3bO3XRnY599m3RT5v1zzFNebOe78KtZeyTA/+uv/qL5Q3Br/zSz+/e/c6/XPSRk8xkTTv21dMPRjNx1es7K4xvyl3zRgPPdnPUgac5nAn3LDEtvgO8OB64KhMp95224ArWFu1f/Pl/273tP/6H3R/+/m/v/ugPfmf3B7/3W8dtuLMWMmaZfCfho6NbfdKq11/f7//uv19s9EWLSYt/tuPbwulDv9YZT7rW+md/9S2adE5f0vWf3/4HSwLolL211Js7B5w/e8ef3MgnU176zwuzbcJk5I/aIJ18/nu//Zu7f/tzP717+9t+d/Fb48aTLLTZWH+y1u3wE27Jmf10/fEf/t6i7z/+zluXtxP7fJkfrfH3vveG43VExtrO9E5d++rRBtFVn2OH00dfJZm1g+GTEwy/hvrx/rtfe9Oie6t/4tA3ZvjaoDZZk776tA/tLPHt460/WcEtGXDm0zrzEYI57Wke17D+A7z4HrhmE2nBR7D+r//lj3e/81tv2XlNZGNKUL7E8JZffePSBs9S8MyCpzaZyU327FenG4wuCJ+c6NiqDq5lT1o0SripO32zb189OWsY/Rqfzmnbb/76Ly/BzKtp/p/BYm4FAaNXX3/yx29bxkjPlMX27E93tkxYX3D2zXr9/AmvTT6d1aNJ97RHHz5/H1PRpz1tTF9y1nLrB5MNThnqbPwPv/lriy+94lzfYPIlP/LxkkhveM+SBMwBvdmYLemuHdzChwuird64a+vLXyB8ssPX3pKz1ReOLPpqb+mefXPMaN1m42cL2uyedk48+gr8HEO86aw//omftGRkhzjkdmru1s8hka49cvW0r9lE2kIVsAVrAebNb3rDsrl+6Rf+9U755V/8N7s3v/H1C6yuva+g2SrJSOakCbfIfNMbbqRP38QnB/8vvuFnFxvZrI22oh1tcN23yD0a2+xb2zb7kpW+aNGscdG+6ed/bqegETzcCryS7CCztRVKAGjcYAW87F3bk55sWcP41nTJyfZjuiN/ruWg+4XX/6slAelD37hqg1OuenJnn3o8W/34pt8m6PoKfgAAIABJREFUjfmWEKxXN2SvvvlJWT8FXmvcK0O+x7teM2vb6MvGCacdEz/52T774gnO/nCTXn/jh0dT/5p36R/zNfvjWcNowDf+29ctfl7krPaC/klbHW19i/1jz0bTuILRTz377HrrW968vNbfmk/z25wWv9ZzfmhfTA9c84nUgv3T//yHyynfwhe0BbE2WZsguN4A63Z0QbLQ1J51uBkwp6xJ34bUn23ZN+WtZSXjND3Jij47tGcfO6as9K0hmuzCnwyJ1GswQf2kQKCv5GBuBP58MPWrV6YN4cDGEqxvix4NPaB+dm/RN55kTD3V409v7SmzvrUONA5K6UEXzeKHN71hJ+BKjH3xTLIsyBZKCsYgn3slvRxKxuGrMdClbNmU7nVfeDA5oHY2x1M7uslbvT6QLVOO+uyPJx/VPglmS2NN3uQJl9xs0Y4fPfy6DacvPBgt/qmnvolT/63f+NXlRtrcrfdJc7zGN+cHeDE9cNUmUu5s0W25toVowbr1eL3S5mjzBNtUbQr4dTmpLzndIrfk4S+IqycvfG0yKuRGWz9cm3T2q88SH1xBm13Vk7Fla3LSuUWz7kMjiPssqBvp1rzMeTM33hZk67SJvEr21A6Gj782iGa2q9NRiQ9EX1vd7XTi6iMner6c+LXOtR79szQXyQBbI9Zrn5Hy2VbghbPOu5Hy/ZKIj27TjTm4Hk/4YHZoN5bsjSabo2nO8KpPerj4kh1Mfu3kTTx58YPRguHDrfv30aCbNmY/XDzqc5zpmnzpnTwTF37apX64ke6LClc3/qpOpCe5vkQqyEikPr+Ym6UNZcMo2m3cNkxQ377ShiFD8E1u8ubmKsjBJZtO+InTh3/yzg0/bUGT3fvwBYV0asc3ddSf7qkTnZsjmJ54069f8PfFl4L81hx1AELzn/7o999HXnawU8me8BPWN+2CQ5N9tcNNf0+a5gf9z/+bn1lkwK11rHVp56sgnuTB5aMpiz3GFw/Ih2jc7r3a7Ua6lUjzY4kUfTrz0dTXWE+C6Cdv9WysDaKFr7C9/ukTdNkV3LIBXWXxxXjtmw5w8kaHL/yWbZPvRjq8DTla19Hgt5fNjfocy8RNPJn4k6Evm8Jre2XvW8nN59wfzWdw9h3qF9sD11QitQB7qluwvdpt4VvYFrVN0YJv0RcI2oz6t0r0YMFPnew23+SLHi793Xq04dHEq5688AUh3yzN9vjQzHr88aYXVNIzg8ikjSY56PosMxwa9caDps9ITwoG9Zkbh5zGH2Qb3+SfaTN9tYNbOH3kNL5owezXT+c6OMLDoeszx/jRm4fkgAvu6PV0toBrunj6eKE2WJ0svA5+DiX9VF7rOWid50dfNvLfZdAbL73JyZetl/rSOSG9Ch6lNoiu+Whck1c9nWu++PVHF2164KNb1+MBK8mafWRpG6s9kh3RpDM9Qf3q+hVyyHCYAvk0ffrSg68SzgEoHJhMdTq2bqTN4xYsnh3gxfbANZNILcJ5ytP2OK2/40/f/g9fNhoBxiZ5/c++dvn1oG4fbRJwbqy5MarPTSiwCLg2kY1XX3K0k62O5idf9SO7n/7JH19o9c2Nqh6POno0dP/UT/zY7kd/6PuONyt8OqeM8PFqs89GFsgLNDMo0qk0RoFTm1zFNw+zA002xscHXi8K6s1H8xA0J+r1O+SUoMlkb3NjfrI/HWhKBo03e7MzPCgI4o0P1Ob/l3/vd+ze8Lp/seigp2KMaLTZlh/Ckdm3f5PHJiVetPRrk6Odnfi3/AgX3qtd/1WiG+lWGMmPJVL0JX666TU+/x85X+Y7tuSn7AqyNTuiyX7+gGt84fE2Tjh1JTvIgw+i156+1Wafvolf25XcZOCrbu284ge+Z/cTr/zhRRfaqXNd108XSI49Uom3RKoffzK0J47t/KM/m/Nfsv79v/uVG31G2n4Qu+YeCb817wfcxfPANZtIS6ozkbao/fSeZPRdL33J7ju//cW7H/vhly3BpsU+N8oMGuvNYYPZhF/zhMfuHvygz999wed/zu47vu1Fx5sNPX6bK16blPwv/ZIv3D3zG7/hGB+tjZmdcDYnPWxTvuTBX7C7293vtuidstGgjV+9cZAjaX/Fw79s94AH3G/3iIc/5Hi8T/zqr1x8kU6wwEEGnWR+20uev3vy1371YttCM77dHK+xSaS++ML/W8GhAFESmF82Yq+g/8Mv/+5lbr73O79198pXvHyxnZ8bT/ryKchGUF/96F/6rS9cDg3qxqMvP77/+//TZe71wU8ZZAnKT3/K1+7+1b/4iaWPX6ydr/6qRy9zbc7/+at/dJFn3p/7rKcfyyBz6lQn3zw86YmPW2yyLuDSn910S9QSo9fk+558aI07vKAv0Umgr/rRH1wOC9b4933Xty3JxQFq+qsxB6cN6kpj+dmffs3uCY9/zO5bXvTNi4zWG3lKvPEls/WvjQdtcwFnPvDAZb96eDTJXg4KR3vC+nj1j/3Q4kN8eMzHnT/iI3b3vOc9jseZLrB9stTf+PplHzVP5vnhX/6lu8/7vM/ePeqRD9sZLxu+6elfv+wR9cYaP96SPh9/41O/7h/G0huco30Zny8b+ZGGmTTV9+2VfXN/wF8sD1wziZRb5+JcJ1KByWK2GX7kB793CbCCbOXHf+QHllN7QQOMXt1GLjAUKGxegfXjPv7jlwT10C/74t1dPvETl1tjG4w+ARlvsrW//GFfsiRS/TO4zc2qnhxQ+2Xf/e1LUiMvmeRlnw3Obpt72i/4f+EXfO5O4rTZ2S1QfPidPnz5iydkpJsucrRBbQHmoz/mY5axsJe+dMTrdWSvdvu/j3NOWvpwlf/yJ390nLh/5qdetfuh7/+uJYlKTN/+LS9YDjrmy88lTn/Qz67mpHpzA88udkvO2conksz3f89Llz+ZRi5etJMGP76P/4RPWHyuH92Lnv/s3X3uc+/d4x/3qN1TnvzE3Wtf88pFnsPJ/e/3mYscdMnMT/jV6b3zne+8M1ZtY1Loq85Gn6UtifSG9+S294H5ts9I0UsUdEsoEk3rmy+tHW808iO66mC+o1+9AxW/oP2Bl33n7k53utPOOtdms4Je27oA85W6Qlb96ZvrlAw8yaIvnejTA6etmMOveuwjd9/64ucteuHsR3gH1A60bJvy1OlOPtjcfN2THr8cVB0WnvG0Jy/zb4/c/R53373gm595rJuu7J324Lvb3e52TNdcGHt0bqRbibT98D6TfEBcFR64LhKpW0/f2nXq/J7v+JYlWD/vOc/YKTaj06Rk2kbz6k9QF8RtRpv0OMCMU7WEZPPYaDbd7W53u+VGZbMKsl4xvebHX7EEEq/X0NDj1GvDs4cuwUYgUvDSJ+g5cZNjMwq+aAX4NqYbzr987asXPaDNawx00gOi/+zPvv8ynk70+L0Cc3qXENzKS1b0uAniZRedbtsODGSyWSARtPhHf3ZLpG6kgvu+U3ZBA1wS6VFgI8vtye33Wc94yu6Fz3vWMjfeHLCloMgGtOwUZPlGKRCjUzdGCY6P1KOVZMwLPJwxmke+Jlu/8fDPp37apy1rhH+M97GPecRy8CCPr0G2PeRLv2h373vf69iP7OFPfG6GeM2DW6tEKqmxIZvIoN+YyHW7Py2RFmHmjdTaoUvS40trm05FUrWmrcH8k33s5bf8yCdkgeHcpB/4wAcsidT8o7cWjIPtoDFa58YMB8IZF718y8f4ybVmtfFmg/WkwJkjewFkKz/xuT3xsIc+eFkndLADHh8dfG8fwNFLD162wJlffPYYuXQ7CKk7ENIJZ53d9dPvuuwRdvItfvbYI3D8QK9b7Kff7dMXHjrxswMde9kjkfqpwA765rADUfN5gFefB66pRDrd30IVZPwXC4nUwrZ5OqVLDve69z2XmwmcwGODCR6CgM0uiJdcbZgCjEAk0Ngon/jJn7QEmEd+xUN3n/M5n7VsKreBz/3cByzB1S21QOmVroDrJvjUr/+anVPwp931roscP5j+9V/3hCXICYRuPl7FSio2r6D4CXe5yxK02Qbn9SLc/e57n90Xf9HnLZuarvve9z67e9zj7rvb3u62u5e88LnLbdR4JSfBQGBzK/6gD/qg3ad86qcuidLrbvgv+sIHLvyf9CmfvLzS8kqXvR/8wR+8u//977sEZXSSlFdogofXX3zSZ6T8f9ZEyqcSGV8X+PmIHW5Sbhf8gc6Y0ZnL5qhkBJojUOEjcyKIzj63csHR+IyDXD7ib35022TPwx7yoN2tbnWr5UZiLgVoNxU3FIcPwVvS82qff/haMPbqk25J9zM/8zOWW63bk/nlqw/4Zx+wrAH9AvvTvuFJC59X9tYPuev//jLX9rpujfvZOYnX+AVxPmOHeeFLY2ndl7T4UCKxJyS/fAevrvANyO+f8Rn3Xg6M5p0v2GmOrAGHg9vf/vbLq2RvP+51r3su6/LWt771cou39ozvsz7rfruP+diPXZKNA63x8qci4UhcfKj9gbf6wCU5sU3S5MsPu+MdF3l8/hEf+ZHLQce8+YPsfPmYRz98ofExRomU3faCueUHeGsabtkjt/2HPWI/POiLP385KNkj1gDcrW9z6+VNk0OERGs92Wv2mL0tblgPH/lRH7UzXmP01od/Hv2oL1908BGceV0n0vV8HtpXnweu+UTqFWP//UVA8PmbIKN87dd81e4rH/MVyw3ILUigkUgFXcnIKROdgK3YgAUWNIKozSaReeX1UR/90UsQE0TdAG08P/X2qEc8bPkxdAHIppeAO00LCG56goU/Ki2RqgsmbqxOx26RJQI0Tr5oBDeva21q/ZIc2W4fkoUkL1AJCpKP4PYhH/Ihiw7jMFava92mvfqmx7gFBjdLnw9K9E7nEpKbtzHT4aBAHp8I3HwgAEukgrpT9r5EapuUaL0tMC9k0Mvf5oF/JBh1OF8MymZvD4zN7cq8CGx05yPyFLbxPdnazZ3bnle0DhBuCuZLwJPEfYbFD3wLL+EK7r5oRb4EIlDe5ja3WXxiHuAlX0nFfPEPn0u6v/3WX18OAV4Rk+nVbvONju18Z3z8LLk7NNAnMfat3ZNCi0Tqh/99a9cY3ZZKmg4i1p3xhnNgYov5t8bpBs09u/kyf+ZTBw7JzQ3MocCbHHLu+OF3XPbUs5/51OXQJzGXXNy6JSqy7QWHNvvP7d3h0Of9DijWngQn6fOjtSsJST7slyDNtbVlT9izxumGzJ++QMdec8yHkp/1qm081q2xuw2aI2tYwrR3jUuC5Qt+d+hweHLIhTO/Erj9Y10o1pw2e6xRsswluyVt6wudNxp0a5uT1oCfCDRnh+fa8cB1k0gtZovdZhGwbSyfafgMzWaFU2y8AqHNK8EKQk73NpXNadPayDakgC7Y9prY5rbxnU4/9PYfugRNr3sFVXSCkCDmcybBhA02mIAqAUpc9Hrl6oQumKdTXcASiGxyiUIipZsdghKbyBWQBAmJWyIxJvTGLwGCghU73ZTYpLBdYBHsnf4FB7okNvarG7+E7obqNo72Dne4wyLPLxv5gsxZE6m3BYI1WyTnkqkxOlSYG0GLvfzAB8Yq6LtFOgRIBGQo5qViPAKqIGZe8yM8+z/24z5u8ZHxCMgOFcbigMWP/ObVroTAd8m1liQHhx3zrU/w5v/sYKckbh4VydIY6XGTkpDZQ45bjEOYdeBW6+AgEDvM9OfEtl7/hVsnUocDPnMwIMvc8ZW1DC+ZsZPd5tvath/4UiJkFx/xi2IsDi/GK8Fbgw5t5sRNnH/MlbVmXBKpPWMu+dMNWCLFTy8dcOisG2Mnhy+tW7dK88sf/hqPfScBoucfhx5rwNq0Ptia39nr9mt/sdtY8ILaDp3GAGd/2XeSPXlkWN/Gao9ImHwpuXqTg1/BI2FaL+y2VtlgL5OFhs187uDqBs4PDl/ku5EeEum1k0SN5JpPpBasYN1NwSlacBE8vFrzCsiCF3QEGZugTVcwsonQF4xtGjQlXAnGadoG9JpWwHRDteFtRjqdfr0Kcjsgx2lcwhO0BQz9ku1MpAIUewoUNqFXWGy2UQVCtyM4AUQgE+QlZMFZkHKyTgZ72e3wQLYgKhiwQxAhQ3ByAhfo3HzZB68uaZKVHQKj25qgJziT35eNTrqNWnjdSPtlI7bwd3PDP2zhe8Gy4M8XbPA6UmIQaLutsnM54Bx9exkdu82HPmPUDwr0kqTDRjKNWXA1LsFecPU6snWRj/gdD98KyNoOSG7/6cHjxss2r/TcNM275COw0msuJFJB1vqzVviSf/ly3khLmjP8wCnWeK928RmvJMY/1q1Ab41oS5heTxoLu43R+udjUJLQ15pTZ4/kKRF4fSuZqXs16zAF53DgBmZcxud1qCTT4XRJpPe/7+IffuAnScft0i2X360B6+22t73tcoizniUyB0W3PnSS7OO+8pHLGrA+2MCP7M1midQe0abL2yFjdVs1Xw4pPtJhn1fS9hx70KOzRtyQ7Wf70npgA7w1ZT4dJKwXezxdbqcSMH8pfGoM/ILW/EribqTW/+G5djxwzSdSC7YvG9kITswWuGJTWeiChCDjttBmtLFsUgHOSR20KclAsyTSN71hwUmeApUgJHiS5WQtUOMVzAQ3n8sIml7nCj5O8RKBm5G6pIaPHjcpp2fBTZAR0CQ/J22JziaHEzQkThvXTZJ9gpEE4jUY3YKDsRkDfYKAgIfHaZs8fW5g7BBktL3Kc8rmC58BuaEap4OBoKbf6182ShDsWb4g894bluC+FfzbOiXS5b+/HL0KdSOllw7z4gtZfCkY08kOOhSBSTLkXzd4CUT/Mi9HiZQf+Ys84yYfDXqHCXMAX2LmK4lb0Ddf8G6ZPqeW4AV6etlEt7cBZFsP5sDhCV6Sl0jNtQBsnUk07JEoJVVrQJLlc4chdrbOBO8+I/Vzi56twAtXIvXfXxxi+MEhy1jNi6DvAGct8a1xsIGf+IJNxmPs9Etc9YHWE39LFvYMe829tWBtWPsSkfFbkw4GXsla6w5oEje/8alxNkd85gbqM2NvB8yxNen2TBcc33qbwKf4tSUqc2dNO3jCs98eIdO46XdjVDeHHXCMx5rytsHhAj+7+UWfPcIO48RDtz3iew3WIzrrwr6yR8wxe/Szx1i9fSBT0hRrHMTsHWMQT8yrXzY6aW+0Rw7w6vHAdZFI/SCDBSwoCDI2jIBiw1j8ik0nCNiMAocNL+AIGk7wNobNIlAVYGxIOMHKqROvYESWk766AGnjkwMnUUpyghweQRMdGgldkLd54d1yBBb24aVHm0wJjI3JodsGduoW2CRHX0SSzI3TZnbKxksPOmNhq1M1m4xXINVGK9DxlfE6JAiObtQCF936JHxBiXz+8LlR/490Bot1XVtZf2vXvBivgKauOEC4IZoXc8geAd28CKACcPOiT0EL8gmfsVHygjcOflDMh2DLj27Bxi5gmgM+pdsNyDg7hOHjH4E4PewxJ5KApGT+JBqvfEFJhR72Gx+bzKf1I/Euc/2QBy3rQLD2BmW53Y/X5OuwMhMpny+J9OibxN4UtMZBc0avAwn5+Yh+a5sN/MnufIxG3Q1OIrA2jMEe4kO+9ZbCQcOhwscEdHlDIxFJct22JUGHFOuGX0EJVsLkI6/B7Qd+kKTwOvD54hLfmqd8Zk743ZowN+bD+KwDt1RzjdYbA3ropdN41L21kVAdQumReB1q7Bu22IvorClr2hoz/+ZWjJBg1SVQ695HI/YT3zmIsqcDrHVsbGjNtxvpIZGuV/LV375mE2mB22svf4/UFxqWjfHG1x+/FhQwFYtdEil42qQ24Nz0BReQnGDBRhu9tn4BRxEQJXF4cm1MGzl5aPDZYHAVG18Aw2+T1kZHvr506VtkH315xc1UsPHbq4KFDUwGH+CnTwDNXrLCk6mensaVT6bt/KWtLL590xuWP57cLxs1ByXNtkttsBsp+QKroC7gC0QlVIHMzanxgo0BHxsX/UeHHDg0oHEbizngS/7WNmb9+de8oDEWviGPDjT68MCThwe//nyv3nw3X3C+CMMWvGShV7KhduuCbDi2/O5/+I3lDwDw20k3Un1uriVS/hDs3YBKovzp4CMpsZNN+ZFdbFXgjJ0MdX2gNrvQBB3IHNby5R0+7MOWZOSjCvTG4G2Ljz3woYMnP1/AG3P+lYzZ7e92OlRKivTNdZZdePMb2ejIId8cZDN6fY2DD7wl8EUwRfI0FnxsbjyN09zBkZ1MNit42JD8bJhrAG9ryx5897v+6kY30vZD++MArz4PXDeJ1EK2kSx8QdkN0SlUwnHKLInanG3UNrvA00axkSpktTlBJX40+AvK6m18kDw06uDkR6uNN3nRsUW/zYtmvYnRuYH6Yobbgld6Turw+KZdtcOlE0TfmNGlHxQk6kejaAs0f/j7v70E9YJDcCYCOA9YIqWTHnMjmZobgd/cSLDZkq/QKosPBLORRMNnV7Lh4UC+5Ut2r/vhpk+iS65+/Nr0TpsmL745h+lPH6jgqY99ivW6/AGAM7za3Uqk9LqxWedeuUpKbpStc/qyO5g9tdHA1WZn9rLRAcdHGV5VS55udG62PlO09qxBSUriYs/aV42ZTP1kuqG2dsmwDtDpB/M9m7IPHxm1+V17Cxe/W2d2+/zVHiEnO9IFZ01q02kM9ZGfPPVpR3TtT3T4+63d9kD7oH0y4dWXTq5fi6+rRNpmAC36Ap26hd5GsAnaGPXFOzdngQGv/uRqVwoANhFZaPTN4KxNbjrRKtEmCyQP1JcttclPLqjMwIkOTXbgj1edztlWhzdO9XUfOY0PnUTq1a7/siEgCPAFhtMSaeMtkE3Z6c4v2d1Y9MefX6LJZvhZ4PMD/JQBHx859ccPFx5tutmejWinDclLlr6CbbRgNh0n0qOfCOTH9ZNvvXWZN9K13unTxoZm2gqf7vizC93kizY411l+te7gJaH0k5tsdNGC8OgUPEry6YfPd/Bw2pVkkDPp1NHXr01WNmcnHBr92aiuxCspmjPy0pMtteOpjTd6OInUl43mfDaPW3A954f2xfTAdZFI+4zUQi54tNDXOP0lyLkpTqJb9+GDU6qTG92UO+1RX9PXTlbtyRcOFBD0FcTwFQhmHY22kizj1ianoi9/1DfhDD4lUv9lYyZRAWKdSAsay410/HUNerOt+rSvPjZkR3Thop/9s6/6hGuefJZPok3XpM8mfejqA+HiSUaw/trRakukfXFL6OCv9ZMPJdI+I/W2oPkKZld6QLrr156613TTzlnHz08lPonG+gMlKJ+lTnp1Za2vNbTwHv03Lby16cm+4JRFHhnhtnTMMaElsz0i0bE52ZNWfcpVjy67p75Jmxx01ff9aH1zuYbrOT+0L6YHrqlEOoNNgVuQkUh9NmGR20Atahuien36lbkh1vU1TSfVZCQzumPoRHt0qgWjv1H9KGgc9x19BkMGuYusZKxeacYDtnnRL/gjnkXGrCd/yMz+5B3rPHqdfGzHkf50+ByrGym/9xQc1m1zNBMpfWTPedGedqhHFz5c7cXeI9vqm7g5nmMe4z8qcGyYdOrwy9gHbXO3qefIp/r6zC47kkVPvGB6rFeJtL/+Mtf29KP6TKQ+j1vGMexlcyX96Zm6Zz06uK05qN86m2vNeCSmbmr5Z+qDmzLVm/Po4cid85CvkpUN4HHfmBu2L/xH80DmLPhqsxdt7Rv5YsWfTxbZR+ss3sWmMe/Rgvr8QMv6v7+0P7Zgc32AF9sD10Ui9c3QEqkFbdG38Ns4wfpmv3oBo80dDmyzFFCiSSaYPDCe6ut+mzoZ8U2a6vGD0deXDO3KpJv1eOCqr+UlA16pPeV0I/WasYPMvuUv+KPx/0glGXIq6a49dYVbw+zawq9xs52udID61/hwazz6iZuypyxrZNKpN0eTp7XUq90S6T4/wpdIJd6SypQ5641z4k6rT7vXtPpmf+0SU/tt+qI6WH98jZ+ecOpop7/0wVW0s42MKTf85I9v6knflDX1qDeu+MipDmqnW7uSTDdSXzaa+2MrgYY7ad4PfRfHA9dNIvXXNJaT+urvU7ZxtzZffW0Um2Fd9BW82mRtmrmhJh+eNuCsh5sbXn80W/LqJx//LPXFN23IxmiC8WtnzxZtfdPWvmzkxwEECsFg64Hvr8O4kbrJJm9tR/aA2T9tUw9/FrhFn859cOpOR7T1aauHR6cOrtdFPMnSjtdaMl+92l0n0i2flkj7f6RTJ1mVqSc7J8zmiau+5p22k1//FkzGhOimXfrInPyTvjFlY7TpnrRTLnnJbh6mjvrDJWfdXsuYdPVNvfWDZGX3kkjf+ZdnSqRbe+eAu5geuOYT6f/5P//f8vrQAnYr9WG/4jdVvWZR6vN1dglXW0GjoIevJCM8uUq8QbzkTPp44CUQfNGld8qKH05wxR8uPbWzV3vWtSvTlnBg+Pi0syudk372TV7B3O++npZI9ZsbN9L0Jz954efYsyX90WzNTXL29cWb3i04/UFOMqPVH169frA2+9GjA8PHZw3C6fPfMdQV/31p/Vu7+xIpn/vvMtYIOfSnq3We3Pqnres6mkkXb3Lrg8/++rQbB1zjTuYWnPr1k5uO6POXtvrUPWmnPehmaRzo99W3+tLJv9nReNNNHlzzPeXA4/XfetofpQRzulXqP8CL74FrNpEWcNx8/vuf/Zflszu/A/uf/uj3l/+i4b9paCuCv+LzPa/HQP0VffCTDk3tt7/tdxce/10Bz5Qx6aqjQ5PM9IBo6leHy7bo4JMFZwzaYDLYlF37+JMfTzLW8vCnew3xKMbCbv71W7vz1dV6GzQ3blL/7b/+6bHd2dH4k5mftbOZjdkJX2ms2ZVt+pMzx5O89biyhY61HyeP/nTiUc/OaV92gORFWxttJRna1u988t0aJ+Hi47tsJ1shp/Wgnm70WwUPmikn22ZfNMnMx3RZByAcm9Z82sqWfriltq8GAAAI7klEQVTZTw8d8LMOR0f60wGHjm6HEaU1Fe2UFQ5UyFnXk+ewQlby4JV0J6sxJEdb0faWof2xlUDDzTk+1C+2B67pRGpBCtYCu2IBCzg+w/Mtxwn1VeAV3z5V8OjzQwNeW4IKGfBuVmA86Zq8+hfdbCH/CMKjC5d98Mpi53tvWHj1LbTvveHYjsbBHjK0l/rRmNXZDF+BU2oHj/lueM8/yrjhPTfij5ctxg3iX3hveM9y2u617b6lP5NB47zR+I9sz0f5M3/Q11jrW2iPfMqW5gltOoKNN7tne13PrsYNThr9dIHmJh3Hth/N9TKvY1zTxmPa996wJE4yGtfah9N39RV42YG3cWXz9E3jyc411I8PnHIWvqM++Ppn3Y+x54vW6jKWI9+wI/p0pD//uK2hW+8d+siOPz3L2I5s1bfIzc8r/CL7CDdlNZbGmA7taSdd2rO//Qivbk+0DiZd9hqvmNScnQSb3wO8+B44JNKjoNCGbuPbRDaEYpPD2yw2BNiGgj8k0kMibb20jgrwS3A+OggtuKMgP9fSMe0hkS4HMf6Y+649OZNfiSnfSVoKvx77+ZBIL34GukYsvKYS6TUyJ4dhHDxw8MDBAwcPXEUeOCTSq2iyDqYePHDwwMEDBw9cPA8cEunFm5ODRQcPHDxw8MDBA1eRBw6J9CqarIOpBw8cPHDwwMEDF88Dh0R68ebkYNHBAwcPHDxw8MBV5IFDIr2KJutg6sEDBw8cPHDwwMXzwCGRXrw5uZAWvfrVr9697W1vW8pb3/rW43q4+q+k8TfccMP72JE9E77sZS/bsXnr0feud71rq+sm4djmAfnGk9+Wxgn/vOMd77iRvcnaYnnxi198IzRd+C/qY15e97rX3cg87ZPGeCPiMzae+tSn3kim9lmf/M+XD3zgA3dvetObzsp6oLtOPXBIpNfpxJ932AUiAW8G75LQOjieV/7lomdnNp1FZknuJFpjO6nQKUHMJzvWieOkpB7/PATA8ffWQcBcrP3+6Ec/OjE3gmiTS9blTlw3UnZCY+0PpBJXyUr/TX22dLR+t2TTHw87+PA8a2hL5gF3fXngkEivr/m+5NEWiEooAo8kVCKaAV3f+73f+x0Xp/rTHoGLDnzoL+VWtZVY6J1JIxr2sl1ia0wTbtkryBbw9eeTNa2xkOtBzx899GtPnL6Jn3ZkX/xB/PqMAX0y2RR/c4Nn1tmE5ko/bKSX3Urtabv6nC++bDxr2NjX44Bf81lT8dM9dcQPFy9cc1L/AR48sM8Dh0S6zzMH/I08IEALTgU/9ZlIBKkegVp/D57Tnhnc3ZgEu7M8ZAt+E6rPQK1/PqfJ3tfPRqVnjj8cyBfo2NFtUn0WNPsOC9FNPwjqkx5/Pk7WtFtfbfLQzGfKyubZf5b6WuZZeNa28JNxsmdLnnFs4elazwccP7lRzvGZA3NF976HDnRr37Pt8Bw8cJoHDon0NA8d+hcPlEg1BCs3xxmsTgp253XhVoDcJ2MG5mlDSW72J6MEQw+eSuOpP/rg2q501L8Ft2hKgNEXvIOCN5vYES5b49GfnLX9aGYiNV9uZGRtPfq37NyiDXcpPHjZkO3qxtrY6tPuOW8iJVtC7Emm8enb9+ibCZ0Nxnh4Dh44iwcOifQsXjrQHAdagUmgknTAguJWkBKIZlBUn698e4073QtH7lmDWIGSDDZoKyWG2Z+eEmUw3hLTxLOZXIVdjVm714VuvPStbdaGJyO71LMteybEI6ArPbMejn56QfLMh0K+ZybS2UbLlh71OSfTNvKMUT984zuJpzHj2fqskX18SLYH/b7PdfWfJ5Hmgzl/6tnE7i1fZgdfKj1097Yj3AEePLDlgUMi3fLKAfc+HihpCEYClgClLjAKNsr6EZQKvuu+k9rkzoB+Gm3BL4g+frImXl+BNgiHZiuRTt3GOgNxOibNrEcP5gdJJD2TVn0GfHZXthLNtHfWS3glgbUOePLmONBsjYV/Snh0sGc+Wzwz8eBtXTQ2MpPV3Mw2u+Khi736tx5+VdZP86ov+7N1JvH42HGXu9xl0Us/fY2jvmgP8OCBLQ8cEumWVw649/FAgUhgE1wExhmMt4JdPO8j7AwIifssT8EY7QzI6Z79ySvQztslemPz1B99UHCNBi4d9a8h+R6+YltBek2nXd9MItFt6SEvW2a9OdEH76F/PiW1idvSQVY3UjdMvpzPFg/cvhsuvev5yNf68tfUMccx8eonJVIJVD8fKB0E6VMvwU6ZjQ+9sUez9t/kOdQPHuCBQyI9rIMzeWAGTQFGQIIryBS0EwZ/1mSIp4CnLqBt3cKSPeEMzNOG7J398RW8Z9ISOEtM9UcPGs8an45JV50tBWY4QX2fP/gzP86bEH5lSw/52Tvr6Z/jRkd/z9ZY8ve0edqbXckAt3jQlYDQzLr2tIvP81Nwyldnu/HrXxeJd44rXvO01rvlw+hBcvDxTbaQATd9MnkO9YMH8sAhkeaJAzzRA1uBaJ7aBZ/5CEgzEM++rbqgJTC7zeBbB8ItHrgZmKcN2Tv7k7FOiPAFUIF7q1+CQDOfdEycOtv5pqeEIVjjmX3RBOcYwm3pQccmUH9JlewS59TDt3yRP9ZjIYvvwR6y4fCyXX3OyxYPuezZN4/pTwdIDp+D+udD35ZP0LBJWT9b87flw/jIyG/0488O4zH+Oe74DvDggTxwSKR54gBP9MAMxILMugg+t0SwmYFvbZO2ILwOxDNZzEGXBPD1nBTItwI2GSUwcgTpKU8/Pp/JTXz6Sib6KluvPMkly2N8JdLaEkf9yb6lofG0jthmDGxv3cAZa+1LtXdrfrdw5LNp+ikbp272TJrZd6gfPMADh0R6WAdn8sBFDSSn2XVa/5kGfwlEM7Gdh/2Wsvc8Nt5UWmM8KVleDz64qT488F8sDxwS6cWaj4M1Bw8cPHDwwMEDV5kHDon0Kpuwg7kHDxw8cPDAwQMXywOHRHqx5uNgzcEDBw8cPHDwwFXmgUMivcom7GDuwQMHDxw8cPDAxfLAIZFerPk4WHPwwMEDBw8cPHCVeeD/B6aAILmk7SkxAAAAAElFTkSuQmCC;" vertex="1" parent="1">
          <mxGeometry x="30" y="1789.5" width="466" height="251" as="geometry" />
        </mxCell>
        <mxCell id="PKdy3DJYKVn4SzaQrBq4-83" value="" style="shape=image;verticalLabelPosition=bottom;labelBackgroundColor=default;verticalAlign=top;aspect=fixed;imageAspect=0;image=data:image/png,iVBORw0KGgoAAAANSUhEUgAAAcwAAAEdCAYAAACBuVcMAAAgAElEQVR4Aey9ebB9VXmn33+lUm13fv2rpKus6q7qGOfEOBujSdSggAKKs+KMIArO84AiiCKIoiiKioKACs6KGMcwCOIY55nIIJOiOA9JOsnuehbf5/JhsfYZ7j3n3nPO3btqn3etd17vGt49n//SDdsQgSECQwSGCAwRGCIwNgL/ZSzHwDBEYIjAEIEhAkMEhgh0Q8IcBsEQgSECQwSGCAwRmCACQ8KcIEgDyxCBIQJDBIYIDBEYEuYwBoYIDBEYIjBEYIjABBEYEuYEQRpYhggMERgiMERgiMCQMIcxMERgiMAQgSECQwQmiMCQMCcI0sAyRGCIwBCBIQJDBIaEOYyBIQJDBIYIDBEYIjBBBIaEOUGQBpYhAkMEhggMERgiMCTMYQwMERgiMERgiMAQgQkiMCTMCYI0sGzPCPznf/5n19pHRSP5/+M//mNNvk8m+Scpr0dPnwz4SWz28fTp7eMnHu7w5EZ9knilzFAeIrDZERgS5mZHfLC3bSJAEvi3f/vX7t///d/X2kxSoM6eCcIkY0JJKG1SmLKWUxZnqEsDJr0PL0/SLUtLKG0SSDyI1f/9v/92rVihb9iGCCxKBIaEuSg9MfixtBHIRZ3kQB34q1/+vLvogu+V/eILv98sS0944Q++27Enbj1l9QhrHTU+fax567qywpo+aR2b2v3hRed3V1x+SYldHlAY06UdIIPjKxOBIWGuTFcODdmqCNQJEz9Y8Fn8P/GRD6ztHz/9/d3HPvy+UrdMfdQOX7338Y/i++hp712zI1+tB1+h1Xj5hdLRmbv01JE4y8hTrmPzqY+d1p13zj+unfkSVw8+MsZb1c+D3SECQ8IcxsAQgQ1GIBdzyybMMz9xenfOWR/vzjnzY92nz/hod9YnP7JWpn72p/5hbade78i517RJ6+NsqCftKCNNaDuoyyOUZl2ZFtSWEB7i9JlPf6ocbBhH4HCGucEBOojPLAJDwpxZKAdF2zUCLu603zLwist+2H3yox9cS4IkSxKoCUUIPnfwdZKRt6Yl3nJLFrvstR1laihfjaeufmnJS1k7yasMcBSepFknyLpObHPfruNuaPfmR2BImJsf88HiikXAJEmzLAMvv/TictkxEwvJxKSRiUaeUbCPX7xQHSYp6tKA+ACuRa99Szn1Kpv1xJkwkU0edScuy8i1EqbJ0WFjXSh+gEME5h2BIWHOO8KD/pWPAAt3vXFWdNklF10nYZJETBwmI5ONeJOIdCEJxWRU84iXVzo6a73wQvdyKGV1e1lVPUBp4tQNBAfERks2ZWo/pAnP+PiHi46+M0pjbKIUih/gEIF5R2BImPOO8KB/5SPQSpjcwyRhckm2TjAmCKAJDSg++S1DI3GRVCiLByonlJa65TP5CeVFloduwKtHKK91ZdSpHXxjhx+auijLk+1UnxB+ki4JM7dWYhTXin3KDuUhArOMwJAwZxnNQde2jEBr0eZ9Qi7Jeg/Tsy+TB0mCBOVOooFW7yYT8Fmu+Vp1kpNy0sHhi/X0S158SdnarjrkEcoHrHEpQ1m6fiBTEuaOe5g5kEyOiaPcinvNM9SHCMwyAkPCnGU0B10rGwEX7XGLtPRMmCQFExOJgYT0kQ+9p3v3O0/sTj7hTWU/5eTju9Pef2pJoCaTTEAmlhrKK14Z6yQhkrJ4XukgieMDr3ZAg1e/eE1EncrkmSK80OVJWdqEfuS0T7klLz0hvJPcw1zZQTY0bOEjMCTMhe+iwcFFiMC0CbO8VrLjKdlMICSpt7/tuO7Nbzi6O/qoI7rXvvoVa/sxR7+ye8eJbylJjCRjMkHePZOPiUsIv3xZRoZEhP7b3u523fX+2/W6P/iDP+hufOMbFx+g804k/uy++7260z/47pJQTYrQSawkWcq5w8PBAH7/3V3u0j38YQ+6Fq9tRzblxafv+Hzu2Z+8zlOyxn4RxsHgw/aOwJAwt3f/D62fMAIu2p5B9olJz4Rp8iLRvPfUk7s3HvPqkrxIlq951eHdq1/58u6oIw8rCeu4Y1/bve9dby9ngSQVEgrQM0HqlNlJVO4mHmXAYw/bJKrj33xMd5/77NE95lF7dYe/7ODuda85svhAckTWhLnLLjuXMjLggSY3y0D0oxsIH2fKf3XHO3b3v/+e5cyVs9g+X9SNvDu87J5hZnyNfeKG8hCBrYjAkDC3IuqDzaWLgIu2CbGvAdLrhEmSIDmREEmQJMojDjuke+Hzn9U9/zlP7w5+0fNKwuQsj7PPD7z7HWtJkqTCpdJT335Cx6Vbki7JMJOliQdIAjNhkoRIXi895IXdrW9zm+5FL3j22mVTaOjhrBe/nvaU/bvb3+EO3SuPeGnxhSRr4iNBv+sdb1tL9Jytfuh9pxQfubSM/ze7+c26nXbaqSR/Dgbec8pJa8kWXpI0+De89lWlLdoXmogneeinL/4DfojAPCMwJMx5RnfQve0i0EqYJi0SHgmDpEjCfPx+e3d/fac7dbe7/e3LmZk06Ccc9/qSJJElAZJ8SEzcJyThkBBJZuwkGvjYSZiWrZPsSNK3ue1tu4ft9aDu2Ncdda2zWM5od9vtnt0NbnCD7r//0X/vbnSjG3U3uvGNSvIjUaMH2/vt+5iCv8lNb1J4X/DcZ5Sk+aQD9utuetObdv/1ev+1u/71r194bvGXt+gOfN4zS0LFZ8o3vOENCx+J9ZGPeEj34Q+8q+imffo8nGFuuymzVA0eEuZSddfg7KJHIBOmT8mSDEhqJEESFzvJ8cjDDy0J7KEPeUB36MEHljMzLs1Cf9PrX1OSI7ImTM5QST6cqfFwDYkQvZwlssNrwqROWYiOpz75Cd0f/8kfl52zSRIl8tBIVCTSu9/j7iUZ84k67ieigx1fub/5+fPOKvz3vvfu3U5336mU4eVggDPYhzz4/oX/c585s+hBPwn+b/7ub0uCxB90cS/1oAOfU+xjG9+hcSDA2XluxNS4Jn4oDxHY7AgMCXOzIz7YW7kI5GLu5USfkuXeoAmTxEFCfNUrXlYSJpc+H/yg+3X3u999uhe/8LmFZkIlKZIgTVic6XE2SSLlUi6y6GF/50lvLXythEkyNHEiz1nds57x5O4Jj39suef4koNfUBIvNBLZXe92t7V7kCZj9JIQkdn70Q8r90E5K77XvXYtH0uHj3uYt7zlLTsSKX5zmZcESFLnkvPNb37zcla510MfWNp7q1vdqjtg/33XkiS8Jm9ilzHN8soNnqFBSxWBIWEuVXcNzi5iBHJBrxMmiYiEA+Q+oQ/5cNmVh29ImJyVcQ/QB3+gcY+Qs0kSnomL5EPCJLG94uUvKfDlL31xd9Lxbyw2TJgmWersJiPkTWJAHtB5wAP2LGerJHaS8N3+/m7FrglPHTwsxFkh90JpA7L33mO3chZqwrzVrW/d7bnnHuVSMvrAs5Og73LXu5YzZ/wmyaODJIyvnFXaRs42OcM0jovY34NP2zcCQ8Lcvn0/tHxGEehLmPmlH5IVZ4LepwQ+99lPK5dAeVBm330eVZIIZ5YkTB648Z1IkpuJj8umJB0SpTtndyZJYLnEuuMpWRIRsiQiEpMQHp6I5V4iyc2Efqc737mcLXKZ1bNTIImQS7D4whkkZ5f3vOeuRR9tI/lx1ohO7rdiBzloL3vJiwqeJIwP6MYnkyV8tnFImDMalIOauURgSJhzCeugdDtFIBOmZS/JkohICCQIEg1nmSRLLr0ectDzy9kXiZOnV8GRMEmKPCWLrIkQeZIf90Hh4QyNHV08vYoNeOGjTOIxKXG/Exku/e688z26XXbdudt1113K2S0P82gDPs52SZokPi6/4jPJjId2uOQKHh0ky0c8/MEl+UHH1yc/cb9yAMD7mOjnDNp2P/2pBxQaeOQf+MD7lnubJFTvlcJrwjSOjKMsb6dxNbR18SIwJMzF65PBoyWLQC7olrms6EM/JCSSGMmBsy8ut5LsvDTpfUuSH4mN10Y8MzSZmXQ9EyO5uMtDXTq4pHNm94Xzzi4P7fAnzZThwQ405CgDeWAHHmBJvjsumZLMwH323DPWkjM24NEuPNDRTyIUT9u/+NlPr+n2DDbbhT/IEDvjyFDI8pINjcHdFYvAkDBXrEOH5mxtBFzcWwmT5EBS4uyRr/1wJkmCZKfMZVgSKmdrJhqTodAkCF0ecNCBiROPXekmRSB0aCYtedABXV7x8IMj+UkHQk8b0NnBu+ubctTdsy0kTO5fshtLoOWt7d3B+naPwJAwt/sIGNo/0wi4sJMw+QNpEgfJhLO4TCokRS538tQqkAd82EkoJpKEJh6geJOjNPCZfKhDS7vKiq9p6k89lGsb6kkf1AWOdsNDu9mRz2SZ+uDT3pAwZzocB2UzjsCQMGcc0EHd9o5AK2GaNEgMmRBNEpl0TEQmLutAcCQlE5NJp8Wr7pRBzsStHnUlv3qxmfiUUU/alp640vYdDwCpFz7w1uUnNlzSHc4wt/ccWuTWDwlzkXtn8G0pImCSxFnLnmGWJLAjOZgYSxLZccZpwsrkUZflMSFZhy9xdVk9Nd469EzIlpWzrt/KAes2tHDqSbksa18+7GTCtPOJqXEVl7FO3FAeIjDPCAwJc57RHXRviwi0FnPvYXpJluRD8ixJobo8C86kZPKA37LQZGO95pEOhMeEl3x1Wbt9vODlQae6hfrSgsqmfM2nP/KSiPP+JQOoFd9R+G0x6IZGbkkEhoS5JWEfjK5SBFoLugmTe5UmAxImO0lDHMkk8SYi6MlDGTnptY46KaUstNxNWolTXjvqp+6unLBlQ15ptI2DBmDSUkfythJm31hpxb2Pd8APEZhFBIaEOYsoDjq2dQRy4bacCZPkYKIjOWSdsgkDSMKAN3Epox7loOUO3l28dWWwYbnFU/OP4oFm4pVPqA3olPHdtlHHD9tLnaTK6yzGkEFF2X1bD7Kh8QsRgSFhLkQ3DE4scwRygedyIpsJkw8VHHboQeWrPHxWjo+s8+Ubd3DsfMSAz+OBh8ddOlAZYdL6yvIC4eHbsaN4odUyLX71QcNX9LJTlh8e2qVN9SadrxURHz5ywP+EkkDrh37qS7TLPFYG35c7AkPCXO7+G7xfsAhkwrzi8kvK13v4aDl/5fW4fR7d7fPYR5a/yeKvsqiz81k8dnCJly7+8Y/bu8tdfC2TeMvqwg4+AMGlrLyTQPxI2dSrbnGP3fsR12pfypX27Ld3t/8T9imJlQ8a8JWk/AD7kDAXbJBvY3eGhLmNO39o+mwjwJmmCZPyr3758+6HF53fXXTB9wq8+MLvd+7gLvzBd7sLzv/OGu473/xKud8H3h0+ZUZB+NzlwzZlbaGT8mnvP7V88ef8736j1Gt+6+pLKK2GyUOb2PlGLTYoJz1l9RHfwP/oikvXLsESS5NlXpa1DBy2IQKbGYEhYW5mtAdbKxMBF+26Qa1FnMuz4oEmASBnUtD/7d/+tfvn732r40+Zf/6zn65dlpRXe3U98dCkp1/gsMH229/8unz0ncukV/748jV+/YNHH5HJXd3abEH4adNVP72ye/Yzn9J96+v/tKYv5fUvbUHPDVpuLXs1T/IP5SECs47AkDBnHdFB38pHoF64Ww2uefrqJpFLf3hhud/H32bxEXQSjgnEpJA60mbi6zJ84khkPFjDB9b530ruF0LTB/mE4HMXPw7+8hc/Kx+F52PvJ7712O4H3//2WsJOv9M37JBs0c2mT8k/ym7yDeUhAvOKwJAw5xXZQe9KR8DFu6+RLvzSx/F//ryzuj12v1d3n/vsUf4l5Jtf+1I5U0O+1qXOcTDlKP/sqp+Uh2vue997d7vvfq9yz/Bf//Vf1vSP83GcPelcXiVZ0hb+Pozv5mJn0i39nlRm4BsisBkRGBLmZkR5sLHtI5BJwMQE9AzuzW84uvztFomMsz/+KPqqn/y4xC3PvDKQqTPxlms6/xbCX3aRmPk/Sx6+4TIwm37UMuoaB5Xj0jL/40kbsMOfTHOZmf8G9axR3pZOaKPoLZkBN0RgsyIwJMzNivRgZ2Uj0LfIt/AkDRKgCQpI0jpg/33X/pSZZLbXQx/Y/dPnz127h6guoLLqqWnU2cRzdsclXv4+bLfd7lnOLvk/S84A+YcUaN5LVQYb6lGXduWRDtQXPjjPqyQkSmzw/5cPeMDVl5m1gR43dQrVLX2AQwQWKQJDwlyk3hh8WcoITLPIm2RoqImDdxC5TEqiZCepsfN+IjwkIzdtZYKRBkz98v7ud78t/0X5mEftVZIYZ34kM85med2F+4wmM+WFqbuvnD7y0QL+HNq22B7OMmkHvtjulj59btEG3BCBrY7AkDC3ugcG+0sfARf5aZIMjSZxfOWL53VPfuJ+JUGaXEyYvL/JE7Nc5lQ30GTZSjzg5M3yySe8qZxR5hkm5Yc+5AHdQQc+p/v1r35Z5JQVTto58H/3W18t752SkG2DbeJdzJ9e+aPylG7Lb+2gx13cAIcILEoEhoS5KD0x+LG0EXCBTziqMSYMkiHJkgdkOOPLJEPSAX/Cca/v/uVffr92pslZmnbUk7akgYPOzlOr2CF5oZczSy6Vau/BD7pf+bxdnZhTb5a1AXT73W9/0x15+KHlIR/s0B4gdrC35557dEccdkh5lYWz2ZRVh7ClX9oAhwhsZQSGhLmV0R9sr0wEcpG33Nc4khhJ40ufO6dcvuQBGXaSig/9UGZ/2lP2L/c4uQ+JXF6epT5qww8S2XtOOal72F4PKmeYJGESJfcY3bkc/OpXvrw8yYpO5CbZ9Ad+PrrAl4PQRVJGNwmz2KB9e+xWXmfhSz5clh21Gb9J/Rila6C1IzDEth2XcdghYY6L0CbSh0G8icGesalc5C1roq6DJ/Hx9ZuPn/7+7vQPvrs8WXrS8W8s35PlPUx2vpTDPcGvfflzJZmhpz7DBJebtuQl0X7uM2cWXej8yIfeUx4o+uB731nK1HmqlUTGmSz6J02a2oD/kosv6PhnFvRhB50keyA7ONrK6zMkzPTTcqsdLZz8NUzeVSnbxlm2Zx46Z+nfIusaEuYi987g21JFwIVIqPPUW0kIHGeaQL/0886T3nqt5Jg6KKtHG8C+DRoJ0B3Z3//+dx33E7kcTDJlx7Z+TKI37WnftqCHnY2zVsroNxELoU9rK2WKgR0/6kncUB4dAfttNNdArSMwJMw6IkN9iMAGItBavMXVixR1EgibCZOX/DnTUwY6SUdZITJZ7nM59aCLhMlH0UmY6CXRgWdPfcr16a3x6Mkd+tFHHbGmH5r61S2sdY2q98moe5TsQNucCPT10eZYn6+VIWHON76D9iECJVG0FhFwJioSJh8pf8eJb1l7yKdOQKNCOSphQDNhcUbJv5XwVKyJUlrq19+ESc+yPOAo2yY+xmAdG27JL25SiGxr68O3eAfc/CJg365qfwwJc35jZ9A8RGBsBFxYSDLc0zzl5OPL2eZYwWBwkQrUdYra4ayShMlH2E3I12HegVCvsI8PvPopm4D5shD2avok+orQ8LN0EbBvhUvXgDEODwlzTIBmTV7VgTTrOK2yPsZAvZFk+HuraROm46mlM21IJzFnwhSfvJZT9yg++YXY4EyWvzfzzBJ5E7QJtU9nH179wkn55B/gfCNAf9T7fC1uvvYhYW5izBlMLhoOrHrxED/A606+ZYjJuOFEG+xzeKmzcSbGGSYP/fjeZd3e1F3T6nryUtYmiYyHfrgki00vn9b81lOvuHEQW2zvPfXkYhc7qUdfEtcqowN8vcmLHm3JC63Wr3wtJ590oXzqqu3IB5S31jUKrz55Up86k6emW1deXn0An5t8o2DN36cr+SiP0imtllnm+pAwN7n36kHkwNxkNwZzCxABxgL9z0bi4l8+8h6mLtZjBrw4YG7i5ZEmvpUw5emDyvbRazxtYeOhH7ZxSbkw7fiZ1BZ8fXqh5daq1zj4+3Dgk5Zl5WqcePu39qfmzzpl95RTZwtX86e+mj/r06w/LZ3abdHSzqqUh4S5xT3ZmlBb7NJgfpMiwCJj/1PmDDOfktUNFyXrwnGLVNIt83ARZ5i/+fWvehOO+oXKWm/B5DFhHnP0K9dYk76GbBTgm4QXHs9cG2quhZo0KdgX1xJuVCbxDzH4JtW56HzTtKURspVBDQlzhl3JoJp0MjFBWFiA7LWsdenJI22A1xyJL3osHGb4aZ9ahsZY8AyTs8DcbFviJikjV28kTO5hkjDxYxZb+keZRIZu3sPUB3kSGgegfLU/yW8ZHsqeYYoHqpOyW9Ita9O6OlsyqTP5lZGeOpNmGVl51QNMevLIm3qzrI4WTr1FeSRvZaQrm3zyQMtdGf11/QLaF+qpoTpr/LLVh4S5iT2WA45FkZ0FjAWmtUObZm/pAFfraPHVPHV9UpkW36Lg6jZlfZSPyddXbsnDW+PBZb/Lw33LH3z/2x0fSQeXY2W9i03qcJjjT1/CbPEj14dXJ3QWVnmxwfa2t7zhWl8Psq0usPBlLKirK3nAs4sDUkcfu/XEJT86qde7cvietNpO0iibRJTXj2yfMuKQSX7pQPC1D8gRG/ng0U7iLNcwfWzZBadOZPWPWGlHH/ADXnmUAy8OOfa+bRy9T27R8EPC3MQecUAxyPgPxA9/4F3d+9719u4D735H2flcmeU+CH+99/EO+KvjukhxsO/0yToPyPChdZ6SdQFzaK53sXG8occyi2DfU7Jpx3JC/UkInfHMrh0XY76Vy+fyaGu28/zvfqP78Y8uKx98B0/bGfvwfu/bX+t+eNH5a3MDGvJ8IpBP6vGuKnzgP/S+Uwr87LlndJdfenEHRA86jS+fBcQfPv0H3jkGPO+cfyxywNSHfi6P8+rNmZ84/Vr+8+m/H11xafftb3y5fOoPO/qI3E+uvKL75te+VGTEY/dTHzut0L78hc+stQ0f2PnHGs74+WwgbdJ/1ofvf+fr3c+u+kl37tmfLHb0H334cMnFPyifHjTG2ORTi5f+8MLSBj5LiIy+fPqMjxb/iSO29B+bxIqxh97T3n9qkTFmXzjv7PJvM8QRmj7yuUOujBCrKy6/pMTaceDYyfGy7OUhYc65Bx00QDcGJZOB+1X8STAThcWFMpD319ypJ46B29rlH+A1sVuUWGQf1n2nj+BZTFnoWgnTsbNe6PibJGHmmM1yyzb0OmFSJ0nxLyn85RcJgXYSB8Y4ye0XP7+q0Gg3NNr+ja9+sbvskotKMv3qlz5b+JGBhh7OaPiDavjUByQBX/WTHxeILWwgA4RGPEk81KFDQz80khFQP4AkvCt/fHmRwxb86kOOryThJ9/4RSc7dOR4+piEDw7f9JMkRJt5dQgfbBdy4PhIPgfR0vADW8SK13PwX31AbJEsSdD4aLuwixzx4KAEH9WJTeKIH7QPvP5RJg7EmDGIDmOCTpKifiiHrD7SZpInsc7NcZe4ZS4PCXPOvedi4sKDORYtjvo4ImabZlCpp4azbsY0Ps3a9irry37LdibesvRZ9IU66oTpmSG2tNsH9Ucon2M8dVAmabIA15s2hUlHJ4uuuqXJW+OhQxOPTTdwyiUeOnVl5FGOOnFKeWlA6CYGeNy0IRQPJA7qS3vwYostdVGHjx18HUdtQLNclOzQg07waUv78GlTGe3Jo07q8ltOnZTxjYTOWaztRAZ+ZYqSFfgZEuacO5EBxeDLwctk41IIR2gOKvjcxQ1weR7qmaav6Oea377P4ShP4lrlSfjgYWOhzHuY4qGlHssJ03biW76rDxpjP/kpSxeqQ1rWlU3e5JMu1GbOOWgtnS28fNizLITfDZw2tJ0+QhcvVCdy7uoEakc9NS15av3KJp5y+ihNP9CXOsGzJQ6ZFk5dQP7ejb+Ra71DXIRX5GdImDPoSAZX38ZgcmLIY8LkUiyy1OGpBymyw77cMaBPcx/Xn/BOs6XuUbLSxiXMtD1Kd9JShrK2gDn+nQfSoTn2KYtXzli54FtPqIx2a1n1pozlPtnEw6vf6UefHWMhXVn0uGlfqL2WjLRsn36oD6gu7SGnvhYNnLxA+iFtSYMvN+Xg9ywWyCVn7mtyhgmPuoSpY5nLQ8KcQe+NGhQOsBx4DDbOMLlHwMbgHKVjGhdnpWcamwPvxiJAn9lvwmk0Kj9KVpoJk4c06nEnT9ru0y0+eUeVcxGVDx19eHi0UcOUt5wQ/lGb+kbxSIO35aP0cTDnvbzj7I+zCb3eWrjk0WZC6HVdGfHW5bUO3fHDesb9T24zDQnTCA2wGYHWwEpG6EyanDgmTM4w2Rh4SU/5oby9IsB4mXZzDI6SlWbC5OGUetzJU9vvw9d8o+otHeDcU7bFm3TLNZ+6arz8wj6+llwfr7qE8lkHtnDik6/GKSdMXnD1NgkfPKwx8qpHWOus68onXln08hAR9zFZ28TDm+WUXdbycIa5wZ5jQIwaFEmXj0HF0RhnmOCoe7RWD2plxrmpnQFeswhvZSyyv6bxI+UsIz9uSxstXnWQMB+3z6PLE6yMNfZ5bvrluE5b0PRBun7Kp3zixSlb151LLR3w1nKJ048+WfDwuLVka3+ou0kbBfWv9iXxLX3S1Z08SavxNb/0GsJX+wSOeF/10yvLayyUc4O+StuQMDfYm+MGWw4Yy3XCZJA5ENUnnMY9ZVpwlJ4Wf43bqHytbzPqo3xeL22c3316p5VL/j6diR/HD51tVMKUJ/XOqqx/qU9cDZOnr1zLWO9LDNDZ5KthS07b8mbd8iidtVzK9JWVSSgvONcJccLkt1zTWrI1rzItWPNSRyeXYXnFhXc0h4TZitwS4uzsGm6kKZPokgc7lNlImPU9TAdz8q/Ht43Kr8fmIDPbCNCHOR5Gabe/E7b4obNNmzDV29JZ4+TVVk2fVz3tWp7UlvzCSeTgHbX10fvwo3TVtPXqQG6c7CR0eYAe6LOe8dDPu9954tprJdDZHcd1O5a1vi3OMO28SeA0HVnra8nKA40yW50wc1DJ01OsdpcAACAASURBVNI14LZHBBgDjIkcF30td3wlbPE6rsYlTPnQkToT39Jf8/fxyDeKPi1NP6eV05dJ2jaN7j59ffhpdM+TdxL/kscykA8i8FoJX2MykYJ3n6ffm6l7WyRMAmrHjYLTBr7W1ZKXRx+AoxJmrSPla9qi1PURuNXbND5s1O/1yo/zcVK9yZflVh9ok4Tpe5gubPKrg7ploTx9UD5hH1/qHsUzDW0Sm336ppGVV9insw+P3CJv0/pnHBhHrfcwaeu0Ohc5Pvi2bRLmvDrCQdOnP88SHDwMsLwkmzy1HvUnrHm2ur4ovk3jR/JaniSO8rbgeuQnkenjafkArrWJN2H6Wgljz0191C0L5RkF5QWO2iblq3UoV+Opj7PZklFuUlntJ+zTOyu8tmatb9I2j7Krb5xV8scBfN+Wk4FZ6B5ldytpQ8LcYPQdNH1qWslwowlz2gE5zseW75PaUHfClr5549K+5VE25anhemTUMUpWmrxC8euB6qhhSxc8bPNMmGlXnxJnWZo+iR8FU2ac3Di6dlKnOGGtQ17ms3NanDLzgKNsjKL1+aKMsI9vErw6SJJ8u5YP1g8Jc5LIbQKPnSPcBJMzMdHy14Tpe5hOwJZB5YGLum21j+uNzVb7PYv+zDaMioM0Eua++zyq/LtEPe7kmYVfo3Skz6P4appyNX4j9UnbrO0absT2JLLam4R3Eh71CSeRafGkPOsZr5XwEfk6YcK3StvSnGESeCf4MnVCy9dMmNCpt/gWZaDh26L6p2+L4t9W+DONTRIm72F6STbH2KLEMH0ayrOPgONlPZqVFaKDJMm/mfAPTHxLNsdRltdjb9FkhoQ55x5pDRgTJv8/B32REyb+5T7ncE2tftF8S3+yPHXDJhRIG5THbZkwWehym0Q++Yfy9otAjrc8geEpWb8la1Tktb4KcKkSph2wTBM7fbVswvRbsg68VRhQQxsWOwIkSS7J8t+GzqfF9ngxvBtidc2DYPQI8XDdAvLH3/69V/aYa17ilrm8NAnTTqo7wIEsXLTOYDDlwMI/EyZ/78Um3TbUbVy0Ni2Cf8aK2OiPcCvjtRU+GAthq/365RkmCZPNsUdZeWFLz3pws9anD+vRqwxwmi3lppWdxs4i89JuxotbxsTXSvjqT26rFqulSZh2Dp1hGUgH5p60RSinb5TxiaP8/D9MEmiLbxH8H+eDbZIvJ8s8ytqpYcavpq16Pdte9wdtd85AY0HjDJOPr6ccfCmb5Y3GTzsb1VPLr0evMuttX8rNY3wvsk7HiD7aH6xfPCH76TM+Wp7CdrzJt0pwKRKmHQV0I+mwM4DpMHZxQvHTQuWFtbx4YU3POkf07k7W3/32N+Xj65xhwsuNcngoqzOh+pS3XsOUoTwNXdlahnrqcsEAh8/+nY++2T+bBR0T+qN/tmNUu+SZFE6iq8UjDjipLflGySatpRtcxoO+4p05Plzw85/9tJTpQ3nU17Jd0+RpwdoXZROPTWSTlnT1Jh1cS05eaNJr3fLU+sTLb109zl3HGeOactY3a6xvtR3bLdQf6oyt3/z6VyX+4InfKsZoaRImwc8JYWfVsO7Mmj6r+qR25APmxv1L/g6HjUla05N30nKfrZQfxdPnQx9everc7EmC3T6b6XOW9Xle0Fik/hYu6ePKffLiheP0QGesvfkNR5enZKkTPzf01Ju6W7Sad1S9Tz71t3iSnvr78NPytPhH4bSbPNu1bH9xUPHjH11WPo/neJK2arFZmITZF+DEuzj+6IpLy+n/mZ84vUAuBbCf/al/6M765EfWduq5j6L18SGTNMqpp6bXtKzr5xkf/3D3kQ+9p/vYh9+31o5aT21T2bqd8CWOmKgrZSjrS81jm7SpnHjlpAvhO+fMj3W///3vyrygr3Kf52TRDmOCI1v+KeGcsz6+NgZso74L9V1IGyxPAtEzik87fRBZ4yus9SU+9dR8SaM8iq5d4sJHshmDyBgn6KkDH6TDk3xpB57Wnjy17qT1yWJfOXmoj8K34tbntz609GFPW4zvc8/+ZLmEzXg2IcxzbM9Dt/Nllro5+CIenLXz0M+H3ndKOdNMG9hdpW2hEmYruImjTCdd+sMLy4RnILNIsli6YDLAy37WxwsNer0j17fXvNZrfvFAaYnL8hod33bwOymTr6+sfMLkBZ91yslr+Vo8O3wRJ08NW3QXEWhMEi4ps9E/HtRkv81rwjgeuB/HwsclbvwvPlftsx0JJ2lrH496WnRxa344Jnf45HiVLyEy1rUhFJ9QmjBplAt+h33rxMo+tKw8UB1ruEYs1bXGE/NMeaE81oXiCwwb0IkRMHnqujT1CcWvwdAtTl6heGHiP/GRD6z9f+hmjOtZzxd8zn0j+rP9zHUTph9f59Js8mR5I3YXRXYhEuaozpRmwOigSy6+oPv46e8vk35twp/5sesckXpkKvSoEZm+3SNPZUxsyrLQKCsvUH5xdR0ZaZRrurRJYepDptbX8jF1w59nDvInTH7wth28fPwRti8r01dOonlPFPUDSZicMZ13zj+u+ZW+WzZGQHG2w7pQfA2lC0fRja9Qu8TRWPbJ66t2gDUv9aRbTj5xyidM2iTl2qdWfZQe/ap51COE3te25FFPH694ZYTq7/OnpnM16Je/+NnawaBrEWPPcShu0aA+1nA9ftY6vJUE5O+9Tn37CeVqE2tA8q7H1qLKLFzCJNBuraCDI2F+9LT3lsXCScEgZ0Lk4uQESegka8HkUw9QfE4k7UHrKysnT9pMvfK1cMrKI0yb4PS3xssv1IeUoSxeKL8QvLEG52LDGSaXZOkXk6UTxn6cFtrvo+TgcSNhfvKjHyxJyLYIbQ/QtmScEy9dmLKWpSWUBjRGlOGxX4Tg5G/pkC+hfMoZe+vakS+hPMKapr/qwG7Ng2wLp4/Q1J+wJZO4LKdddUiv68krTw2VAeqnMGm1XNaNzekffHdJmPW43Og4d/zOE+pzC05rFx22GZgJ0/cwWQvk0ea0dhaZfyESJgEyuMC6Lk48/+7NIHbiCHMiMNg9ihfvZJA/604maVm3DL+6gNa5jIM962lbG0LlrWuPOmX1pk30qV+55LPsfSl4KKeOPjl1137JX0N0olubnGFmwqz7sXTmHH4cE0ASJpfNMkbG0nbZTqC+122jbsyMH7jkl15D+dDvGWTaBkcdubRjHRw7//gARI82pAHVmRC8vOqzrmzWMwboqeWTVzvqpa48OMdcaTeXZXe0Uz50y1Pb0TehcRPqm3Tr2Tf6qn/yAuFPH8Hpi7qSXx3qhEb5tPef2v3i51etHRQ6nE0M1hcV5px03ozyNflrvqRRNnFedslF5QoP9zMnsVHrXZb6wiVMA1d3TOJJmFwmcYDnoGcilMkbl73qyaGceCdIjXfCqB/+1g5dXcLEWVYW/9RZQxcjeVPWsjJpS9+h1e1JfvUmbNHF1RDdLDrK5xlmX5/ZdxuF6kePkxLIS/ieYeoXfhpL2kA568ZIfiB84l2Ua3odD+vyYYMFP21By7o2hOoApl3o4PRNPerSZspnOfWrCzry6hDKK9SuvNbrtmkvfVOnNGVth3jrtkMdWZcHvywrD6z9rWWlC/t8SZ3qFcc3UkmYJIdMklne6Niet3zOnVG25BO2eJNGmY0H73gYk5is8rYwCbMOsp3Sgl6SdUADnSjiWpOrxdOHy0kvj1B7Lh71USv1xCmHTo+e009twadOyuLrya599brIIgsOOjJpI/VZhq4sZe2pVwiNMhC9yKgjP7hc91Xdpxutqx89loFrCXPHmb7tAOpzxsM2JC7bCp7dNqJHnfIJ0W984Mk+kKYdZdQvHXyWpcuftvVFnDDlU594fUh5yy1+5KA7HqnLx9k8Z8Lo1Efp1NWrTXUon7zKIwOeHTnGmHrg0ZYQmvjUJ169Qn1JnSknn1Aa0EuydcJ0DG50XC+SvG0SjvJNHh70+emVPyqvyXmZtiUnf4u2LLiFTZgG0CALGbSZMJ1ATkomM2cbQB4MYmdy5yLPpHACUUaWnbITxYkjBM+uHBMPGeraklf71HMCK6Ov0rNuWT+A3K9lVy9tAe/kxz66yhN+O9phXLSf+qApSxm9yotXDnyh7YgReowlvpIwmTBs9pHQPqzhOHrN36qrA5gJE1/Td2PmWCBWjAcg7aD97MYnZWtdxiIhcilL2fGGfm3hB/FiR1457NnnlNnxB3/hkz9tJr99jj7sqUN+6+hUH/K5g4cOr7qTlzL6iRmXJ085+fjy3VDapgy2aSMQfvC8NoWcPOCh64t6raOPdmMHWfD6g1yNQ3f6La96i90drxqhO3nlAcJnXV/R7c7VLD8lyHhzy7K4VYfZZg8gSJJ8Gs9vyeZZZvKvQmyWKmHaQSRMJyMDnZ3JwMB+50lv7d70+td0r331K8r+xmNe3Z10/Bu7d73jbSXpwOfkYEJQZpI4aaCLV3dCJxEQ3nec+Jbu2c98Snfwi55XFkcm5mtedXj34hc+t0x+9alTOW1Cl0c72mCR4B8ADjrwOd2Tn7hf2Z/2lP27173myLUkR5sPf9nB5ctBuRipH12JzzoL04lvPbb4y2KHH+mDvumfvqMPPmxsZcJkAjIhWcyIO8nDNgA5M3jPKSd1b3nT67pjjn5ld/RRR5TYUeeJPi/r2z7bDrQPgIm33cY3edGDH696xcu6pz/1gLX+ovzKI15a+swYqhN+bSBPbBmrL3z+s8pYrvmtKyPUL+riLNtf1LGhbevJDy+7MaGd8JPIjjz80O5+97tPd7vb37679713LzHUBvPgJQe/oMw9ZOE/8HnPLPODsaVNobaxRQy4tP/yl764xOwpT3p8gScc9/o1P0jUz3nWU7u3veUNhR9524VO6/qtX+Jf/cqXX0tWvpasPgo5WDVhrsKiv942MNfcnXvUWZf9lqzPM4jP5Lleu4skt/AJMzvGTiBhegTugGfCHXfsa8vCSLJkcWSSkFwos2CefMKb1o5SmUhOGsvoEueCmBC6Cwh8LATPesaTu+tf//rdTW56k7Uj753uvlN305vdrDv+zces6asnd9piwWBXN0fK0Elo97jH3cu3P9/w2lcV/9/+tuPK4gKdnaP9XXbduePAAB34BV6/aZt1Fw9xJLvnP+fp3YMfdL+SPMTrK36QhJBHr0fw8FlmIcv3MJ1QwL5Nnj76JHj1A3noh7bz7hy+sTMe+KIN/c7OOGA8sDMeGCP0j0mTNrLTdvsBneozni2oLLzIcJDDgdvjH7d3d/d73L3Y4+ibWMKjDuSoG0vqyB915GHdrW596+6Iww65JvY7LjfjH7sy9It9njjKnn2it7ZJXftA+IHZz5SNARC7JA/ateeee5Q2Gi8O2u7wV3/VPemA/QrPw/Z6ULfbbvcsyT/PPPEJ28hhT/jAB963u/ceu3WMcw5wGeeMT3iJEfUb3OAGJQkz9/VX3+FhT/+pQ8d39JNw0QmP8VC/eoDIlfjtuBedCdNxN8kYXUUe2w8kGQJ9rYQPYni1ibbLs0pxWIqEacDtABOmg50JwRkDiyI7Z3jsLowsktSPfd1RZSGFn0nDxOBMlSN6Fjg+iA6OHd1OSicXk8ky8iwEz3jaE7sb3ehG3d/v9PdlMeZMk8l529vdrth3cqKTshMTPfoAlKZ9dLP/1R3v2B168IHlAEG/ndQsNvhNUqXdLl7olkcb4PRBSFIhYeIvi4J+oEc/XDiso7e0YcfCh448qrSvRkH6kX0jm/JA38MkYeKb48GrDCZLEpHjgrHBeGCSw2+8KPPkLwdX0OgD4kIcjKsQGcq5G1sOdp777KeVvqGP0AOfMYYP+dzBwccZ6p//+Z93hx16UKGbVKDjH7s20QcdWOunnnYoZ1uQY4fPsW4sqMsvH7L4t/8T9unuf/89y8GavnB2ePs73KF7wuMfW5Ie/jNukWFHB/r0yXZoj/mz376PKeMQG/aHfpBE//RP/7QkTGIrHX2U0Q/EFnaUA48NEvwzn/6kMsfhSV79MplTh65u5gbvYc5i3G5kzC+CbM47n4gFfuvr/1QuyfKZvNzkT9wyl5cqYRJoOsB7mE4KEh1nEyyGLIpP3P9x5dIRl4/40DSLI0mTBZQjVe+FMHFYFMGxSHIJiAnmhHLCMHmYRPXOxOUM8053vnOBXIZl4r/guc/o7vb3dytJjMnPme/ej3l4d6977drd8567do98xEPKvSD0I/+4fR5djtr32P1ehYdFh0mKn1z+4pIvZyguJPhDncu0O+20U/dnf/Zn3d/83d8W3Xs99IHl0hm+4h9xAYddjvi5HAmexWznne/R3fo2tylnx5wJsahw+ZcYwMPlL+KHLEf/XmY2HkASJh/03uzFJCciT+ixKDIeiCmXYok5Y4Hkw0EMbbvPffboHvCAPcuZG3jGBfHhLJO20O+0m0v6XMplXNAP0my3Cyr1HCPSgfjDwQixY4yhGzn67fH77V2SA/3CmKAfSOqMQf5J5I5//dfdH//JHxe46667lNhztolOzpC4XLvLLjuX/uRg56WHvLD4DZ3LoLSbfmQ8Ic9BHTHh7I2zQxITYwEal4s5I8Y/+v1lL3lR8Rm/6HPGADFANzwmzPve997lYA0c7cUHzjAf+pAHdI/d+xHdAfvvuzbGsY0dxg/+w09MSLzMOcY58wZZ4k4dHmLLpV4OPKD/j///f5T5QExJ2Jwx0l/4TZvxefcdc4jLx/Qr8x7+m9zkJuWsnYNLeJh3xJv2cLBtTKDhK3rxgT7Df5+SHfVQyzIngj7fR81raJxlkiR5c+Gz555Ryjk3+/QuK35pE6aTignLfTgWHCaNSfMRD39wWRxZOMB7lsFiyARAjsnAJU0nDpfouNyDbiCLBJPGHX53cOjgniKLD3q5DMUZIQsTCYjJymRkwlI2eXL0/dQnP6EsCCxK//t//6/Cz2LCgvnXd7pT8Rl+FgUu93I56tGPfGg58+EAgUUCX9BP0uSyI3XbBZ0zG3zjbIm2POZRe3W3vOUtu1e8/CWlTSwoJGMWH2Jgm+BFH2fJXmIjTrSNeKYdLslyhrnZm5MS6CVZEiZtIAE4Hlg4uX/I/TXa6f1EDp7oE5Im8bTtLJScedJG4keCcyx4+RYaOzL1TvxZ6KGTMFnESQLUwZOA/vwv/qK74Q1vWA6s6GOSH5fFkWXnbC3P0JC1X7m/x/hgrDBOSVwk2EMOen6pP/xhDypjBTzJiPHEFRAOlDhjRS/2iBHj9Da3vW05KGK8MJZIYsQR3SQ9Lg0TD/zEf8YGCd9LsvjGzgEYvDe/+c2LTyRZ+IkPMpzdcZuCAxliTBJkjmAL3SRckhq+4jtxIt7GkjnOHGA+4Bv+Gnv6Cf3wEhcOJP/iFrcofmqfe670PQd49gU6mPPEg7aiF984kCBu6CPu6PQMM+/JOQY3e+wvoj3+gem3v/n12mXaRfRxFj4tbcJkYLvAcJbgAsmZA4skCxBnmJztsTCSNNlJBCzyyDKZONJlcrOAsLDCizyJl0QDn2cuLg7KMqGYaCweXNa9693uVpI0l48oewQMnzpYnDlaZuFDD2cI1GkPCzMLOEfanEVgj8UE/zjy/5P/+SflzIOjY/jxH1vIkwA8E3AhQd77WNhHJwskCzJ6SQacfXDmxUICjkWDBY4F+C53vWuJAzrAc3aG3yxk8GIn72HOYkBOqsPFyoSJP8TZPvWqApB+58yL8YD/eQAF3YRGvGg7Bz/0DXyMJ8cFiQP90BwL1LMMjViD9wyTsQUP/pHESHAcKOEzeA6EiC2XlOlD7gfe7OY3KwcnxJ0dPnwj6XMFwsuH3LsmwXAAxphgPHG2RMLhwBDfSTSMaZLa393lLmWsc4BEsuDqCL6g3zmF7/jKOGG8EA+SCzaBnKUyZkhUyIHjgAQ7f/iHf1hswCsNOvPpj/6/PyqJkrnCFRd8pU3YIxaMfxL7//nT/9Nd779dr9hHB+03YXKAx1hFp3GxD5xjnI1zeZirI8gTU/wlRox52ok8NPqXmBAn6ujgIJEDHeTwizFOwqw3xp7jsKZtpzpn3ZdfenH3pc+dU+5hZkyyvAoxWbqEyRGe9zBZnNg5UvaMgYTHzpE2C6RnmOLrhMnEQQeJk4lmwmWBYZJCcyFmQrGDY5IiyxE5ix2TmEvBLC5MfC79kNhYlJiQ7Fx6I7lxFA0viwqyHGmji50FkIWERKwt7DF5SeA8UMTRM/7iF2d+nGESA/1CDl0cRJC4sYltzgA4yif54j9HzvjIgsviCo4FjJ1EeuMb37gsqDxUxI4dFkboJgUW3tY9TBcT4awmixNQvUCeYGQRJB7EgDMlFmj63CsOXJYl2XBFgD5mvJAQocNPvJBlp//QBx9n44wFyvDKI7SPgMQPvHEkSXO2wkGSdMYUCZMFHBw+kzwYqyRM/MAeCZOzLurs6qY/uYxe+mSXncvY4QyJZIjPXOXALkkaOfqKMgs/fXfnv/2bkgCgcckZX7gKQZ0DAsYX+ti5HcAZo2OL8Yo+zzAZe7YfX0muJF/GE5ebscs4ISaUGedcpaAvKOMn+mgbevCRHb34RH8x7qEx9rmHyZkpidJ4ADlrJZ6MceYdft/0pjctCRP72IDOWSjzFH9M/px1c0uDAwf6irjiG230ShQHiJ5hOv4YzzkGLc9qnC+qHtsP9KEf/62EtSAf+jFGi9qW9fi1VAnTTiJhenTpxGdSc7bATrJhcec+Ipchwbl4cgTLBHCxcpFlknJknztH6fAx6eBjcrJnmfuRJD0mJQsWO9fymXh7P/ph5f4kl5pYBFmIWbRIWlw2Qi+y+Onixv1MzuxYqFk8sM8Eh87CS+IlYXKkjB9AFjcWA2zDh15sEQMu57JIg2cB4pIcZw7IEgeSJ3y2VT+Ig5dgbbdt1y/qLEBblTCdkCRMfKLdxIvFmQMjEhwHDZwtc0mOZMGCTtsYE9DhM6EZayCxpM+ID4sqZyAkTfsCCB8xsEydcWB86BMWfs6ooLETZ+714Q9y+Mw4IcmQMMFx0PWXt/zLclCFPvXiE+ONe5P0HYt+2XeMT/qORMVBIosXcviHXvqbpEqC5IwJXu4P0sfcMuDgifvgnFk5fvCL8UMM4cc3/CGZ4C9XN2w7uklUnJ1xkHirW92qXNZkHBIPduYel6JJ+rTfM3vsqR+fSZIkPtpCm2kDBzWcwXqfE7vstIvbLyR6Pr6PHuYQiZ65jyy2H/Lg+xc+DkiNC7y0jfHPlSj0fe4zZxad6JWPWPtpPBOGY4+6+3oW4GWTsf1AEyaQ10o4iB8S5gL1qJ3kQz9MBgY9CwCTkcFPYmRCs6iwc6YJjgWSswqOqpnETAgXWHTQ2Z5RANnhxYaLUinveFwfef6CCP1MRhI4epic6GXhAc9luVv85S3KZTQeeuDskYTJwoI+Fh4SIEfoLMz4zJEyixn68Bs8izzy8JL4bAMLHQsLCzOLO4s8bYHOgodtLg17iZU6urDNYsQCQiIhgZMUsMvCAcQP2sAZAT6oG1l3E6YLiMPFRcQJJn5WUL3AtYS548ldzgw46zBhkkDoDx7oYKEmTtAYDx5A2R4WSeJO/ODhqoMJlr5woXYxdWFNPDqJJYs79xuxD46xQcIkMXGghB2SGffLuIVgwqT/SAD4S8w5wOHyJ/IccHE2xAJPn0DjTNlLjSRULr1nwqRt+Eu7OTgjPtimj/GFMYduxhGJijajgzL3vBkjyHAGij3GLAd1jG1uhzCO0E3y5coJvLSJgzvODKGTaMGTLLmHy4NB4Dwg4MDFWDPeOIvmniN+E2MOatDP1RLs0mYSM7q5asBBI/LEmjNFxjmXjmk7PBxEc+ZIMuVg1IeNOFBmDjMvmYO0j5h7dQn5SRLmrMb1IutxTuujdS7J8vdeHKgOCdPoLACkg7wky1EoixQTn52jVSa0iZHkyYLHDo6kyQRjgYffBc/FhEnBUSwLEwsJZwUkYvhIgExaeN2pg0c3yZWJjz9CFjNsktA40yCJM1m5BwM/viLP4kMChcYigxyJGrtMdO67sLhARwcLE23Xb2yyKHFvjntXLB4sYsgzgLGHXuQ5C+AyGO2z/SR6FihkubxsW2gHfpBsuWQInaTKWUXGghj5HmYOESdT4mZZRj8b0ISJX7TL8eClescBCTIPnqATI/izTepgDBArdsYFSSkTo2MB/hyL9KH9zX004spiTqwZfy96wbPLoo0MsowFFmn7lNiTWEkYLPrcs+SsEzpjAl30B/0KhI9+QY72sdiT8NWnHfBeuoWGLxyEoQ8eEhpjFb3sJB8SJzEiAVOnPfjEeCI5Mh4dK7SLthBP2splfQ4U8Jl2wsfYZAyCxwd42bnUik7GGvo5wMMf5ojxJalyCwE+5gXJjXYyBvENPDv6qdO/ynMQQqKFjn4OgpzfSaN9zCXGDH4ZFy/J5hie9xhPW4tQpr2sv27WSZh+6Wd4rcTobCF0YNpBXpJlMLO7kHC0yKRi0jJZSJoskuzUWSCYfO7IsVtXnzql14sp/IlThxB5eZh0lIEsHBzJQ2fx4NItR7ZekmXyo5czWiBy8INHlj3tUmZHF3zslJFjp4xd5LWbPlJmQWGHD/6UF6889o2RfvQlzHkPF8YCG5CnZGkf/tImY+JBFIsf/c/YYHdscICEnDLG0xgZR6BjQqhM8kKD11gaK2KqHJA4ikse7WWc5YWGLXZ1QJOOTdttH+pb2qCsLmS0RTl1ExdwylKW37FkXb66TcZCe8iJ0w/7jDryjDV26tkflJHFX+jwYtc2UganD/BqF6g9fLDNSVc246kODqZbCXPeY3zR9Lv+pl/gSJJXXH5JeeiH5LnK28Lfw6RDcvcMkyNYB7SQQc9RKYmTs0kuy3H2xdEx/K3J5IRjQuXuZILurh1pQGXE1frEw+fCAg5fSIycHXDUy4IADzR2yuhSvxBcLiTwuli4gLAIwUPdHb5sB3hx2k06NBczeLVf83IQhjcu5QAAIABJREFU0rqHOe9J45hgPHiGqb+0nbYQYxY7xwOX4RgPJErGie0yDrZfCN69brc8wJSnbKzkkY5flPErbSe/ZfjgYVceCD31qkec8taByCkrf+KQsZ50ZKmbINXh+EMu55R6tJ11ZMEjCz5p8hsfbMJPHZq+aV95oLKUkVPWOSBeWejK6UtLv3qhMVZMmIy77bo554TEgbJz8MofX16++iN+FWO11AmTAe/uxAImzoEvdHLIT10acpZbUFlh8igrDagfQvnlZeIysUmc8DvJ4VMPZfmVl1bDXAiUkcd66oBfuniheKC4FlzEhInPxgKfbQtl4yDO9iljHT535ZRtxSHt1Lqh2c/owDdjnzaUa9lLGe3XsqP869MtHqhecdQtJ10+YPqQyYj2KguP7U1Z6eqGj7JJT/vqhY5e8bUcNqD1zaPadsY0dZW+2nHQCX5ImFcfImSiBEOiBMdTsv/8vW+VM/f6kuzVkqvzu9AJ0w7KI5U8w3QCAdmZEOJIQmXfMfCl56TJ8prchPz1BFN/C5+6czKWs8wzP1YeHmLywpd60KVsi4b/ac/2y5vQhUaebHsfLnXrB7ziKZswnRL2mfV5QccEkDNMYslDM/qX8TTmQuMCb+62S/o0MPVQVhabdTl5ockjvuanjm/pX7YFuZqmDmDq1VbS5UkcMtZTXhyw9iH5ajst/+Bv4cGJB9KXQG0CtQXMevK08PilXfWqS9n0HRrPDAxnmNe8RuOcZi1m5zLs97/z9XIlb0iYRmcLIIshHZKbCZP7GAzwelI4GXLCUXZ3ctR86hLKp5z6WnJOMHnhQY+T03rqlhcIXr1C6SkrzYkOD7iaRz7t4Uf6Ir0lB066dsSpgyN+ZeuE6SQyoWXfbaSMPnf0pH6/9FMnTP02ljWUDsxYJn7asnrsf/s2bdgvySufOPjla/kAzf5Ahr5iHyejHXWiA9w0dtO3Wp969UO6+hMPzj11UhafsMVju5OmDXDu4tKfenzLo011stZwUFaP7RyPGxnbyyJbt5d4gAPylCwPT+VTstKWpX2T+LnwZ5h0Rm7UfeiHAc3gzoHvYHcisbi7y6eMPMoIxSsHrGWTN8vKigOKU1/ew0rdTu6UUbYF4TMGLRlwuaNDHyhrL/H6U+PSFjwuLvVDPxxtOpGy3zZadrIC6y0f+sFvd9tuXQiesrEAypuw5kl5+IyfMslPWR7lMrYtHPx9+NqWNpWxLcoLk09eacDEpX+JT37L6rWesuJqHvGjoDIt++CMA5A6dplPeZ9VWuqyjO30VbwwfQOHLp5/8Fuyjm2TQb0+1WNz1eo5D2078Nvf+HJ5s8DnGWi3MVqlGCxlwrz0hxeWJ+UY0Ax+BjULuEfL1PsmjbQamgDEO4GE4uGj7KQT34LySkOXE1J71tHnDl/KZD3xyLJYQK9tyVdDeNWHTH2WknTL8qNLO9hGlvs7TJKcIC4qs54oTtbUC46EydON+IOv+tjyP+ORdNuIrPL2jXzKypMQGnzItHSpQ5q66nrioanPsa0e+Tz4qvHShfpqvYbKA2taXa950Q1OX2v+aer6CazlkmZZu8wd/UIOeo5tcUD41J16Uh66/U/CrM8wHYvA7bTZXqDznHuYvFbC60dckpWHuJhUVyVGS5Ew7QCCz86X8XnakReqeRKWd7vYKWedd9fqXd5RsJaxrgz1VlmcUF+UTwgPdNrAazDQqPN+mnLw1DLqBq8OceOgMvJhR1stO+LwMWWVw1deKM9/K3ES2WeznCjoVK8QeyxmLGq8u6hvtFH/a2j7xdO+uo3iajyy2jB2tb6M1SS0Wo8y2GZssGsz/SH+9XhRdlpoLGrftZv69Elf4OmTT7ks13aSluXk0xchfNDxw10/jIs+wqtcS6d6kqYMY5x7mIw1rqA49mY5thdN17g2QicezndeK/n6V75wnYTZp6cPv2hxqP1Z6ISJs3YIZY5kGLA/vOj88oK/n7viCyV8KYV3GsFRHrXD09pHyYyitXQlrpaFBq7m0f8ar/wk+OSxrHxtUzqw5sm6fvHlGne+Wconyfi4AQlzszcnHOODv/fiXiqfQsMvfMR/fc22UK7bS/vYpVFmTKnH9hsv9Vqv9WlPunX1iwe2dEmv5ajjC23Uv1Hy6pkE1raUqfXLhx98rQg6OPzRJ2X7oDr66H14fQHKoy78oQweP6izw0u85G/B1IsO5OAD8uUkPlzhJdm+hMl4dExu9lyYtT3bMml7WJdZA37+s5+W9Zk5OW7Txji+RaMvbMI0oAQ/d/CcUfzg+9/uvvftr3Xnf/cb5QktntJir+vi4bUshNddHLDFm3R5xvG1fOHxay5ffP68s8rlzG989YvlkWx4uXGunZastFlA2512xrUHu8rRDur0Azf66Rf7yb6b12BXvxD7+IX/+qevk8QKGdvD5w65zExdXRkXcQknsVHzpHyrrP/El/tDPPHNd07x5YLzv1N8c7ykfG1nI/XUS1ldxpk/DeayJe+1QsNX4pbxUiblxU0D+3xRBzbZ7UcuD3JmCI54wUe8at/UC72miUM+bzs47uY1vhdZL213Y75T5zIsMeKyeH1JVt5VgQuXMB2MfdDA01k+YCJuq2H63PKFIzE2IPee+HTYFZf9cI2VNi3LRlvdbLcTyLr0WUH1JlQ3Y6Hv6F+ePmi/QOdLQHxrlA19i7BxQMDDVVwK/cmVV5RFCb+2arz46gDPEvBJOz79x38h0i/r7YNZxBn7xIQDaj73yGf0fnTFpWvxmtaG+hxvytd18asO63ZbJ+b50I/rAPGAZ5W2hUqYdkDCDHYGn05hcrLYAa0Dc4eWe9LSTuLXW9YffdIvBw56WWy4hMjCzP9ofvkLnyn+IsOuT/BSXq8vk8ilrYyRfksXpk581cfso3mV9SFh2sIX4548lNNvy+DZgPQJO5fdWGT5TukXP/vptW/kIiOvsVHPpLAlZ8xTh76Doz34RTLim658U5izOL/dC90N/rqtLZtpa5Jy+qh+4/zNr32p/BEAl0BZMOGFpl/qt03Ki69h2qppWZcPCB69lDmwIDbcSyNWXFbFL6+A6EfKpw77GJ3y2FZkpatHaB+sOqS9xjvbCo6zcz5FyaXZjKlxS/5lLi9UwiSQDsJRgU6eulx3xjh6zT+pD7Vcbcd68oFjQrPo8ZFp/mGEj0Dzb+UMOveU2ayy/gr77ErH10k3ZDa6aVfY0idtGnvwMsG55MaDItzP4r8p+eg8n/pim0Zfy68+3Dh/oZPEedqT+3D8NRkPougzfTAv30b5jF2SEGe8/KMK/zXJQ3g8rcy2Hp+Qce+zLV6+2g5+cYBBP/KnBvxDDQemLuD6lvKW1V3ztOp9uNSxiuWMFWXiCuSggsvzJEzWtxyX0FdpW7iEOUlwl6UT8FNfLXO5iH+U4C+VSJiPfuRDyxdqaLc8ykwSi83m0cecFJvlg7ZH2YNnGt/U+dUvfbZ805ekxP9D+vdbLAby9NmFvtFNG+oC0g4WIv4KjvGCX/w7CZdl5TMZWJ+1H7U+fGLjPjx/mUXCZKd88YXfX2Nfjz/TyMDrjlHKJHEePOHfSIwXZ5pcOiZO8jk+Un7N8Z6CMkmeRj7lVqFM202YHKRwD5NXuyhDW9VtKRNmdoaDtoby1Hjr0oHiJoEpV8smTV1ONCCLLx9d4BIWCzNHwBydc7+Fyb7RSa3NzYC2C1ubuY2yBw2/3PWrLx7wEXN2DmI4K+Eghn6hzL/ccPlcfeoZpzfplvugOrWBL5QZK4wJHkDiz8hJAPjFk5suTOm/cugbtWlvFNSXWpd+gecsjidKiRf/P0m8eCiJqyXQ4R1lYxxtkjbop5BL11/54nnlMrEHpPjF35pBc4PfePX5CW/to/JC6Ku6TdI248NYveySizoeYPQAc1xcJtE/TsdW0JcuYdpJ8wqW+oXj7PTx1XiOvH565Y/Kn9S6+LEAsvMHtr7PqD3knczipoHaB7a2pFuu+cTXOvrwtfxW1Fu+JS7bQpkJzpOVnLnRF5zFkaCA/DciZycuyOrJfhEnXG+blVe3ixBnSJzB4RuJibHDw2IXXfC94rv20kdx46A2hfBbFtY6SDScTfCfkfiFT/x5M4mT/17lhX98SV22SZ3AehtFq3nVrV7qXFLHL/6jkz8J98CHePH6E+9uu2HLeKmj5ZP82xFOGg/7jfdUecCKcWtMR8VtUv2jdGwFbakSpp2zbMHWX74kwhGviVLI5T8mNUdpbk5oZcVPCo3VpPyrzmc86nhyRsTffrGweiBDEiBhchWAd/C4zEd/sNXyG4mbPqUO7YDDtn6QACgzZrjPytOpPpkK7ySLVNoZVW75JY4DP/5M23GsT/hFvPhD6ssvvXim/ozzFfqPf3RZ95KDX1D6kFiZMIEkUL5zSrKvt1n2Z617O9SJH1dCOOjkI/WMjxyLqxbfpUmYTljhsgxGBg9HXWxHH3VEOSp3Qnv/h4Xm/vffszvvnH9cG2xM7o20VVngsF37zMmkRIx5sIczIxZVLo/bNyZQzuY4y7QPZxHP7JvURxnf8ItEfujBB5YkhF+MFX2jzkcaeHjMJCCcRV/rn7r0SUhiIl76xPjVN86IefJ7Vveyal/0SYhP7CzYHEjw5Dl+kcD1ieTOq0JX/fTKIlbHXF0DHB8BYwck7vYP77Py7ivJUxza5B+veTk4hoQ5x37y8gQDi68T8TACk5gFxrNLyuws0EcdeViZ1C4C07rmQE04rY7twG98uYzHi/ec4Zd+uPfua2eanm3yxCx/QE5Coj9bC8Cs4o1f2MAWR+t7P/phxR8TE2MHv0hWHGCddPwby6VI5EyY+jKrfkQf+kmAJHEWRpJ18WOP3Upywj93fOPpWfj1qfZFH4U1fdI68sbrXe9427WSuAkTv+hbfOZjIfR5+jWtD9PyT9qWefPNwu/UQZlxAaQPeH2Hp2RNmLYH+iptC5Mw7Yy+AI+jL2KnMDFZONh47J6jbx74YWchBnL/ksuxwCc8/rFl4DGpGYxstrtUxvzIK5S9roufFUT/Mm36e9VPftw9/zlPL4mJp5X95ByJirMV6wc+75lrzVN2DRF9tNE4I0+/8zGLQw56fnmC2vFBgmS88Kk2fcV37ovzKL9+bdQH2qUOdeITiyKXWvGLcYwf7PhEQiJW+MW7j898+pMKv2M4Y1Xr10bNM2kdee6dvfylLy73nPEHPzgI4mwTv5hf7G947au6r335c2VRV79ttT4KyiscxbtINP1NuB7/kM8+pSyOhMllb8ZibtBXaVuIhJkdabkV5FG0Fn8Lp45RsCU3Ca6lEznwDC4SIQmUJy85GuMSLAMMPBAaC1PqQc6BOcqHlLEsv3XgrLbUmeVZ6Z+lnvQvy8SVeBN7jozZee2Hy3v0hf1S9wm+pZ66PKnvtZx17OkPkAcq+PsqXsinjr+OF2RyU0fipikj75hz3KWNjBcvqXO5mrNK7vOmzxwsppx+teA0/tW86MMWfjm/iA1POPN0bN2PeXaJrtqfWr/1ms+69GnhRuWnsaethNPIy4s8Y8LN8UG/c3uA/w0l3rkhs0rbQiRMApqd2RdkeebRAbPQrY70nzIDy0lNmQHGZb4vnHf22qIi3zzaNg+d2da6PA9789CJ30xwJz4JgLMVvqrDxiJcL/zg6/ZSX89W61E3NvUL30gAJEyO4pEBh2/ss9z0R511u6gbE3goc9bJPVU+WgBd31uy4Ny1MSuIXfuRMgc+HJhqD1+la7P2UXwfVJewj29V8bZbaDsdo/N6CE07iwAXLmGOCkrdUaN4t4LW8g8cA8oJjV8shiRMPr+22Zs+Aje6pa4sb1TvLOT1Z5QueOgXIBv9QsLk03hs9pl0cOpNXGFex0/qSn3YZYGXjl8kTD4/xsZ4cl+H2aaIttKPmhGaMdEPLh9zn5DFUp8yprWOedTr+YWffPCBj6frp75txP4kMdqI/kWXtf21n+B5oIoPVxDnVd4WJmGOC7KdBVykLf2ynP6Bc0LrOwsg712aMJVrQSe6sMUjrraTfliWN6G09cDUk+X16GrJqLOmiReOote0uo4ONhZ6Xk942lP2X6sTU+nArNd6pq23fNdG2iF58rGCOmHq17R2W/wtX/r48I0NyAEG9wn9hqh6Zulbyw9x+EC/ZZKmzP1KHopio57xVLaG+l7jh/o1Ech+NaZAHgbjP2lZ21Z5W5qESScs4oDWpxxIOWCkJ44J7CVZ8Ay43NUFFK+eURC9XnrKeKVM+tGHT55JyqmH8mZs4+ysxyfix2smmTBrO3V91m3V79RrwuSsiY0x0eJLmc0o48fPrvpJSU7cP9yKrRUL+vGIww7pXvOqw0uc5Bnln/EUjuLdrrQ6NsaV8cmnEt976snXSZjIrNK2dAmzFXw7cis6R9stv8A5qCjrH0dhDK7PnnvG2oSGr7Uz+Vv4Ppz8DGJ9k1f7+iq9xkufJdwMG+lvti3LyVOXiRMJk6dP2agTz9zm3Q5s6q92vSTLogRNHumzhrV99IsDuukLyRKf6k2ZGj/LOnbreNBnvCt65OGHNv1u2ddXYYtnu+Pq2Fgn3txf539Rud/uBr01LqQvI1z6hGmnCRetE5zM6R8P/XBJln+e4DIGO0+YcdkNuN4dPejgvzZ577OVNDM++gRc1Y225aKabU087YfGvTj+HUQ5D0CMT8qLU7auw9vHn7xZ1ifHDTQTJpdkxU+idz32lRHqG3V9o8zG+OLp2Je95EVloSRW0qDXOtTVgvIKWzwtXPqkbfzAJ74PrD7jhg5x6rOeUNoAr4kA8TGOWSbeHMz5byUZR/hXaVuphFl3DB23iBsDjMXvQ+87pXwdg5euGWx8KYMzTyHlSfbkR+erXvGy7sMfeFdZ0Gy/g9j6VsKN9Mt6ZG17LVvjqfNyPv9cwlbz9+FmGUsXpNRJYvIepj4nvYVL+jRldQlTtsbhK/d8eUqWs0zGdfpf86euuiyvsKb31bWHnBu44998TPf2tx13nSQPT23DulA9A7xuBIwzkP4W8loJB+r1PUz5r6tpOTFLkzAJfCv44Jw02QXyt2SSr1Xuk1FnSwacdGELh6/iS2EOP/xrBEk0By8+abtlMn2u6dCm3fr0iZ+Hzml8TD/0BcgZE9+W7dvk7aNvFN/SnwmzpR8Z9xZ9Wtykulgwr7j8kvL1qvqyLDqcl5THbdoUjuOXnrotA5kD//T5c9fiIg05yq16jdfGdoQZn1b7M1aMT/5yjgd/KI+TbelbFtxKJMzsPAMvrq/zRuGVVZewD1/T5ROycOTiQZnFxl16zZP4UeXUgy98EMHPuVHXD/go15v0Fk35Wsb6KBn1yquuFl6ePn0pK69wlD55hPICM97QwfHlnKc/9YDCLl1ZebI+6zI+1NskCbPla61nknrGZxw/44n3MPlwAU/J5taKb9LrctptxaDmt96SIxZcJfjm1760NvZrndZb8urertCYtNovLePHgTlfzeLfYvrWGHQp09K7LLilSZgG1A6zvh6IjlktMNpXp/VxcJLBM4mP2k1eHiYiYdY2kmecf5PSaxuTyvXxoW8eOvvs1XgmPh9jZyNe7LkZw1n7qI1W+0clTPkTqms9MPVQHrVB55IsCZMzzJpfXaN0SJNXKH4UhNc+ouwG7vCXHVy+aQt+3CKuTaF6hKlb3CRw1vomsTlPnro91I3/d7/11XKLKa9q4ct6YzfPdmxE91IlTDssoZ0iLutZlg7MRc8OF9eSkSd1TFNGJ1vq2YEqA0qf9EHd8FhuwdQnHRnOMHmoiIeLxAtH6USfi4v8QGW0V/uZvFlWrtaRPHW5GIuni2s6dXysfVCu5hcvlG5brEMHx6UlzzCxYzyUr+0iP+02Sib9Ua8J0xfx5UkIb9Ytq6MPyjcNVBex4Ws6rXtX8oyDLbvjZKAr19ePPCXLvwPBJ39Lr3oSJp/4xLXKyWdZWPOLB27WNgub6KjHP/6Dz2/Jasu+2aw2boadpUmYdoJBqTsj6X1lZaCzAcUJE+9iCV+W4a1l0y/1i1OnOhIvDZl6b9FSVp+Vo872mU9/qpxh+oi3dGWp2wZp4vSROmX5kJUn7db41AcNXvTIp37r6leuMFYHF9qVRx3U9VE5eYQtfMu2fHyx5HWvObJU63Yqp27gerZRcupOvSRMvvTDUTybPMLkFQecdEuZuqyOxIsjPiTMc8/+5HUeMJNnUtjSP4ms4yd5wZEwefhtUr2T8qWdScrorTdt1fhFr+O38c4yc5B3hHl4kTXHNsuz6O2axr+lSJgE3t3G0XF2Hrik12VlwCunjHWhvNRZqNxcpKlDU1cu2OCyrixQfnHUcxcvL7Qsy5t8+gyNMrbZTJicYbqlPnmBualHHPrYU1aeGq8vyMKjjLbUmTbVpWwtl7yUpdtO6vRR8rV0Yhse5JJXnYnjG6T80bcy6Mutridt0vIoHdBqugmTo3i2Fo+2R9Hk6YPKJpS3D8clbP63s2+sITfppo1J+eFrydCfhx16UPm7POj1GGnpb+lp8c0Ch631bhuRXa9N5eoYOZ+4DEvCrB80RG4r/dXvWcKFT5h2EtCFEsg9EzqKycBkdQdPGTx8NQ9HQOxMKnZ44XFXljp81IHaEy+NOnaclOCTBh07+kK9teu39tBRy+grttyRY9cmMjwhyOsovFNIXZ3IYBvetAddPsryw5cySUMeGm3TF+jZNnTWtqjDAw2oTiH6lAGqU7o6ockHDby+ygsUZ7u1CR66dcq0iYTJJwsZb/CgdzMnveM9Jzl+eIZJfFo8yb+RsrpbbZamfmLDt2T5g2Zi56YsvuqvtM2A2Dzl5OPLq1X4QvzAjdv0exzfVtHr+G+GH9pMqF1xzCG+I8uVBsrg3bIsbpnhUiRMA+zk4x4d/1e47z6PKk/C8Tc+T9z/cWXi8j94/Nckl2N4eZ//oXzgA+9baLwvRpl7G7w+wKez+J9B/sMPGf4zj78F4qEZ9KGLxYD/+4PnIx96T/mLJR4oQA945Plj6Hee9Nbu7E/9Q9HB//CBR/65z35a+ScHFjz+p48/3oWG3he94NnlUeyXHvLC8n+YPDyBH9DBkRAOOvA55X/9sA+e//vjpWzONvhvQvT4L/P4wdkR/uOb/kFHjicH8XO/fR9T7GAPHw/Yf9/yl1Zve8sbii58RC87NrBFm/GBGCJD+3kxnKdK8Yc6dqA9+EH3K++VEn/aKB69xIAPLHAWvM9jH1n4aRe+0KfnnPXxEkf4sI8MMeE/FvkvQz7qAB86kTFWPHxyzNGvLHGEhgxtxkfeecUP/LddyNHXl11yUfkUHrHCd9vsmHNRsD4LOGoRadFMmPnhgln40adjVJvTv5Iw47USaULm6ySJqs+PafHawj4JnCd3iR11fZpW5yLxr7cdm9F24sxBp2v0IsVtlr4sVcKkU0giLKokOxY7/laIBzU40r3wB99d23k/jAnDgs7jzrxYe9EF3ys7NPQgB46jI3c+Js3/D6IPGnLIX3LxD0qS5cV2eKBhj6RwycUXlK/1I1fb4v8COer6xc+vKjqQgYedR/I5C+RzbOiBhh3K2MdHfNVHbULTD3jVhyx2SJhvPObVJQmqF1nuN9FmbYBDljhCI1bEQX3I0lZ8hCd9hwddtA0eeNVHPDggwUfk4IXGTjy4Twidsnh0UyaGtIGyvtMHxIqzP+TgBacMMWKyEkf8B89OGRxjhJhRR6/+0N70ERlo+MzmAjXLBWecTuk5yTNhtujJu5llFkfi64cLXCyN12b7asIEckD2lS+et5Yo9WnS+EzLn3o3Ipt6ZlG2D2bpkzrxzzIHrHztxzNM8bO0O4t4bFTHwiXMDHSW7Rw65NNnfLQ77tjXlrZzlMsEyR05FhlpQngos8NDPW1IF8qrPDqh5a4eccpQh0adTToQHLRan74kT8opoz/qkV99JEzuJ5Bw9SF5U6ey+KheccpaT7o66raJV1afWrL6BK878pQTKgsefUBx8FFmU04fhDUefuXRZ1n+FkTHqL04MOKnT7YWwba80hjzXKHgKdmaJs9WQHwlYT7mUXuVg1N9A89Gfd6bNoHapT+5wvSm17+m+ABeWu2P8olXFzKU2eRTV43vo6tXunWhePWlLWnyJpQ2K5i69aHG1XhtMz4Zm3xlrE6YfXFv6V4G3MIkTIM/DhJU7tG948S3lPjC37etl9anbxx+lL1xsi36evVxyZrBy8KR23r1pY6tLm9mG7DV2jcSg9TX0uMine00YfqUbEtuXrj0o7aBr1x9ePc7TywHZzV9M+qZwPSVcc9TskcdedhawpRW+wS+plG3H5Jf3pq/5mnJwtOSmwTXZzdlkyfxo+wau/Tfcq2jhdcmB5089MM4YKzmho1V2hYiYRr4FiTYiacDuATIJTlpnsXI1+ogaG6U+wa1PMI+nTU+dUpLqD7sMqGhjdqgy9fSk7LJC94v/Th4bav6atmsW27518KpG7k+P/UP3taWemsedSonb41Pujzgaj7r8iRs2U4dKaucdieF6qj5xeMDu3Ugl5s5w/Qp2Vp2s+v4xIafXNLmigY+ioeW/s/TP3xgXBszbFHnvrp/75V+1b7oZ+JrXF1P3rosL7DexAlretZTT5bhqevKjcLLI4SXmLG3NnUlrcZZN2HyPezWOEgdy17e8oRp0GvYF1g6+J+/963uC+edXViomwjQ4SCgzNbCpe7arnX1CMULE68+aUDpwMSPK6tLOE6XfNqj7ocLvCQrTV/g0Q9p1tNe4sQnTtvqU1fakZZyWU6ZllzSlatx6Yc0eZNGWbqw5su6ZaD8uTgnfdKyemp+8eq3DqQf8+PrdZuynnoTP48yvnH/mAeoSJzOQ23pi/V5QHwwZuqnTsLk772k44sbuNzFwyO/OCF4ddgu6/DoQ/KBV6cySRcnDzRl0OeeMpPYkl9YlMac1662st7HKw9QOfWD44E0nszPS7LyqXMV4JYnTIMcaXI+AAAgAElEQVRad0hfcOkkkiWn/2wOKuWh25HqrnGpW7kaKiOUPkqnPEDlgOKzLE591oG5UW/pqvnlQdaEydEemzTtg1NenPW0l7gWviivdGkLfu2IG2VLHuVS1sVIf+RVn34oI1/qkpayygtTz1aV9T3tcwRPwtys/8NM26PK9AsPSN3znruWhGkcjXurLaP0rYeGTdcAymzUeRr89A++u9RrP/RvPfbWI9Nnrw8/zobtHMc3DT1jlOXUIV4oDX8YB6w7XtWStmpwIRLmqKBm51AmCfD6Bv8lyeaEkY86Zbc+vHSgPH1yLZ3iWjLgoLvLk3hx+kE999qvpKWsZW0hxxOCfhov9ehz4tQLjs168ooXJ8/VEteW0Q/9gkec8uqDR5o6lbOe9D45/Ui68n1QvUATsjhkKAu95J/0Wq+0SWEtbx1fsKdN8LwiwSVZEib69RfaZm76qE38yI+v609Cy8rMGqIfP9zRT4y4CsUT0dCNJ2XjJz8QXOqxLq865QWmTvHwu6NP2ySRmkcdacs+T5z6xMGjPtuTcvCxtfSnLsvoQB+7NoRFUfzYpoSQqfvUO3bFgV+1bWkSJp3oIMinZOkUO7+vozfSaQ6OaXUoVw8a8dPqG8ePXtrPZsJkIuU2TXxqv1PPtGXb3NIprdYpXtii17i+ujqAuVHPmFDm0iKvl/DKC6+h+CqKZSGL8bjd11v6+NDFqzPstV7qyPEKEIs/l7s8w6QNtinbM+9ybZN4lY+v77Hb2kM/xnSzfNQnoBt+ccDIg4G84kR8OQPiwIOdV4zoG+ILpM6rRzzx6+tH9gvtI5nwChI4ZIDo5XI0r67BA84+ZOzAz6X0pCnrq1PYUu5qnVe/FsbrU/S7+qBhCx95JQvb6IIOjWc6GLdX066Rg4c2sQ5AUx8QHbwWhv/EBv3EjQ2Y8TSuwMTLR3zwo/5EYsqtSnkpEqbBpoM4wzzzE6eX9wzBg7PjqGeHKrcRuBF9G5Gd1mdsEQe2voQJz2b6lG3YKrv4YLtrH6gbM/lYfHbZZedyX46PGfgRBD6E4EcPEkJf746eWi+6xPN+Ix9n0AeeRKz9rduUMZ912Tiql4WSRZ8PRHi/PHmyrMxmQA6seUKWD1X4cY4nHbBfuc/GfzbywRPwxJ4PY/CRks+fd1Z5FWXvRz+svFdKH0Djn2t4R5kHiPiwBXLq5GMa3Lvjox5+fGP33e9VPl5y0vFvLDE5+EXPK3ZyLHGFjIN+PmqCD35ghA+K8FGPj5723vLxD3QxBuj/x++3d/l/T/4U+7F7P2LNB3zhM4A8BMlVNz++gQw+8V1kkinxAMdHRdDJxz/g/8ZXv9gRGz6QQn+69Y2rxDMW2ZEjrq1P46lvVeBCJEwnVnaGAU4cZY6W+GNY/r6KjcmRi4hy2w0aQ9rtPcz6DDNjuR3jU7c5YwaNccQZwZOfuF9h5eibnWTA7hlKDeXrgzV/1lt6tadtFiQWvXwCUd9rWLdxI/Vat3V1Ei9eKznnzI+VRRN6bvInTPq8ytgrffHb35R+I37s+MucII72lbEGxy4vfQQNnHLgkINHXvQpow51IiefstaRY0efttADjjVNG/KjUzo45Ii9/nj1TTtA/YKGDLu+AeHBR95X5UtY8Ln19Rl4N2Sp4zNPcPt6Ucomv3LLDLc8YY4LbgbcMkd8XDO3vswdMCvfjSP6eMyfAwoG8rBNFwEuYT3jaU8sQiwILgrGtx5z1OWreaexrP4+GXVDl7dlu09+Pfi0k2V14RNzkcvFLMZu8LKlTJblmwfETvYH5XqrfbEun3X1JL6Fgz836vCpR1qr3sdXy/TZUB5+7YoTJs1y6uOrYC98/rOKz9CVq/1VFsimDvi5XcC/lZiE1QFcpW3LE6aBb3WONAMODx3AtXeuu0u34+TbjtDY0HYTJkeYuQ1xymhcUzYuQM4w/T9M8ddwtkuT8rWl14fFJjvzwX3WfmijhnqMXe6NPedZTy1nOtTlhSfLyswbpk3K+JRb0sW3cNJqWPPa5uSTBzhua/HUPvfp0E5NV6f0hPImjwnTM8zkl0+5hPJxYM5HNfy6WMZklHzqWpbyQiRMgmXw68Alno5g50s/PDbORifbQclb61nlOu02NrSTS7KcYXrUD51NaCyMV42Xvuqwbj8x5B6mCdNxtVlxaPWDPuqD9T4o30Zh7UvaUzfx4WER7sFxadB4KSuUf7OgdoGsD9axr4/pC/TkgVbX5a/xLdmW/Kz5WjbSR/0E9rVZPPdUuUqwnoSJDg7MedCJ1/0oa3uUj/q6bHBhEmZf4OgQOxbI0Qw3zN/yptcVEQdiwj5dLXzKZbnF28KlDOXN3rTvgQP2WwlTvvRPnDBpdVmeGtZ8y1TPtuA39UyYGdPkHVWepv19evp0wO9cULaPdyP4Pt3igWzEh9dKeHCFS3G5yZu4eZbTnuWELdt99MRTZmvhUmcfXXyuY8pJA7a2pFuGz7IwZcUJk2Y5aZS9vyndMWZ9EqiOUbJpdxKdi8iz8Akzg0yZI5j6PUw7KXknCbb8LTiJPDy17KRys+LTvhMSva2Eqa9pV1lh0lpl+YQtnmXE0R42IAnTe5iZMKXbdmU20t7UleVROiflG6VjFC31U85NmjjGHPHiaVLvXSVPLa/cPGBtSz9qfG27RU9Z6S1c6uqji3d+qk/Zui4eqGzCxCev5ZpXfA3hc9087f2nlidmGe9sqYNy3yYfcrye48NfyT9KPvmWpbwwCXPSwNI5dMwJx72+xNhOX0/A7fBJbffZmJWePv2T4PUB3r57mC09KdeibyccseAeJq8LsLXGFjyrujkW+mDdbubiz676SXfowQeWhFnHRj213Hav13GaNB6zjKc+AHn15PnPefpEl2SVw2fmh5BXnnjoh6dvc97IM2kbF51vqRKmA4Zr5ae+/YQS2+zAaYOtvo3owOas9Ezjf8tncUPCnCaS1/ASvzphXkO9umSMa/yy12nXuL1uI4shr7vwDmPriexR+mpdW11PXyf1BZlxW4tHW+Nka/oouZadWr6vzkM/vIfpGaYJr2VPnBCd8PPQD6+VcC8bPeDc++wuI34pEqadA2TjlRJemBafgW/hkp5ledWbtGnKqWcSXZPwjLKf9uQTR91Lsj4lqz2hMgO8OgLGBUjC9JKsC4dxgp67+FlDbcxa7yh92hwFa3niw1dpOHh1rMGDDmFLX61nEerp56T+2M5R/C0ebY2Sa9FGyY2i9ekyoR37uqOu9R6muoQpD87NxMjBEu9h5r+VKJv8yi0zXPiEmQG3zJ+Vch+TjU5f7zarTk09WcavrI8q120YxQvNxVw+Bz96TJj5lGzKpC3lEzfPsvaAo7bkm7Zc61W+D68vxLDvHiY8xriOvfK1/lZdX6aBLT2zxvX5k3bkEceCyStefD0mH/qBj63mV24RYZ+v4m3TLHyfpS79ST8n0Q8PiQ548glvKv8fmlcJUp82aggPc4GzSr549OEPvKt5paGWW+b6wiTMviDSKW6USQLcwzzxrccWtIuXPNPASQbFKH0pP01Zn6eRqXnR4Q6NxYudzYTJ/QRo8mnXNtU6wbdw8vdBZcbR5dss2GoPtsVnXMBRr5+SJabIJK/lVjuK8p6fml89o2DK9KidKTrtUc5Nmjhiw5UePrnGoulGe9hqfunLBG1DHYtFa0P6aXmUj/CYMPnUKPcf7bdRcjUNPazJvFbyxc9+em0NqvlWpb4UCZNOYQP6lKyvldDJ0tfTKeuRRWY9cuvxr0+mtk/dAc+3ZPO7jvpby/Tp3i74Oi7UM2EST2Na8846RtPoh3deW/rRspM4YkO8+OYp9zKpK49/WZ6Xv/PWaxuy3fO2uV796WvLX3HJR5/xEZgLzv9O6T/q9mOfH8pLh58vPvmh90l0KLtscOETZnYeHcVR0Vmf/Eh33LGvLbG2cwy8g8L6eqGDoqUPnHZb9PXa3IicPqHDj697xqmPwo3YWUVZ4wKs72H+P/buO1q77yroPQ7LAO8Q4eodAxGUkkaAhN5rKiGEFmoSSH7pCQmhh5IAgRQSIFTBgggqcq8VEYfkypUoggpItVAuJYCoAWwQ/j13fLbv99z5W9nPc563n/fnu8fYZ641+5pr7Tn33s/e+7T+4rnd488PsDaf6gev1c/kg8f0bFeYv/nr28fiFcyuxo/J3Ik0sbjTtzmfs21c/m+ofGqt246NN9kJ5WT/XcV/K3FBU26802O25/8dUzCbIJPj98v5WkkTbYAluL3BnoLLzgrJwrXxw569+KPXX+FF9PhbdEH4tngmjA9Pt2QrmPkYxJNscvVPhek6lX/ly25wj77i9vrFJLjHs+Iaf2MAbeLlLLnXSvTt+Rg/fW2r7mP9qad2/LOf7gnxxQNfP570TBjtauCU1z62iY1bsv7Lxn25YB6LwZ1Ca175q91a0vZfS77sRS886XZqa4L8PDb8htk3hdHiu1Pic6qfl6ZgHgow/NxNxk//xL/c/g1Okz8He2iy0jF5D7XjnXDVq7+XUOHnHs/NhhVwPvt04N//O9+9vRPVGNjHA+bfzfbpkP4Zu3j2fAo3YfzBSdMOv8LJt9L0xcnZ8fz4uv48Y07/1FV71Rk+mZVeP776wfBB/qHpt8HpN8crjO9q4dSzJ4tuY9vv5I5HcZpbOibubvv2RWDOh/ZcV14rmf+tpPnl7WzPPvnWI+jj63sFc5W/fRG4MZYvRcEU1FMDK+l7Is8/YU0m2ITO/sSt+FNCSGbu6ZMgJIsSaoluwhbVxF1Pu4K3p8MP73absz3/Ao1/ePkIrvL67Xs6j+FWXcd4D9GyfUhXB3XwkJ49/EW6Vzob4vQ7v/WftwcgxFHffsi/PbuHcKu9Y3yr3XyDN8fWI/m97VrW+J6eU3B8+G//9Xe2K5TW3ilyd3lufQTKYVnWt67A9T3M1tAqkyyIZv5Ba/vQhwvSNWXv5PalKpinBNck/Zuf/vGzf/yPvmeLe8m0SaBj6qkfjO9aIFs2ietnfvJHt6tcfvRPX/3j13a413zf391oe3R88Kfu6Q1OuXBBn7ryiDee6cMhmYk/tc3W1fDu8efvHo3u8MfGsOdDev/h3/9b5zomX/Rgtur7TUc7fHrCTV2ntNMbnDLr2PCwx4fs4seH5nciW8lq69ymP44HD/34Z8vdki0Jc2keh7fJxbtmr0RgzX/6zZUnZL/2VS87PwkLv8rMYEYDFUz/wNoalRuj4de+L22XomBeTUCdyfr4+vwNc05Kk301Ok/lpdvWGZXXW/hi97uqh5Ha9cNrH9rxRzuFP94J00GeT2geFYeHO6R39fUQ37R1I9rZyf70f+o3lkMxnnxzrOHTXX/GYaXhCZcvcPmZjsl3iD55Z3vqTTafgvD50ZimHD5fcbJdpoL58R//MQf/W8k8NjfH7/65pRGoeAWn8XKlJ2R/8sd+5Ly4XbS2Vl30+ETir/7yz58X3ZVn2r2T25e+YM7AazuDkUT8l3Bbk66NPvs3emLotimYrnJL6CX1kl2JMnwJcQ+WPNO1x7PiVt504IuWD5M26emMnhwY7WphOpLLB/1oQbjo04dkV5nwycy+4pKO8BNmE4SfOlacOZyya3vKrrR0X4Sf/qztdGQnmM7LdIUpsW7/3utxj71bMG90srkB+sqd4LrNXOnnLbfWJy6Z4Cq/9l3I/O7/+O9b/kU7VW7Vc9n7d0zBbDIrmJ7ssiliFcnZvhmBlyBsCqZbspLrTLgVzGBJbg+WCIOTZw836bXxZWvK5JNC0pXKpJOvD6ZvxU+eY+0pX3v1a89OPGD01U76widTH2yMK2/9CfFnb+pI76RNOe1k4wm36pn9vfbUW8EMt/LnF7xx4m8N3u6k5HhwS/YTPuFjt4KZPxPW3py+++eWRkDsD8VfriyfeVjnG179yvM+J5M9JD95FMtf/Lmf3X4mW2/J3tIB3wJjl75grjGoYM73MJv4lfdG9y0y2yyYa9JcE5/+D732Nf9zX65wSo6rjvBg+lae+hKqdkWSTEl46tE+lOg3eT7+4Pef80z+9MzkHQ4knz+1481mMPqUj3fFzUI4xzd1wefDFucrYyCbrSC+1dZePz+KI/nsx7/hXvua83GHD05b4YKb3tbElbjTl934wHBgY2oNHktmN3rt7+lzHHhIqv9WsvKUdFf83f6tj8A6F3KZ+QNdfHz5i7/wpILZmgPl3aBvyc6PpTTC+Ovf6fDSFMxTA4vPY+x+YDbZ9otk0duvdsKmbrZsa8FcE1tJrkRdgpxJMR4wvpU+8ZNWey+x7tHyL4indn7AJQuX7uj6FbCVFg+Yjj1+uMmTXPomPRx9Fat0k+PLqgt98sz2akufjcaUrnyon85VV/j0JJffhyD+OZ5tbYwTqVUOf/utLpgdM8H12IH3STy/XXVsrDx3+5cjAusc6pc7fXz9S77wc88LZrzBRlA/2IUKOJ+SnfzZCHenw9teMAt+8FhA43G/3RdZ6p8icwrvnh5ybbUrmCXtkqXEBjf3SUMvIZYEZ+INdypMdtqQgPX/yWv+wbmtbPIr3iAd2sGSOdzKP/uHfKQHjXw2pq58xjPb8aQ3+R/4/u/dxvJ//8O/t8F080U7n+onv+pOXzA+cUo236PhrY2nmOKbtHQGk9HPv0lrjtCmn1Nu8udX/NZjZ/fr2qx/I2DHzIRTLx/8t5Jv+cavvdf/w+w4mbx327c3As1hXuhXzDwP8qIv+rzzghn+mMyUr2D69159vzrZdGX3Toe3vWAKYMG9KJhN0s/+1I+dv1aieF20pR+82m3K1F4LZlcJkpzXTCR3rwJ4LcCVsD48esmv5FjCnAlytuObMD3dgkQrodMnsSs0cMlNnXj0o+HjHzk0euOZfPiN1YMnFVZ89nShJQvGV7JP99onny2QL16j+Kvf/ufPvuPbvuXsr3/HX9pelcGHZhdXerRBYyabzfxKb306tOtHbwzZr1jTr11M6Y9HO9/5AA9nnNPOtKHdOqEb3yazPHB1jr8yH/Tjs62JqLV5tev7EP+ePriJ54PfMB+3PPQDf3e7XBFY505foTNXjq2vetmXb+28jn/ON9rsa7cO+28lfjKb2+Sf+Du1fSkKpuAdCix8u8lRrCSN9ePr8Vyk52omiq558Kd7LZgSryQowX/Xd37b5pv/Yv71X/tVZ9/4da/anuiV9L/nb/+N86RewiYnEZZsZ/Jd8SVg4yfX7pbKp37KJ2zvwz3uoz7y7KM/+qPOnv2sp24FO55pZ9rS9t7mc579tO0/wEz+KRM+n0rw8YD8i64QRMveXj85sMInNorht//Fb97+N+WjH/2osw9/2IefGSeaYuMhBf9W6tVf/fItpt47fdYz7zl7wfOffX5ywm466c/WGuP6+Uy/kx3/F9MrE94zvOcpT9xs4uGD//33ws//rG3O8U/d9KUzmB+g33pe+fKXbP9SiWw89OZnMUtXcw7a5ro8dvxczXqPt2OpfjB8x4GE68PdCub6773iTfYuvLURKP4VtNV6cwj+5m+87vzj6/pTJr5Vfvbxe9LWyZM1cZEM+tynrsvevjQF81CgCiy6iXEGI4nMp2SboMm76otnxR/rk2GzLR0Kpt9RJTdJjj8SvKKoUErmiuXXvPKlW0LXhlMA/t7f/K6tqJQIZ2KUDCVU+17iZKsdnSwZtiVwRe/d3v3dz776q75y+zQePWh4u0LShydHF/x3/7VvP/vAD/6gzV8JPB/wTFl4MuyC+aCf/rV4xI+XbXQ446eP7JSHnzhX6orgwx/x8G3O6XHV/oynPfnsbf/M25494VM/cfsHxl/3Na84e/u3f/uz93yv99o+0YWPfpBN/uUL/cVaG199bfPkX1bZ/8Zf/ctbLH1qkA78fLT+PvIjP2KjOVGCoyP/2cVLJl/yxzpR3PluLGTwtOcTWLuYsWFbE1Nrs7V6PZCuQ/omng++JSsOfsvsWJk81+PHXdlrj0BzGFw1TfxP/OgPb8fI3vwdm8t0yIdeL/KqnfYxmfxItv6dAu+IglkwBVnBlDQkHZuDtu3YJJwyiekJkmkRwaVjFky+SGoS6jd/w9dsBVLR9LuOq0u7ftA/a5XAyUiUioh7/8bj1kg0ybMEr423pFmf7XAKy2c+71ln7/Ge77kl/JK7JO02KRkfZW8n1y1dj5V/wAd94Oa/F+N9i5buxsZXuB/9kX+67SV4+E3PFV66/acUtuzobLDvf+XZ0eHt+fivfuS1m34QLxq/0Y3rs1/w3LNHPeqRW5FCc/X31HuedPbgBz94+9dSrjw/6zOfc+bq+v3e//23q3w+4uUz3/lWHOjV5lvjBdm0m68HPuhBZ5/xnGec+0iX3Xjx+n+srqzoSk828Wkbj51tfTve//Ov/5Wz5z7n6Wef9qRP3vpbvF/7mk0XfXwgJ17gnAdt63BNTK3N1u71QLoO6Zt4x55v7263ZN/we9uxuRby6/HjruzNi4C8Zq5Ad8Wc3O/l0jnfvKkPJg/vtRLHpXU5t/gn7k5u31EFs0mWdJ3522ZB0z80QYfwxyaPzNRfu4IpMSoM/damKLrSsT/xCZ+4XRVJJh679+kpV5m+26hAllQVBIXW7VrF1K3FiqAEmw1t+Gjs1gddqbgSe+/3eZ/tK0jJSrDPesY9Z495zKPPPuIjHr0Vnoe+27tttwTZclvR7c63fus/tRXbhz38YWcf9djHbAcQ2z7R5pHzRz36kWdoeH2oGV5xV6zcsvyCz3vBRneF98mf9PHbCcS8UlPwHvGIh5897GEP277VSrexv/QlL9puIX/Yh3/YRhM3sTA+hcO4FEyyYgdPTsFkx21Z/nzIh37odiucfxKAg9fY2M1v/7fRlTgdiqFxuorkkxONxmVMH/phH3bmVrA5cwtVISNn3blN+z7v+75n7/iO77jFg01+84/PxUzMjYsua0O8+ET2we/8zmf3v//9N99cPX/e5zx/K4xuj3tiUfGn95GPfMR2UsAu3ebaOlwLZuv4WtZ5sh0/dLRPWvRwEqaHfszz+rBHPHfh5YjAOp/61hFovX/xCz/nvGCGPyaTvNFpe61EXnNrPrl4wPvKdkcVzAL/a7/6i2c/9eP/4o3m4GZMUDYZq2BKFG7JSvp2Sc6iUyglWAXwZV/x4rOP+7iPPvuiL/jsLVmi+b3N1YvP+pX8JH84idADLhZd3xFV0CRpxa+9Igk/aa5UXWVJxhJYBdPVjaL9Fm/5FluRhP+UT378VqS68lEQ3v8DPmDz39WOq6/sfP7nfuam0xgVX1dG7/Ku77I9JOBEwcMCb/M2f3pL7q5UFe0HPOAB2xjFRHF+14e861Z06FUA/L6qAClsfPMtS2NRzFw1ipkrMTh8iomipyDxX8ye/Gmfst2W9a+lnvTET9qKnhgoUK7W3WZWTOngtxOWBzzwAdu/7oIjz0/jcQImJmyzwSZfHvrQh569+R9/842Xr2JA1hUmGwqugl7MrAVxc7tWseQn235fdiLjLoS+8TqJ6QqTPuM1704g3uEd3mG7rW6NsGNOn/Lpn7rdjaC/tTjXZgfDHi7aKZD83I/JVLh/+/X/6V5XFvmQnmM67tJuXQSaFxa1K4zuhjmR6wqzeQvm4V4fjdx8rQTfaiMddzq81AWzCZpQwN/we7+7ndmuwcdnEVTYVvq19Jt8sumdBVMCnbdjK4yuyhRMV14Kpd8x0RRTCVVSliQlXAWOHkldAXrVK75ik3FVsvFdufWKp8KpbZekQXwK5vu+3/udX2FKuBK0YqCQsKVo+X+PfndSKFz1uLJ1ZciuJK/wJOthF1dvfLRL6H7v9Bg6fcam7ySAnNuNH/whH7KdOPi4hHa8+eK3O36wrXg4USDvwFW4xQ6vsRmXos1/dGNVqF1dPv8znrnFyxWc29Hwxq9Q40u326f8drvWfKDd8+QnbFfN7BizsT/wgQ88e/lXfulG55vipKi5Pfugd3rQVsj5Y+eLouhqWBzEq7lBV3DFVczY4qN1gmb+n/60T98KafFmT/yMwxUvPxRLJ2Ddbja+CmbHxLqm53pdaaf003uKHle5iqX56sqCjWTTdYrduzy3NgJymTxmjhynX/olX3BeMJvDvflrbvGUa/1MduzDBVPm1o7yxlu71AWziZvDNsk+FCz5mAiT1oSA7VPmetrppmMtmBKvJFnBVBArjK4w3bpzq2OvYEqwkp+iIFmC+DywY/ebggIqicaHx55dkB5Q0pZsFQwFCA6vgqC4SMJ4XVW6xen2LFpF7r3e+703+3jIgcb2+Md/zNk7v8u7bMVf22fQ6HMlxm8+u13q6jJ/8tn7XX4bdcVInxMExdsVF91i9O7v8R5b4XI16ARDcZKAjZl+41Lg3basELrdygeFRMHyz28VKDbcxuSbAuhK2O1ifhuvguhqlW5XmK52K9zm7X73v99W3CuKxYFuJwWKZreLPaXtlq2Ch9942Dd2NvC6erYGzImd32KkEHZlbIxwdm14t4ddvYpJMXebFt2cWZOHbslez1on2/Ez1/0hnXzwPrQY7xXMEuoh+bv4mxuB5nLPCppcanOHyV2u+nDJHlsHaOZYwfTfSqx/a+LQdkzXIZnLhr/jCqbJkVzmx9crZDc7uNmxsHxLVpKUfCVCVzGuBhQ5hVOik2QlZYUB3hWjpO8qzBgqhBaaXZFULCV7rx1oS8CSJFtkQLtkbg+HR2FSoNw+7CEWBUHidZXIhoKp0CggHiihXxFwJQjv/2iS5Rs7ruLIKgyuSNHcgkSDM2bFzO1jOHJssmWsbic6aWAHXsG085ucwtI7luLktqkrUnT2jMvZr98iXYWy7dalguL2rxgoWOxpK5iveOmXbVeGxsSuoovXU7SuMPEquH6XdfJlTAqb4u3KUWFnx+7Wv/i4XWssxmycrhxdYZojMaUDni1XycblRMpVLjuukF0h4nFy4eQGni3zYKz88jvqQx7ykG2tGDuauIlr68A6t66XC1oAACAASURBVAZvRgKis/2i48nx4OlIc9FvmGTyC732Rbru0m9tBMyL+bF7cMs8tjVvp64DfO76+Y8l9/XtjiuYzmAkj/keZhNssm7mAZrutWBKypKgguhKxW1Xvwm4krN35eksTqGXOBUE45DkXTlI+vhcsVU49emWKPFWkLQlV3hyiqurPFdnfnPz25siKdFLyIqDW4J49SVrt2Q9hQlnh/MgCj5Fnk52FPenPfXTtkKsGCueHkjptjIf8Xtdhn92fvEPDxlFQCGBr2Aat4eh+Ox2sJMLBUlbgVWA/W7HH0X0rd7qrbZxucJlS7HlM73FUKwUJvFza9sVI/t0+w2R767+8LvKRYdTWCV9t0Gd/Cia9MOTpcPVorkVK2PE52rQVSseDw+RM5fe37zf/e63jQeNDVeYCj1ZfroK9gqQ4sqOq2g08RZfNsmIid9vxURMzYnNmr8ZW0mytX7MBh+8e+fk8NAV5il6jtm4S7t5EWiu//2/+cntafKuMOfJ2N78JZdn+H1T+P/9+X97fpUaz558cncivCMKZkEHfRlfYpGMbQ7aeXtqFs8bPSH5YYH42hA/JDAJWOJWxBWQCp+rynk7VrHs1qGCaSdrlww9VOKqREGw68OzY8c/bWqT9YALO4qEqyvFTtGWmNHdohUvbTokZVdr+QC6LcNfsqAro+xpu+qlmw3j42c+Gzdb+SMmZBU9v48Yc7b8rtctY3RFiE1XavSKEV8qKuwqZKDdSYlY02scjQlUzMg7UVCc6Gx3ssJPY8HrQSG/aRqrcdFHb7EQT36xTYer4OJpnMbuSl48ije/6WY/ecVb7O2KaTFypWqO6Ge/+TAG8REXul11088+m046rMO55m/kOqf70L7acay5JetWuvcwk4O31V/l7vZvfwTMTblS/rBOK5jh9+YPbm765PxPTcfPui5X/il7J7YvfcEU1CbORNrd/pJ4bSYLrq3Jrn8jYZNfwayggIqEAudWnaTtaqMnZvUla0VQ0sM/E319OiREsDaaXaINok08XSVi7WzAaSc7aa40u1pikz70dOnnw9SdDnrJxwdmB7STdzsRnzYZtrKXb1NnuHSkk3560FebdNvpQQPZIIs/vIKlj9fVq9u8xQFPNrMBl3z6yOID4fDY6Ymmrx0tf4s3ebQgG8UyO+hwjTl96NbhzUxMHW8rXI8lx5pbcQq8E9m7250TAXNbrpSf5kM/x+YdrS0+elylOjG2Dlae+O8L8FIUzAJ/KKDRTYzdWa3Lf1u0ZNf+5EG72m3K1JasvFZSYpX4StSSsisnVzLO3ECF1NlXSTHeEioI1x6+PpiNiatdwqU/vqlzJvLw+OIN0sN/PHDk2tGSBWtf5Ft68lU/e+FmYYBb/U0m/6ZNfkz+dIJodDemcPS5evMgjTa9aI01PvJodMzxak+fJo1se3J48xEtWW367XTgSTa70eKtYDppaz1a0yW/q13fh/jpXvd4s8uH33/D7213WzxbMLdkJ+5u+/JEwHppDfl5wM8mcLbmd28Ow4GtOXoUTD9LKZjhp67LM/Lr8+S2F8w5AdrHtui+X/kL//5nNtZwyaWvPhhu5Z08e238LaL0gJKDh0EkM8mvJCfpzQRXIp08JU8y6O1TR7jko+1B+uKPng3JtSQcz9QZjtz0sT5c+OTCVQD00xNPfhyDyeCZMaN33bOJd8qt+qOBdE7+dIDJVdDww80xxRNMN73pTmc8QXi66gfTsSeXDIh/+pQuds2pbV2XM0ltDNf5Zx4ztVeVbDp59RGJ+Wm8le9u//JFwNxVMD2cN/+9V97uzXs4sDUH+vj6XsFM130F3vaCWSBNwEVbPJ4cNDm2Ji3ZeOoH4Q/R4lkhfvrbku8KU2IrmZUUS3wSW/tMxNFXXPJ7kEw7uXWfMlN/BRMOT0lYe9UXT7Q9/6bufJhyZMNrpytbE05fJi/5/N6LX7xT9/QVfham+CcPP9xCtadn2s3PZOOBDxfPHkzXyp+exhc9HdPHyYs/Xj7bSnbardPWZ+v1euApuvjgoR8f+58FM9ng9fjR+K5Xx135e0fA3JTbnDi6rV5/5tR1DvXXXT789df90vakdz8VrHL3tn7n9i5NwTwUwhl47V4rmQ/9lDzmRB7Sdyo+XXPxtKAsCq+VSGqS3EyiMxmWCA9BsjNJ7vGlO1sVkewckk/3hOliBz5d6UDf82EPN2XSm85oFcXkw+sfsjV5tNvTka364BqLPZ7Jn85pa4vF+B0yHcEpD1d/ttNbXOOZEM9WrMfVfzqSPwTp2SuY1vRcp6eu8evlcxz0WsneU7IdQ9djJx3g3e3GRqA1Yw5/5Zd+bltDcPJptL24Nyd5g9cnEt1tIGvbk4v/ToZ3RMFsgkyMg1RC8VRjEzPpta93UtLTwqFP2zYLpiRWwtMu2c0kOfHRk6kfLNkG8bVfpDP6ni646ce0n1x0ED09ycYXPr7wU0a7gonfeEB4O5n0gOla6eHjXft7uuK9VsjG3NloLIf8m/yzPX0IXyzqB/E27yD8tKcN3xpsPepbr7d6cxz07708/NOWX/PYiXa1sOPwauXu8l8cgWJrnXnWonkjGe2idYXud8tff90vb+9wz4uXiz248zjumILZJHaF6alT2zwoT53kU6cpffG3oCwKV5j9niXRSWZubbSjlQjR4o0OJwnXB+OBt6dD24Mrk2fK7bXTBZIvcefnnv30oPF96tCOHsRHbzbSjQ6XjUmnV9JvfGjR0bKdLny1xQAvvvD5mU/ZTu8xOHlX+frFnQ90wRdLPqCjRc9e8hPiyd90Tbp28iA7YgWy5bUW7dZ961H/osTWGr6RUMH8rdf/x+09TLdk2/JlPX6i34W3PwLmpuLmw/5eb+rqkHfNXXO55zGaNahg+tKPV7nk52Mye3ruJNylKJhNzl7gZvC1Tap/2eSMyDYLpv6ernBT156tPdyUKUFJFB768XSZd+n2du/9taN7zWTyeZ9w0icNrx09GC+Id/bTNXVMevjJVzu+eNKNHu4YzyE9ZKLN8aQXnf5o2mhzz24y+ZbslIl30tDXPb7w7NdeafBw+ZTu1edeH0pXesjVnjC96Zv9+OCST6++9zetSWux9di631u/14Obx808DtLJvitL759KlG3xJh/+Lrx9EVjnwtxVMPce+om/ueR5uEZBB5x86OPr87WSeOcaTe5Ohre9YBbY4LFg4rG5534rnpJdfWmB+L3mx//lD22fW/Nxck8Jeq/P90l9aPt8f8oTz9DvtU/6ofaQmbq1fbTbl3fYYDO74Gb3imy0iSe/+TJk4zv3kU/Zv9Imdy6LdkUe373wV2jn4298A8/evfRlb8+n5Fc4/XvyE7a4n49j5V369+Kb/i9jOh9X+PRcsR3dBxCMd5uTK/o22kXjmbavxCffgtaTNv10+rKQ/2ZjHdrnFcG6Vm9Ev2MyuOrkg0/i+V+Ikua6HZJb+e72b34EzIX5atNufnqtpPUEv7elI/qEvYfZb9nxVpT39N2JuNteMAVNcNvXIIYPmuj/+l9+e7sVdIx30pIFr2dL3iLwZQvfIfU+pl3bfy73LVbQ7ip03fEd2pNLF1m3/OhMT7LxTogW3yH8Iflko68wvSAa/Yd4Jj4/wjnR8J6quwRw9MUTjPcQzJfoM+Z7fsUHThv0NHfRwFX/1ImWvnT5lqzbpcZEHx606VcyE2Yn/vQFkyfjJwB8Ht9vaz3Wv9FwHjd7thwHjkXfMJ5f+ok3+Rvt1119Vx+BdS705VK7grn3WgkrzWXt2c8LuP4fptuzbdnYk4nnToOXomAK2qGgwrc3wZKuM+3kooN4wLlN+sSf2t6Th3NW3VlZuuKtfyqcctr0OlvzFY7X/covbGomz6l6bwQfu9e65XM6/uN/+LXtc28Sf7jgtdq4XXL8Nk8Km1up/+anf/z8LB7tasd1TKa1P3m099b7zYrHtM0G2+bTd4lnwcynlf9m+XU9evl4X9yKfeOr31j1rV3Qb48eoiyXxRucMnBz0yf3q7/889vv6+udhnUtrPJT153QvjQF81CwZsC1/VbiQYge+jEB8O36N2tSpt7sWSztcNmPHoSvHZw4OuDb/DbkA98+Eu6Ter/z268//52IXPzZm7qm/j189FPgHNsh/ulL/uOdeH1nnw5O7+35tOHv/o//vo159bExrfYO4Ve+Q/3kV3iIH37yxmeM8ManUPgGro+vW5Mer48vuKdjT/derJMtlsUXno5bvbHbxic/j/iWrFuzc8vv4KTdbd/8CBT3OV97VtH/+3/7L9u6jbe1lo7kotcPWofm//d+93+80ZpMxwqTvdPgpS+YBVpgtZ3BeNKwgrlOLp697RB+j/cQLl+C+LRnYkw2nlPgKk/Gi8B+w/KfK57xtCdvn9mbZ2/pzd6eL/FcL+TfqTryJ/76dPg3Qv5byGMf+5jtNz9Xzv1bqPjBtom7Xe09X8I5efNbun8ybUx+X3Zb1jxNf+MHJ157D3eIJz2THu5Gwak7/9Idrb459eEC/+nFiYNjcfLMdjJ34a2JQLEH9zb4jms/J/i4v/mzTdlVfvbjs969XuSDMjNH7elKZs+nOwF3RxTMGUhJyqP1/ruDrYN08uy1b+REzUXD1o3STY9FbEy+ZCQJu93lX0v5X5X+uz16C30dZ34EV/peH++x7Wp0rXrSnQ5Xlf7VmHHZ/bePrjLJGtfelp492h4ue3u068HRO2PvXxq99CUv2k5q/G9MJzeeaFU8bDfTj+sZxzHZfA5O3hVnnfofiM977jO3nw9mbBr/lL8dbT7f3e69FsXEXDVfPgIzP74+47XGb/a17dZBn8ZbT4CzMXXeye1LUzDnRMyArni39ZzJrL9hTpm9dpO7R7tVuHyYY1rbFp9bJP6Jstt8CqbdPzj2MIgTBju+dZv6a6889aNPGC14Ci1eMP7afIRzEPkKyHOf8/St+CuWrko8+enhqQrM3pjSRc8pWz4cgqfoOMRDJx8bl38AYI6MxT/kBt0NcCVtnc6kVOI4dRyHfLga/NXaOhSziZ/2xcFPB94R3Zu7Q/anvkM80861trNzrfL3JbliEZxr00M/8k1zeGhOkl3jQpenZP27PcdyuoMr/53cvyMKZhPVRDqzd8syfBNQP77w4B5u0m93m39uZ0i0nob0D6BdtUjEoKLpPbx4LG4Lch2XfvspY7oa3lP0xUMvH0EFnu/++fOjH/2oe105+7+PXn6PN/kJ6bjdGx9KAHx1EuCK2dV/82Su/D7rv9T4Lx7milyyta92LOTmtvYnbbavxV4yp6wtcXCHwDMF81Zc/qVr+nQt7fQlm95g+BUeoq/6Vrn7Yn/GQtv8dsytBdP4419jNfutEXp+7t/+1Pl7mOGzc1+K5x1RMNeA++6hJxNNzLrNCV1pl71v4SmW/qmxJNzeVaZ3/vzuJxk3zuBlG1t+mSNnn94ldMuyK7FOAh7/+I/Z7hgc8p+e9kM8NxM/bWubI5tbUC94/rPvVTCNyRj9lmnMTn7a0hMMfwzGG4y3/gqjB6PXPwUmU9KbMtFAmyLpatpv7U4g2jou4w9/o2B6g8f05ms8p8jEe1+G4tBa/s6//K1nX/7iLzzvG3dxWuM3Y2Ke7da53/L9G0PtZCfvfaV9xxVMVys//M9+4PwfSO8d2HfC5LSo5oI0Fg8zeVm93/lAiRj0NKInMj2JmVzwdo55z4dwxuRAcsXslmXjchJgXAqoVzJsydTWn/utHiPb/Le31f5H3/u3z3+Prfgbm3H5ndb/23RrvW3q0t7bGmu0+mzWvggme61w1T/1TBq8hOu1ko/92MdtBTN6Mao/ddyIdnqDx3SuPGv/mOx9mSYO5g/0rvf8byXGXZzAQ1vrUk52Iu995HlX5ZDcnYy/NAXzUBCbOHRtE+Khn2//i9+8iZi0eYA2iYf03Wh8/q0La+3v2cXD3xau7zF+xnOesV21KCRuX1ZUSsZeM7EwOztc9ebPir+Z/WyuY9b39NwLP/+ztmLZeIyp3Tif9Yx7zn7j137lfB75OnXWvpYxJBs8RUe8EyZnvvzHEC96m5PmR6E0FrurTLeffcSADnMlqbQ24U7Zpv1kVtzsn6LzIp5j+qKlw7gUTL/jeme48YG2lT+5a4HpWuFFuvCvWzpW/P9q/eLg1aBf+9VfPJ+v8lH0NS4rXt8rJR5KLC+1FlbZO71/6QtmgTcp2gqm10ouY8HkY9u6qMKD8c0xaf/sT/3Ymd/0XvYVL94+hvyqV3zF2bOf9dQz8JUvf8nZ17zypduVSz+uT53pPWb3GP8pcnj2tmSD8eh7ofnVX/3ybQzG4dbPEz71Ezec8di/+qu+cnsdIzkwXRMeo09a7Sk729GPwcmv3SYhfM/f/hvb92eN5xUv/bLtv9X72o22K0u31O0Kq1tUZEpC6bkeyB/HQsfG1DV9XfGHaPjQ2qfcsbYxSbZOEPxMkD/ZOaQv+qo7/j36pB2iH9K34lc/V/r/Cn0xFAeb9719uEButYXfOjt/5lwgux3vv5X4LduJ4X15uyMKpgm0O0BNqomZr5U0wSbyRiamOfHrItmjXYSLPnU1tnD8b8fvaeD6YFv8ezCeY3BP7lTcqnfKNZ7mpD7f8bnifPEXf/75PIVHw5uu2YZbt/gmnDwTf6g9+Wc7/nwH29BsIN/RPAHc/wKEC4/vonGk92og21PvlM2/idOGb19px+jJ7Ok1TlcVn/vZz9uuMFfe+qu9i/B7tpJp3FNntImbY1rx6dizs/Lel/pzvGLQOl0f+pl8sz1jQV4uRqfHx9e9CtdvmPEeko9+p8FLXzAFvN0k2U2Ol21t4Qp8vPVvBExn8EbopGPVp2/xtePxr3ecwbW4Gy+IPz1b45L8aVx85LcDS9smwfaS9PR/jgdfOm7HkLKdf9Of/IzH+DzgY02izR3tsm1zTNfq29ThisJTzjfyymLqv1YfD8k1b9dq41rlDvlzu/DWqfVpPD6/+WUveuHW588c42znK1zycNoeguu/1kyZ2U7+aiD569VxNfYu4r30BdMAClrJyFmMx9ltcKcENB0XBWSPnmxwj+dG4OhvIXZ7xANOCma24wEv85a/jSdoXB5aaoNvTyYYz62G2QfXbdK0/Xbnf1e6rWVbx7LK3+7+3pgO+dRYD9GN1YNNToDmU7LxXyQf3wr3fLxWXXu6r1VXcnv+rXZuR/9U//CZOwUT9LENPyl0gjfHN9vGVB+s4II+vu5fLt7IK0w25n47YrravJQFs0lZnTW5aB6O8QkyW5O28q79Ar/iT+knGzxF5lp46G9rrPOH9Gh3Imxs/rvFa77v724HqnHM+Su+8d6ucebHMft4zJEEYTz+F+Cx8aSzsdUns7bpbf6nD5MPHk/xQ0smvgmP0fDlBz67je7kgvGRQfdaiQfReuhnyseTbH2wPX3Jha8/4aRp26KnJ54JJx/+aJuCq/iTHHgZt1P9w1fctD0hO/+BNJotfXOs4dIBOga8VuK/EGkX43RM+atpT1val2G77QXzagKB160fD/34nJPN5JQ0blZAb8fEtWh9RcWY69+sMd4MvXNutc2Tpyq/+IWfs7XZ7HeQm2H/ZuhcxyRB+HnAB/JtrZW1XRJZ5fGhNb9idGw9T3l8ydGTHFzt8PGRR0t26lvl0Ozwc57CwymYPt4wH/rBn95Vp350sC2dQbrt+Zq+xpNc+vTx1M9GfHRlLxtTZ3z/q8DGDvpJwdfTis9cO3vxKH7RyPmYjK92VTDX+Md7DKY33+Jd++FvB7ytBbMAHRv4DJa2ha+I+KHaZmKa4FP0HbN1jJbu6c8x/uulZacf0ukLt7av19bNkC9eU7e5Wgtmczf5rrY943K1slfLny2Q7xLE9/+Dv3NeMEvy6CXp1ij+drRJd1KEBkajIztwyYJ0wk3+yVN78pCxk0kundkJT64dT/pq6xu7p2S9UuM2+5TFl058+LObH+kCa6Npk7EnA0df/tNXG0172sgXeBua/e72/0egeHolpBMeMSrW/z/nxS3x9pnEZOm+2o1M+9XK3ir+S1EwjwV3BlDbhK5XmA6K9sl/o4N4M3VPX9mx8Gx+F+hAN0Y0W3DrXMI/xWr6yf/f/I3XnX3B571gmy9uN6bJd2w4e3zZWuUO4Ve+q+mnk9/mRVL3O7M16WrLO8JuTSmi/pXZv/jn/2TDe2XoB77/e7ffOn30wMccvE8r0Xj1Bo2c3S1ePzk4a/dFK7+P0kXG1axv2PrN8Mf+xT87o4sMOjkvkNv5RI4MyC9PKHvfFR8ZePJ+g0VzpeEldjR4dP+82u+UPn0Gx05075k6AfJaCTvR+Wi8/BcXesjYyftSlweFPO0ejexr//E/PPvFn/vZzUc60PCjeUXHd0qNDV8+gOLgv6b4P7nFnSy5vgj2L3/4B7e1V0JvzpvPFUa/r0LjLRZi5Y6d9bzGQX9us6/tOLAW5//DTMeUO6Wd3LRxityt5LmtBfOUgc7gaUswDkLvDdma5HRN/nAg/CHa5LvZ7fyYvqw4fQvR5gqzhb3K7Pk6efbotwvHL3OlYHZLtjHm083wnc727FwrpIfP9qnT2bmH0PyO5/+WKgZ+e1Yw/GYL34vd8Aornv/2X39n04WGNzk8ipRE5MqNTjKbzt9+/fnVHBocOTsddNn9F5GJ1+enq4BpS5t+Mhvtt19//poM3Xw0b5uPv/36rTDB08dHNrxba17p2fT91n/e5PiPJ18UNXSFz4lG8nDiZBdHftLFTru+Y58sPna9ykO2WPFVH00bnxix5TdmhdXczZzRPK7wWtfIZZAzlos2POUVxfLUT+OlO3nxNC+eEu8p2Wk7/om7XW2+XK8/d1zBNEH+s70zSVvJ69AkFKQJD/HebPz0YU6ctnHY22pXMC8aJ7mpPz03G16tTclsfoZrjcPszzGdOo49f/ZwF+lb/Zi+rPoknnbJo11ilqyjKSBocGh28wrigY+eDjLo+kF8tmjw7fjoohdftmqD6OkKZn/yoSn2cPkz23DokiW46k1nkCydIFz8cPzNZ+OaNG22bCB+e22QLJh/6Uun48gVqK35044v3IQb8yX9s+dnOGPSPrbNcXtK1per4OaWvnD1g+ZF21xYA94ZF//o4Kpz6qp9K+D06XrsXYqCuQ5m9me7heDM0W8nNvS57fWnjtpT5la1sx3Mrn5ji9ZCc2uthBD/hPHvwcl3SnvVcUxm5a1/kYwrBLdv4l/hGodJn7rDT5x2eLBt4iY++gon/zFaczR9Xvn1p749+5O+x78ns2cHji97/qw2pny0aXu205dM/PCuPN3Skyjb8je+4NQZz5SJb8LowWj1wT1cdDSJ3UNZPVk/acWrMaYLvKzb9HH6qd144mkMsx8fmraCuffvvaZMvDNOFUw4r5W4ineyE8/0JT+C6Z4w2s2AN8rOpSqYBarB1Z8QzeR48KcNrm1PNtzki/9WwOyfYitei9EuITmDm1s8x+Dkv9ltfuxt4fMTj1ts3ttzMO1tk3ePHu5UvviDp8rh29uSB9cxHJKZepJbeffwKw89K25Pbo8v3J483B5++r3XNn63in03tyvMVU9yEz/b0Se8iI4XT/uUjRbsOFLU/ScgPsO1HdIR/XbAfJrwkB/rGjzER9fknbr9vOVznHtxwXdowx/db9x+x16vMA/JTjy/8if82g9/u+FNL5gNvMAeGrCgzT2+KY9ukjws8B3f9i0bSzLx6e/Zip7eWwmP2Z6+ahtfOx894OAKc9Wx9hvP1BfudkB+NBf5Cvqty9ksmi1/48nX+hfBbCSnv+KiZS+dE39KO7kVTtljtOznY36S2cOtuvb6Uwf63Pb48yFafXrWLZ4Vxgt66Mf/AFUw21b++tHBcCuk077iV9lDfHt4J5y+daq4rxs7l23jU+OYscjPSQs345UM2qorGnwFzx0fP3OhtU194VaIx0aPu35inM7sBNOXjvrR4cOB4bUv03bTC+apgy1IBXxPDo/Fr4j00I/AJpOOyxbkvbHs4fjdbly2npJtASUXX/3LBvmXz/lqntanZA/5nUx0fVt6w4erP/nSES6ea4V7+lbdk2elsSsmc49/DxdtD8bfWPDAgRdtU9/KO+Un38QnA6dg+q8ts2DmW/4ckl31T/6Vlk0Qbc/GxMcfzn/j2CuY8V0mOMdeTIKNH8+6JTfxjT8cPW3xezL5J370h++1dqKBh7ZooILp6WfH+Nwmz8Rro0WPFm7CaJcBXqqCqRjaZxBn22SbEFeY/m+kDW5dTJchsNfiwxxLC8/DCmISLb1zzOEuE5wLvrYxSbDzAQPj2Nvw2pv/IP65RtIdLG504k3Pno2bhcuX4LTDp3b0Nu09PHp6JsQ75Y3TnYg5/vjTsdqa8rWnXjh9OsPHRxe8ZwlcYfagDpwdX3t2J4x2KtyT5ZN9biuOfv54XcZrMLbGoo1+WbcZGz7PuK4+R29syYavTwdcm7Yc43/Sho83GO+EaPkD74REjOdv2fB0pgdsSz56+GAy9S8LvOUFs0CsUKD9XudM1S6QoEfMt/3337A9cu6xcwWzf+9VMSmg9F72rbG3WPS1t0fqf/8N2+P9Jb95hRm/8c32ZRxvY8y3/HWF6UPPzbdXGZpjbeOWfLXnjmfS9KNbJ9aBB4rgem2htZHtfLlVcI0Bu+HAuR3CrzLJgY2rsTt+xEVfrMShOIHROq62WF3Bd8xtMkOu1zzMV3L0aJP3aoffv/RLxvyy5d8c5954GvvKd6yfTPGIt7jMvnh46MfXbGxT9pCPyV8G2Jj4ahdrr8uYK2NzvDT35kbb3JgPPNpzx4NGj/1bv+nV5/9BaI3PGt8Zjxk77/B6NsHrPNOv7LK57b//hm0Ms29tNSdT/2Vs3/KC2YQUDIEy4YrgPU9+wtkznvbk7WwHzpnPZz7vWWdPvedJ2/+FfPrTPv3sG7/uVdtL0fMR8XTdKXAuwg4ACc4/Ur7nKU/c+9Xo9AAAIABJREFUFq/PTH3Xd37b9kP65G+Mc7GGuxOgA90rQW4Bfc5nfcY23+b8aU/9tLPnPfeZ27tyXvZ/wfOfvdFaEy/50i/aXqy3Tp7z7KedWQtknvXMe7Y14f078ULz/za96C6mbXsxjHanQmvALvl5l87YfUTbVbyHMPxWbD35n6pi5Xuh/qvEd/7lbz377Bc8d6O15l76khdtic6/zTMf4uu48w/N/b/Sn/nJH93i/MynP+WcZv48TCPOfFg3MT8U92iH6Kuuq+mnMxuKilzi4wW26Np3wnHE3+mnf8hu3cuNfnv0sI15by7NkX+h51arcZtLx5E1YPc/aNH8rEWPef6GV7/yfA5nfE6JO376rDVr0P/09XENdwGtpdYff/0vX+/l8oFfT3riJ225v6J5zB47V+vbMX3XQrstBXM6ajELlt8lTf7cDgWns6OVvvanrsvaNpYSuxd/2xoL+tUmo3RcRujAv+jgaOyr/xM/2/isIzj6/9pf+QvbQah9X96sC+MGJaI2cdhbM+grfsZopaVvTy4aeVcpe9s6R3s8NxPXenB8+affXivh7/RLe/Zvpj/Xqpt/5tlu875j2zqe8OA6tjnXs43PBUq4YzrTP2Nm3Tim5/qZ7WSC2dH37wt9iMYcTXy8wcYy7Ua7lfC2FMw5eEESbO8bevlVoO140Oqv0OK5EwJ8aDKLgTFYrLa//3e+e2sbK3z77V4kh8aw4hvTnr/hwObO+EoE4DrH+tHxki0mDrCpB28HneLhKhW9jWx7uDsZFgvQ2F1l2IpJsQPbi10Qfo0jGh3hp2ztCfGucdW/1dshm/COL3c13JW6DL5eS2zE3NzY3F42jubIHMy9+WmeQTg82mSjpTca/ehta7zCTzj1py8f8itfo5OxuUhwrKJPu1O/dn4EV/pF/eSO2bhIB/ptK5hNXANwme5+95w4DkZvMPoFO9wexNe+R7+duMYwYwDnKb7Gdll9Pxa3fAaPbfHt8RQTNHz6E5fMqkO/g/HXX/dL222feNOF5766+exc4yxm4Nz2YrbGFg9csZzyp7ZvR5wbW3D11fu/fg5Y6Ws/OfjLtjVX86MtcOGDe2M6hDs2xmQuikV8U9eU0Z5+4kvGMw2esF23dSzxB1f+i/rJgdez7RbMG6V8z7E93Q5O34P0Y3WB2pMNNweN/9CWrUP0W43Pn7l44EpOewvnVvt4vfYa4yE96Lbgyrfi9ffm+BAfXr9nevggnj351e6d0jemxpXP+q0dbeO1plY+/BMXb3qC4SdvtMsK+Zrfxr5u4uMBpnUTK/s61vSt/Hv9eIN7PFeLW/0hH876zla4qX8PN+Un77H2tHFI517s9nSma6X1TeJVf/OS/uQnXHUd6k+Z1c4hmUP4exXMVfHsH1JwCs8hWXjyLsc9weafkIZLBr2ghQtmu/7VwuTBU7bJP9unyE6eZOG0+03Pf2hYE93k3dOBftGWjj14keykn2IL/2pn1bHST+lPHWubfAeYttuTfq8S17ZJDwdme+IOteO9kXDP1tQ/6eHD6RuXNeM/c9jm+om+yq3yK73+MZgOcPIdwuO5aEvPqXyrTv01V8DJL/4jiweXVhtrP9vhwWPb5Fvbx+Quok272q1fcv5DS/2V75jelTe94cHa9NTfg9nZox3DJcd/m7F4GKtbsmRtx3RE2xhP+BN/8ASRgyz3Kpi4UjrhQekbQGDHbVjv8PiXQPmQ6vyof1+Dxmex2L77r337ecKDt60JYEMu8xTuECyGwUN8F+Hz6SI+9Gwdkol+SFf0Q/JTDs9MIJ7OkyD7bfiYP9mZ+q6nnb5T/D5mJz2TZ8XpK5DG7kEnm34b+qH1E89FMJsrnHKTdgp+8lxrO5t78mht2k6cPPTjv5Xoi8lF2zH9F8neCPo6huaZbk8y29ZxTJmLfGh8U0e4Q7KH6OEnTAecLVr47Ppim2PVHIWLP95kJ4x2Cpxy2tezvVHBvB5lq+wh5yZeW8EUtPtawZzjnLGZeO2SnKfftOHime2p47K3b7XfDrZiJ6F46rorzHwJFrv64J2yTV+1jdnuaUPbmnQm/7WOkY72q9Fxke10XsS3ZzPZQ7Tw+OSX3sPUX2MU74TH9E++m9FebeczaPO+o20dR/SNeOKfKaM99xNVvBHb1PlGxCuIeLziJPe7aDg0nulT7UN6D+GTy+4hvovwt7xg5niO6TvgBa3XSq53UOm+nXAd5/Rljq/xo3tnqoUzeabs3fZ+BBxsFUwftfAPkyVK24zl2tafuH3tlxPLb2M29ltRMG90FIr9zYw/3dbBoSvMfFjHdjN9Wm3Vz5dgeNAc55M7UeHi2ZOJdipMR/BUucl3qiw+m3/15x9pmKNw8LNd/1Tdm+LlT7Kr3oXtwu5NLZh71nN80gTLfWwvW9+XtkOTM/HaJXa/Q82zLLGYvPel2NzosYhTseqdu3mFecjelDvEc1nxjdf66f/DzvHM9iljSN/Ke7V6VvlD/fQesntI7mrxTkL95OO/ldimvXy4Wp03iz9/po+rz36jlydmrkjuev1Kz2r/VL1XK/993/M3d18rSc9q91r9KobXI0/HvQpmTp4K18Hs9VddTfSK94mt+aRfuvBP3vDBSTvUjjd4iO8UPB3H+PZshNuTbXxov/Frv7Kx0t92yNYax/j34CEdE78ndwrukA74xjZ5bnSbj6tO/33BeuqKc/Wjca1y4YMr/Wr66TgGT9F3kTy68XmVxjZ1tkbW8cczdYe7CK42po6rae/ZWXXjuWjb07PijN+x5YlMW/HQXnnrr3bDr3Dlq7/y6e9te3zN26SR1Ud73a/8wqZKO3y0KVN7Y7ryJxy4bpO2145/pR3CT754gmg269axqr83L/GDU1/yK36Pf+Kut31eMKczexMWLjj5p/OrQytf8viiwbm69E7OxGvHH+9qK3x8YLgJp96Jv13t/OGvxG7zYnUPAG2IEaPpZzLdjouWzITRToVT9pT21Dv553wcmpMpO9urbP2VZ+1nx90Kn4Arrvimjvyc8qe005GdU2RuBE/+TpheOFeYHmix8a1t+nutPl8kl62rhfl/NXDPBvnGWRts07YOfHjdf9OwNSZt9OSmnvC3A+ZHfk7/+OyNArjWd+OYclP22BjItk2+dE3c2p426Jj0Q/KTT7tj1Rom05au+mC4YzD+lSf89cI3KpiHFE4HDvFchKejQE5eRcKXfnzA14avbbbDrXD6dgr/Kn8r+/maTf2KpFst3Z5tHCt/csXxED2+mw1vlv30BtdxwM9NPEogHp6ynoorvvSsclPHndZuTNZMX/rZSzo3a8w3S++1zEOxMP7pl7Zb86/5vr979q//1T/fVE+e5K7F5s2S2fOJz82tr+NY6/XzI7lg+BWi3+pt9SkfjOWf/9N/vD3RHo5vK/+t9veQva1g3gzn5uCn8WxN6ID/ge//3vP3pNaFMOXX9tRTe+W5Uf30gxdth3jgjW/qKtH7pJt2NDZme9oMH5y0tR0PeNF2jGfqOca32rga3lX2UH/q1BbTYuej0r5P2clHOvCtcuEmPn4w+sSd2r4W2WSCx2zFY+w9Odlayvdj8tdKyy54yjb5j8kco51iB49Y2NvodOIkMXs315Y/azuZQ3DKHeK5Fnx6wb0Nfo7Lk6W2i9b3qmva2bMVfcrt4Sb91PbUo90ceejn0Gsl+K51y9716Niz/SYpBA1iGrqo3SReBLORA/oO7HYT70mpnpJd/UguOP3asx0df+0bAVdbezr3ePJ7QmM37vjpUjDTCX9ow5PchMlOOOnaaOs2+aOtfJOndryHIHvNcTKr3mRX+uzvycxxrTY8JWs9dYXZuJNJ9/QvWrx49nDJTtgYJjxVftqbMsaU/Wyt+sPj7SlZ7fBTd7LRToHJrJDeYq69bnTPTX/Pl3ii44lv0k7xdfKkJ+gK02sl3bae9rTXbdLzJ13BZLIbPhh+1R8+vj04ZbRbC+ErmGTb0NIV30pLz+TD2x5+D8aTTnC1Ey7e4JTR5kfF3vvDjtXWUz5OmelPOsPVj79+dBDuRm3nBZNig8jhDDaQDO85FO+pkE568Gv7/2n9t5LpA578yW64/Iq+2o4On2z21kI16ekJFwy/wuwc8mPyr7x0wzmgtd1KlOTjgyO/6o4enDbyd8JJnzLxTBstrGjHYLx7MLmpW3vF5w84/awdvX5w4rXFrdh5GdprJX24gIw5b22tPqQzGB3cw630fAHjX+GUmXrji15/6qwdLXl4Y4bvVYN8wKPdmKds8itu4rMZjBfEl370Kae9bvGvMD46swPu2Zqyh/jJNs/48en7bypuWffbXzHBk91sJlf/GFx9nbzT36vRScf0KT2NS8z8GzsbvnRHJ5/M9Ge2k1ltTZ5D7XwL4steetFWfDh+o/HXpmC6G+RYnTzpCmYvmH/TdrzRgmQm32b4Gv9sBTPFdFDclpH6NwKuOvUFy0M/nmTbo98Iu+lY9Ye/VXDPfq8/9N8U+IIvWPtG+bjngzUA31qYNmd7z4dJ17anBzy2xX+M5yJa9jow/H757372J84PSvLZAW/0djN0nuJj47Z+PDxhm75oz/4pOidP8sFJq908H+OJNxgvWOK8aJ0kexFMd3zZ8P9X/c9GG1zbbIe7jJCfxch/97DW54Z+K8dyLfamf43lR37o/9mOVSd+k743tkP0ybvXvla5PV3nBVOxci/Zb4l+IPdel/cCQd84hQNr67fjqT1h/N6Bsk/Z2tnxr638M9rw4CqDN1t7OrNNdt2jBSc9XPqzAb/HF/+kaYefMJ51LOHxsqcvBvrpCobTn+Oe9GzCnbI3xnjNu4RS0WlB7y2aFdeCBDuQ3TXwegf9+dw42ILP5/DxFau1n6/h0zHnDc4HIMRSO1vxTpuH2njb46l/SM+kH2qna8KVd9K0V7p+8YnXcWq8HbvJBaeOZIKTtrbxFFttdosnvLtCHtTrKvfQuljxc22R9TFx//Cb/vxqjPkUHgwXnLzofEObvrsl6yqznIZv2sOvP3HT5tqOP/y0FW76l2646MdgssF46TGWxrinL5kJkwcnnr507I0huSlTO9qEaKvOSUfTz5Zj1fdk4yHfGtOGb87mmKNNXdr0J08O7id/7Ee2Ymyt2a9n2wqmRPcffv1Xz5yFuTx2T7niCeof2/Gs++R3YNWPb/bRDRJNG0RPLplgspNn4k5t038jbez5t/pyiCe8+OfTKntKfx3TIZnsxe92lf+SXjILnrK4dgvmG37v7Jd/8d+fz2NjYjeb+QAe8vMU/JSn21pqPZ0qP3WQmb6t7XRO/MRpN97wp8KpU3vKpTMYPTh5tdN1Cp7O9MaffBB+8v3QD37/eTK6mvWC15qxS2C/9fr/uF0h53P2rwc2lnyXSLWnDTzhpq1DuHThnXFIZ/TkV55srHyrfPrj34NTR/b25OLb0zH9i2/quhaZVec8DtHSmb31WC3/4Z08x/yKr/FnJ9v9dt1t61Ny2iGe898wFUxni25nORByHPR70NzhVny44OSnr/5FdHzpXv1INjpePO3Z2IPJTtqUi57uSZsyh9qrPD46Jv/kmW089Y/ZjWfqXNvZjBfEEz7+iUfzFZRf+oV/d35b5GoS4CyYyf3+G35ve+9tG89rX7PZZ9Ni5kP+6dvr51d+ngI3G1fWQfzpSW/4CaNlH604RduD+OCnXDgHLVr95PXbs7HHE/8Kk51w8kx87UP0Q/hDfu3x4/U6gJ8RbN1ZOJRoJr5iCZJTMD3Bmp38Dx7Co0cD9fk196kjevBqxnvIztR/jCca/trg2g/XGFb6MXvRgtmpHwzPRu1gPIfgnl+Tt5imbx4j0eLHo40n3J7++PCkN/5jEC99LgZsN7xg/tuf+ddn7ikzwtgc7HQ2p/dgMtEaUP0JJy395NMBVz/clNfGsxfkqXuVmXKTb9qYePyTlvyqd/LkFxgf+rE9vvTnQzqSnXxrO5l4wT19Ey9+bltc6xVmyVACPC+Yv/+GrWDyx+221lQFZfq3ttcxHes33uAx3mh4a7PdmenUccyn5JObupztkoVLR3QwG+mYtNrJTRhtyq30VfdKT8cK45u6V576eLXxmtdZMDtxaj0cgnsFU1KjN/3ZO4SLnu9g45/5IFz84Ob7lZPZ8OlpTqcf+OMLpnfS0pFsPGTg1rWfrmBy+qtsutMVbzAdE6JlM3x6QDZmPx5w2g8fDgw3YXS49BZPuOjJx5Mv0afO2qvMxO/JhbNGK5g39Jas3zC91rFeYWY4B8Fw4MRrG/yKCz8DBJd8MmATnI0p40CAj2fPzjFck5e9lRd96s42m9nOZ7LRV7jqjZ7u9FVE0KcMuj188sdguvNz5Z360fCD8GzdjILpliz9c5z5Of3LN37Uzrf6EyY7cbOdnvjSBV98tNtXWfhkQD63400HnNs+eNKVHJ7G3ZjJRq+tf9E+bWpPW+nLp6vVS1e+apM/VQc5V4ZdKZ5aMBXSimZXmJJacciHYOOtP2EyxWGPN9qUW/nwNMeTH59xwk381BVtwujJBJsn/WMnV/HTo10/v4OTlm4y6MkaV/LhQHcIyIRL1x7Es/Lpt7bzJ7vxFlP4bEXLjv66RwumX3/lnfomDS85D0nZrLWruROyd8J3/hvmr7/ul9+oYDKeo7M9J2Y6eKjdoCd96kUvsJNnBqf2nq5oU1abjYnbWzgTN3XXPqR70muzFX+4IDvTl3X8k1Ybz5RPd3aizQMPbY47nnTWn+PGr2Be6y3ZubBKmh76OVQw8w+0ltrD5+sxOGOx8qWnmNcH9/ZVXj+Z4gWXn85a0aOBU2/6pg64yT/b0fjbvERHm7pne6WR2dORrhVOee11X/nXPl8qmP0uOdfCsXYFk5xbsrNgll/Ymz6GX/3UX3mL/aRNuRnHeBvf5NOOvuLjn3DyhJ+4ihRacx0dTnvKTdurz5OWjuDUNXWmm2zrOb3RVphOcK6v9ILNTbqi4ddun37VnrRw+RANjBau8ce70vXxVDCtte6AHVubx2gXFsycy5kCkpMFJPwKk58Qz5wstJI+Gt30ThyefsSdurTzZeLzY+LobBzw08bUMfni6Upi2ktm6szepGnTwyd049JvTybd8GTECC6+aWfqn3Gqveqsn1w24Nk5VjArgscWUrR4jxVMNvmxroN8y1eweZxw0g+16TLGbKS7cdcPpic6ObjoIFrx1UcXu3j0yelbL/jTG0/660cH0VY6PrRg7frss0mOb/Z0rLpXm/WTTWdy0Q9BtmfBbA2cCq0VCey3X/+f7vUbJr12fs2xNNbpT76C4jD3SZtjmzzpXHmnDT4kE9+kz/bkgyebDMje5J+02smB6QPRp2y60eDLj9qtBe1sTvrUhe4kcOKKO3n47K/rCx0tG/GTT0f+kUWPJ0j/tF0/u/joIr/SkstWMuHBG1owLVgLt1uyzoAMsAAxyJn5GO98fHcN4CpL/qJ9BrHg9lRbQYLPlrYJirfA66872+HyY/bJ6sdHLzv5BFpo9uwE0xekp8XXAkp3E6qvTR+Y3fD69Dfu+itvNtmpPeXo02/HEy5fwoGekJ5XmBU+yW+2L0qG8c6Cya59+mn81lGPjM/5zr/pe76ma+qbesmQ34vXxGs3z1NXa4yebGn7N0Q+P+el8b/13X91exQePh306edntqbu/FzhtENH+9SZHbL5SE6iayzZSj5f5hqJBw1fftJpTwacO97N3pWET47enkC82jN368S+Fkx6s8umdSL3zL1jcR1LciDa3Fda/WLFrjY8WIy1o6364s+PfBeXeRciW+he//Hv56z38EF6yIJ48wE929nIL317PqeLrDjpo0VPp/6MY2OAz0a47IPZmnzZDJfuqZ+cfuPDk1xjq49HG742+XyPNuXSl0z8eHtH+Ybckq1gekrWQz8VTIY4wUmT7Jt/f/6bv+7sW77xa8/+wp/7+i1x+D6jpBcvWEDCNRD9Q7tBohUAgZWUvDel3eB7t07fTrd99tMx7cc3bSQHNinGavdukAUNz/7/9V3fseHSk0/109vY+TBp2o0Br3F4l8r7Rw4e+pIRT/QOqMZJrn3qZjP9eL3Lal4mTpt+8hOvH96HqRXMva3kVjHc4wkXz17BZMsu+Znfb/sL33T2TV//1Wff/A1fc/ZX/tKf275Ww38+5qt2/eTzOR6wPf7WRFCMexfPuhJjkD00884vOLqy4SE4xfLpT/v0s7d4y7c4e7M3e9Ozj/zIjzj72le97Hx9mDOfNTSfZNk0r3TlO3y+gXjAxhQuf4PWAR5+8pkv7MDzmV5rAK11mf/pBrONZqe/9e79NvrD4Y0nv8D0aZNld37QvDVwCmxN7RVM+uk2H9ayE5Vv/aZXb+tE7vEZwGLA53zks7Y9X4ONG4SrH386FDrzxq6YtqMbc/rih9NO39TfHMLRa+6e9tRPO7vnyU/Y9OZ7MvnVPNAdDzj94p9jyJzb+SAmchc+bXQxzL4viTlB1aePDnyNJZhNfPkGorfjaezsWz/s0k+nseZb9vhDrr1YznFP/dr54HiiO3oy+vmrnU7t/OuhnxvylGwF07/WqmA2QAelRPAXv+Ubzr7x61519g2vfuXZ13/tV53vFrHFK2FwsMGB+vY5mHArr4ODDGiQ7P3Zt/uz5wurxfbhD/vwsy9+4eecJ7n0kWmnR9DQ4NiPlt1o0cMbr0+MPeABDzj7/M/9zC3BGt8DH/jAs3d4h3c4841SvlgIU5aN7ILZpLcdvwn/0i/5grNHPvIRZ4973GPPPvqjP+rsSU/8pC0RkLE7Ifm0J33y2Yu+6PO2xZ5vc0zsZ5O9bFiQ9D3qUY/cXgxmM1p+gXY6wBbeeoU5k17JbcJJrx1dfxbMbPLFgeVbmE6+rCnr6eu+5hUb1Fc4FbbpezFIDzjHtYcXH2PEpyAoyp/wCR+7Fbu3e7u3O3voQx969riP+sizZz/rqZs9c299P/wRDz9/KTwbdEk8ksAXfN4Lzj7pEz9u851d+M/97Odt6+OepzxxSxbG927v/u5n7/8BH7AlRnx0tBvb9NkcoM0xt8Yk7Jd/5ZeePfaxj9n2j/3Yx23rQ8zI8FHMjEVS4Q991mlrJr701wcVoxc8/9nbuiELhy8e7eTYCq9N/40omPM3zPTzhW/mzbzMvRMsucl6mv42Z3wrxuHqBycef+vFsfnQd3u37Rh1cvQ+7/u+Z1/zypduY88/stqduGjTK4ehwdMHH82Ynvn0p5w95dM/dfMbvtjmkz6+xhReIfyYj/mobd1+xEc8+uwxj3n02cMe/rCzz/uc52/rks1P/qSPP3vAAx+w8RkDv1/ypV+06ZKr3/Ed3/HsWc+8Z1ujYvfO7/Iu27pRSNnJ18ZWDPXRV5/qW3df9AWfvflkHcprT/jUT9zmDI84ODl+2MMethVVsaGT/vZs451xg3cMmIfP+azP2HIomXwshvlSvNDbu8K8oQWzK0xPyXLIoJwxCLTF2sKtYLaA0S1sg8zBQ9BgojUwsEWmza7/NvHWb/2ntoXlbEUwJNEP/pAPOfuSL/zcbYHgEyz+bj+kX7k1RX+TQO986hd/dLbQXEHgl2AUNAXrPd/rvbaFZLHZH//4j9mKZkmKLJkprw8fbdrWFh8nAhbtx33cR58XND7lFz48n/opn7AVTL6uV/z0p9u9eT6EEyML9RGPePgWM2Oy0y+GduO1b7QrvxOR9xum/xeo6F3tlgzoBKyCSR/ddj5IBIqJwmg9iXXrCq4CKgaKU3ERBzrAcOA2b1dOtuKJz1jD4UvW3YIHvdODzp77nKef30lIhv0P+/AP29agGIs9Gl1OCu1O2KwHvPDWzDOe9uSzd3nX/5l84Ok2hwqmW7js85e+1qP40w3PVru5wUM3mvhYM5/xnGds8YNrLCA97v4oqHxhK7/xttMLj7+4sClxfubznrWtmy2eV+jFD2ydJ4+v/Vp/w+zkqqdkJbXG7FixTtx9kGfE1LGnbc3YwzvBta7EMp+02411xis8OGnZNlbHp6tA41WQ3+/93//sUz758Zt/fMOLNo+jdPFBzOkvbtuxdiW/WCt0mys8+M1D/pDd1sKVY1cbzsnwRz32MdvJmjVszE6U3vt93meLE/tPfMInnn3oh/3P9Uvms1/w3DPFFc1J17s+5F03HeL5lV/+JVthc4Jo/fBxs/3a12x+b3N9JW8Zc37yxxWbseMXi6/+qq/cjik62ZKbi6dx2X0z1rHluNann7ydDP3iBW/XxweqQ8bhIgZu2k5HMeYfmXTqVzDlpvLT1ea4+M8f+qlg5qyFYmIsWkXyq1725WfPe+4zt1sKJv0VL/2y7axL8CW4FkCDBBsMmkAJJHyDmUEJZ3Lcdnmbt/nT25m0IoDmLEYCeuHnf9ZWbJxxveoVX7EtZAvFrQ68dLJjgvgrcTmjcyUh8CbSweeMyIJyNeeqzBWdMTsBeNSjH7ntEslznv20sy9/8ReevdM7vdMmxxdjcbbjICL/0pe8aDtrM96XfcWLz77sRS88+6zPfM5m+6n3PGk7oXCVY1zOAC0cJwJ8NaF0iouTAYlP8v3AD/6g7YqI3yVd43Jl5vagqxwHnoLu4DFHEvlDHvKQs/vd/35bW/E0TuMWV8nF3JF98qd9yrYAOxhcKXiqteLXAjkFJnOoYBqn2BiztdJVpau1Zz3jnjNXZuLlLP7VX/3yLSFKEMVlXVMKl7NOsPU0ecIlz762g8oaefCDH7wVCf7Aia8i50RDcRJHMeKbdUZW7NnjcwXTmKxtMZV4yHQ1aB2YZ7rJKnzWivUIuiqF56vbu9a1NWUtulJwN8NaJffABz1oS4bsWy9k7Hyz7p3VOwlwBW2XWCRT8mzQJcZo1qMrCmPiq0T0vu/3flsy3dbUU564zZGYWRs+ZK9Y85sOV6PWMjofrvc3zFkw+SSmji/rRG6xHl758pdsx6F1b04kZmtI0VRYWwd8yi/rjVOoAAAgAElEQVSQLsd0659+e/Grn13jtR4UTMcH+a7EXBnqi6kTejlFvMyXPFMhoJsMP+UlcylmjlvHKT3iqG3toFk/xkq3nOuYF2+y1gW8/Cc3wJl3flq/rjLpMKf8sebKt+ybc36LoZxivuUruc3Jn7tdfQDdmpEz2DYua936ER+5Vn/mTLGn23F7//vff/MDf3MgFta/WFmjji0+8kkc2KVb3K1ztu349Y1DMYaTN524kNVXf9ghL2biLTZy4ou/+PM3nWh8qGDe0N8wPfTzsz/1Y9sByRGJxWW0ibQ4TaKBuKSXXL7iy794mwQ0RbXClpMcFUyJTdBchZpUCwWNjQIL4pUMLA6Ly29FbmsJkIkXaEGzgCQAC/rRj37UlmgVBbch+UY3X7QlIJMsSZhQC8Xk0Cdpkpe43Cpwu1dBM150txVMALsW5oPf+Z23heEALIm4HaJoSjjP/4xnbrrdMnMm5xaCBenWicViTGLBH+PCR94tXzqNW3Iw4Ra2s0nj4rODBV380MnRI3G/+3u8xxZ/i8+B8wEf9IGbfTxi5UBxMFt8DgQnABa9OcRrXsVE4vMt2Vn8TimWeKZMZ3BuybrCnOtBInEgWDNODqwnBw4f+M5XJzPWk7Nesq2RCoXkKGbG6wTA3IjNup6sA/LZt77wKMTWkfFLpOgSkJMihcw8WzdiZ42zR9YuGYi7hGqdsGE9K1oOYgetpO5OiDmzrozDb0WSovk0L9adW8KSAZ+s5fd67/c++/iP/5htPVofkiNZvonVh3zoh25rQtsY+MV/xYPN93jP99ySIL/pdcyJixjxi91trT/8YZuvnRw6TiRNa8HYnOyRMV7Hg+PKPJE1V05anQzQLXZ9uKB5v5o1Y91IYp6SddVijtk1PmvA7kRW7BzD1q42H60hc+C4msWqebem5YFyT8cQ/a0JvO1w5tcFg2PXLVl5wEmU+VVM6DSXjmcxFy/rSEzwdpyZT3HrGHSxYS6daIihvGIM1r01J0+gyw/iLDc46YF3MsWuddAVpvjwG15+dILvuLJ+nCxbi3KDvCR++BQ8OU0OEEs+yGPGp/DhsT6tL37TYR06cREbcmLCnjXm9rA4iCvfrDFrFI4Ouq1RvjqpFy8513Eubo4thc446DCv8MZvPPKm9a0Gwclzjhu2+emkxbFDh+LuJAQfO447RbxiX8G8obdk14JpoK62LFpBUzgk9PYWrEXrFklnrYJrUQqEtkJpIUhs9AhONLCdjLMmMg6CP/En/8R2oJpIv685mJw9uRJxBuFWhIXpoLBbWM7y2emgsIAtcPqciUmEgmjBmBA6JTzjtNjQLTCLmg1nYxYOPc7g/f7IX8nCmOh2MDjzMcl8pcdvB5IOW8bs90+TqWiRZVfSsbjvd7/7bYUCL3nxFGuLVlKDK17a/DVe9hVTxdXBZ3FKDg4EcbLY4MSTnIVlIVnIFri+Iq9AmBOJ7+f/3U+fF79TE99aMCue/YbJfnPsRMd6cmUgCZUQKpLwDnwxcKDMdeTgoMu40YzJ2ioRRZ/2ilvrQdyNXcGUfMWo+RR/a9pBL+7mHA6dvJ1NyUBC4yObcJKlA94aVCzpNtcSFj4+mYvmzdzisybodxLkxMuBbf1aU64qJRXrxZyjSQxv//Zvv52pm3N4u8ImyVuPknL+ktXGY6zsuxoyRm3jE0uJ25oja+cv2C09c4bfiQq7jh9+4rve3zBnwWwOnViZC7urW0ndyVQnW/yxiy1cOUUs7fwyXidV1osYaBuTmKDHOyE+a8QxrAAo4n4L7KTT2nFlI9biIa5dBVlTjnUnXoqlXMae9SHO7FpT5vot//e33O6gKTp8ab7od3IiN9Evp4ozH/UrmOVa+uUneU8OM4fynLWi8LOlmLOtyMgNTrCcHCl8jh1r1HFn3PwUSzFzTFonTr74KNeSdzvUWlawPNth/RRzNul92z/ztttu/TZ+fHKVurLmNf7RybZ5c7LQlTI8GSd18pV44KeXX+bfGBwD1r81Kn/zt+Pbzwa2m3qFyUnOWJigYEkIAqlozuSG3iQ2+S1+Sc1ADFThMggDtb/RYr1SMC28P/l//Mnt7MtCodMklmRM/lu91VudvcmbvMnZH/7Df/jsTd/0TTfoR2wLWJDdy3dbF+0P/aE/dPZH/sgf2c4G2XU2YgJMMB/45YxeEpcQnKVYEILurMcEKyySpclyRubBEXr/4B/8g9vioM8kWjBui5o4MTCRkhxdYgDXAnEAKWLGZfGj8YUOxaSEXawsKGdaf/R/+6ObbfYtTsW9g8qZoIVOH5wx5vMfe/M/dvZmf/TNtqt3fouNK2+x9S3Z+Wm8Ct/VFM5ZPPcKpoPGWpHoJF2FwwGpD1pX2tZWB2LrCDSe1pF57kqzse6tq3CgJGY9OfmRiFuL1hfd1rq5sH70s00WjziaF2fvxoEuaSqYCpETFidOxmDuzAM+68dJlPhbh2KvrWDyyXqj01yRk5SdSEkQ7JYc2DJmxdQVqlhIdBKfJG498ZEeerXhHAtv/sff/Px4cTVK1rjIukpSsPWNiU42jckac4zZW+98FSN813pLtrUyCyZ9xutkUwztfFAQXCFZH+UgtHLTLJjNmXGLlSJkLHRaJ80laI7nDid2TogULjRXRAqVfMiOuXGlZvzFSrEyXwq8fLEVzCt3y4wpPmtWjnGCLZ+YB3nTPNnZ11fk3GEzZ05m+GStKt6Ob2OCsx7Mu/mQk+Roaw7eOhKjTp4VIcUVn6tAt2TNPV/kOmNFZ5Ntc+2pcMclmngoyNYVP538OuFHN0Y85k6MxMZxoJCZBzKODYXautvWzpXfaMUGzvEhN1lnf+AP/IFtjYsXnejdehYnRZs9u1whH1YDHF92YxEHvt3cgnnlu58Si0AKOqecNbt94MzL2bSrLYvXonWFWWEzwBajtmTcbRFXNR38AtWgtfGCAsKuszD2Smr0WAwm3lmSW1gmnk4F2Y5HkCQAScWtAAeKIqhv8bOvYFrU+UCng9LVpbNqCUySM1HBblm5MvRQEF0WrqTv9023CywEi9eB4GAVh2zTjd6Y0Uymg7EEZuwWoisJB4qYFBdQPPy+Kd70G6cnep3V0scfsnzVNj67MTtrVwzMpYPffNnFjU8WlddKJDDF8mpvsVVYK7QKJn384gNoHfDdmlLkHfzOBo1VYnTF3MmYg5lfyYL65tfY0ekz560pdHbAdS+Oxmy+2CMLjxd0suIsWFLJ3oTsOFlzS1YcyUkIrkjMhfmTMDr5cZC7WnTb03p1W888KLBuT7mjQb8rAUm6JOhkQkFUJNhkBx+6+SrhVijotY6caPLBugLNs7Xg6sfYjIvv5MWhOZE8XdVsiexKgpdw3f5yzCkS1pN4kXNcoPPpWh/6qWBaZ92SNU5+s+VEQ25x/FgjErY4OjYdS9YJHiek/Jnzri1u/LVGjFvc6OYz+uSHs1sDHjypYIq3deYnFr/3irf16ziSV+hgQxE0X+bWGlbw+M5edkC5RO50HBuDXKEI0SGerUXjMXfyoPmTn9g2R4qiseCRf61XhdrcOelRII2dLvlPXpND5SvHGz598uLsZIoesbRGXYnTr/A7sbR+jcOatc7FxFjkQXERH+sNLv8VSCf9cpXjAw2fsRgTH4q349n8yqls243DhYF4GQtfnRjI2607OrXFWbG1HvgtTsWHLDu35MMFqruzHYlBgnNbQtAVTMnGwexqU6Al+c4G1kWib2ACo11QDaREIMDwBcGB7ylZV2UF3KIyuRaPhOngsTgsIAvBhFqEdFjczuAE2cS5+nMLl/98cPah0JAzORYieXpNigk0Hv7RZ+IkPycNJpxOC5FtuhU8BdgYHQBs93sBH/gslg4oyZH9/CbnICPLlsWhADo745NxkrMoLWJndezb+WRh4Rc/PjtILCAJVPHsYDNuto3VmOnWFzMLS+Kbv2FeS8GchdZ/K3HFakx8zz8JzppykDvpcqWnYLp697sDmqTkYOYzeXvrhR7+ipd1FQ96POatnW14MmTpNT+KhDUFl1xn8YqEORJ786EAOpGCQ5MInEHDoYmpMbDBn44Fa8PcuDUluVhv1od1rGhtV5g/+P1bMfD7kESKh5x5U5wkEEWCbfMpyboroXCzx3d+S9rWjLl1EifOjh14J4sKpYTHtsRIxtjF0THs+LCmJHTHs8So2PDFWqbXzkdzVOK61t8wZ8Hs33uJHZ8cb67a+MWWdSHWco8Tkx76QZeIu3LseG29gMYnQdMdvbURtEbs4ikXiZPcI9GSZ9fVHVv6YtlxpK1AdvvReiFrPsXLfPKdr9aFkyHHnbaTfXlEfOUsRdIJQnPdepEPFQE2e/7BxYI11B0w/vPblS45tp3EO8bEk116rQnjNn+OBb4rfnKfgtY8m3drQsE0J2TdwbMG5Q72rV/xIJt+fOzLa8ZiDsSePScibKDLsf0ujI9uOdEYPE/iRECMOqbYktf4x4Y14eRGgbRm6c53OVwhJcv33sOU064lr3UxAJ4/JTu/9FNABddkWbQcCLaQFUxnroqBwHHOLkgtRu12OG0HeUkKzmQnI7gWpqTgwHdgO3jpN1kmUCD8FieRWJjO7kBnofTyx4RZXIqZouVs3qJkS8Dd8lVsyEmMTgrYkIhMoIOMT8ZjwbGtGDkgOqsha7GbMImJ7xKaRSspS6wSDBkLxgKxEMihsa9gzBMG9ozfYndr1zgkP+OSwCRs43JG5jcQid/iKe7OfC0cPOzwW8EVZ/MmYW7jfuhDt4PFwS3h+C1KgWu7loV1qGDyXSzFwBjET8Hkj+Ko3/oyD+Ik5o0JpMPeGorWupl0PPGFxw/nAJPkJDgHJPl4+Kdwi12x5681SEYCUfisKbGVRK0Z69AVc750kEsijhnrURJQqOwSg9/iJX62rR23xq1j8yo5SJB87rcfc8a2ougkB816I8+uky4+2c2/NcEPsXQsGY9k5Rix/sWXHB0SJ5/ikUAlI/KOBScH7LsqNnZJGM2xdL23ZK2zCmZzKqbibm3IMdaK9WG92OHEVVFVZMxbsW/eg8aX3smD3i6G2ulxK9yt9/KSGIopH+hw8eAqU7wkcQUwG3Tx0Ty3jhQXecu4rC85pvlzEi+2bDru6ZIbzCN5vHRaqwo3e9aBdaKAyi3yB//lEmuo41thclJI1gmYwi2vyafigoZHnOG16TcuucVJIJoxK5KexeCTXTwcS8bhmCXHZ76TVxDFD93OR+uWb+Sd7JtDMZef5CXyTgLkTMeEeKHTY67lcYWVDscPvHHz0RqHl3edBMj1zbffdG03pWAWfMYM1MGkaM6EJkB2xdLZhUHNhWkQLcKchqsdDa49e2xqCwa+Ar4F/UphTc/G99rXbAuA3/gdyHTqWxhw9mS0JTiLLRv444mfvcZEZ/g9/XSj43cFYTE7kCWd9LK1+utePHpj44d2ycgY7HD25OmavsPHQ4dxbzxXbq+j27e4XFlk7OKDQ6tgdkt1r2BGq6iucK9g8ouN7Dh4XTVJKtaQdWWv7erGgSgGc1z8bcyNJzrd6O3ZQp+246cn/OQtxuat2JtTcmK1xfXKe2rRybMLNgf4p220bT6WT6bFo7C6unNg05tP6ctu42cv2WzBndtYjp0Nf2Ut5EtyrfFpAw88uOrNB/La85as+Z/7uj7WPl4/Abz+P//mNvZ8Mm4ncQqIddIamdCdHrlHoi9O/LXXb2xw6a4db7GMlyxa+OT0t1hc+Q3PGjlfJ1dugZONf9KKWbrp1970LWuiddV85C+95/xXZOjNZjA5NDu57JJv3OHhpu5zG1fGGc2JlpOqxt0Y7mX3is3N9vLhDPGF519+ZJuN/EWnE601WAw238r3V8aOtuGvrHnt+o31ht6SbYGfPyV7ZaAZlrgkOWd8CqRq7orHwzxuGaEXtAbWIOjI6WB6V5qg2elqFzC49EYHC7x2C6MkC9dOhz0ftSUotxzw6POFDjzOauAaQ36D6aid3qCD1xWmMx1XevGnPz79/KNrtqMZi50MOj40EM6+6b2ysNNdwp1y6U+3Exx7cwffx9dLatbFuu3hJg96hdYt2fkbZgcEX8TJiVgPAUmKzuLFrASY//ne+IvBxK80fTue2dZvTmabrfP4XTnoyYXDO9vJ0sUfsF3fjmfu6OlIRt98WY9uKWnjS44P+p2Q4jdn8HSA8U794fBrNxbt/IsfzdzApz+59IBwZKZN/s4rzHJJcK6NtR2PR/0rmFM3m8babWkn7daJ/CP3KKj5Sa59+qwNb3zRD8HkjNGuHxSb6Okr/nyAKx/N+GZ/+hl/frBhnM0rGTzx0Td9Qo8/veiTn264bOCPF675Tu+E6Z448+xOlNulrdFpL5+ToYPfeNnDWx8vvvyZbTh9Mo2bLjL64eILlw3HyZSHt1cwb+pTspycgyvJgopKl8s5z9Fkgjm8B+OZkA77IZ3RyQgWvXAgXPTs1UcLB7rF5naEdvLa+Nhe+aPhRWvipv5obpEoBi3S8Nkib4eftsIFZwzItjiik4efvoXDk+7JXxuNf/HT4dUdHy5ok9DWrSS34uujnxfMK//ei838B9m0s28NKZCtpXwis7eTm3j67BN3UTv7E4pH8U5ftrIRP/21wfhPsZudKaNtzViT2vkx9U176NHgtclppz98tGlvTzZ6OqY8fv09nMQ7XytpfVgDe+undQLGOwtm9tm03kFjaq3s5Z3pez7mb7Axx1t/hfFPiGce73SkB1/zgScaCI++2tD//9o7mxw3kiOM9rV0Dl1CZ9AVdAKdQBfQAbT0QhjANmABA9hAY1a2JdgbeTyrHrwCX+ObmMxisUnDZDEKqInIiC9+MiqVUVVkc5SnH+SOtRUH9QSH3rjYoMtxxpDXHorMU7lj/FBvxvqGsj45kYOpfrRHnnr9Ux/Wi+NKsUeWccXoG7+e6MiLE71ysebO2FeyF22Y/NIP/wNp7pRMwgkwUe4WlvNwN2piSbGjMPX0jkZa9Y5rXOVQdJ7ElIeKg1eXNvDEVs88fPQXn/4qr38vUvoGyxg/XDTi+KoVGaf2SdVpr0/lIzvzEqu/tAHjWJx2ScEw9pr403i5qVXeTa7KHaPPhskPF5ADMag5fM5rkR+e6NZyzbzhwb7kxNbaSKtvx9bHOBlXTFJxUnUZBz7XkFj/XWGTcRmLgeozqXLjaK+tNdZP2sJ7/ZWnvT7VVR/kPWqYx9YJ60WMr2T5YgZxjOm8jAl1HbmWwKs3xxkVB62YKjMHKXHlq+2aHKxx025kI67mknb6S3vxyNJHysVL9aPvlCvTl2P2S+ugzBgVi776HGHSj76Upb26lIkzluOMA56xX/q5WMNkAfPj63/58w/Pf+NicgRcFuqhUZIY/+htpuAyWbEn08OGmgUYxVZvYaTEgzcXaeqdEzrwYmZUW2mdq3Io9aBhKtMn46UWh8+QrIt66DOmzEFf0sQqg6av5BNjXKlzAcMG9Mcf/rD8Mk82P3mpm5zjSmcNk39s/oMjP3PI3PPaOAfzBy+/5HtosvrZSjOeMUa24jJmxlWOj6xjxahnbaRN8mDq2JyUzyg4dc4n/S1+Dje6FefYZs04fcCvzQ08tvlK1vVwbJ0kjhssf3w9czA/c8pcan0cZz20T90xXpuMSdwqRz+SaScVA02ZvFRczb/mK67aKRfPWF9gmcPv6hefaYuB6kuqbY7FGUNdUjEpG/Hm7E0QGGw9GYtJe/VSdYlFx/jiT5gs4GyYFMmGaELKkOdpQSvdgtEmYxhHndR8HEuN4xhf8D6ip11ia0ztk4qRqtOPFLlxxKZOGVQfl6T6x6cxjF/zcmGpxwaZn2Gy2XFI3dyUjeRicqOsP1xADOcMX/NUV6l5Jj2GqXrGxhvp1ItZizWzV46PU/1oY1zz0WeliRNbY2ozkhtPClafUH3qQyoeCo7ryJd+OHyz4DpxTRyj2TDNw3hQYuV4xJuXOufi+BI0Y+g/6SjGSJ9+sAGjbeqqXIw+Hc+ovqBi9Jk69foVg406ecbsq2L1K1UuVV5p1WecxM7kiak8NtoRB70N82I/jceipmHySpZOb1AD16QYJ0Z+hJvJtJnRkV3FVgx6N2YvikUbYdOf+pTpD59u8sjEJk2sGGMzrmfaylfMKWNzNE99Sqsv5VB0vFrjSzo2xNwAj216qdc+GyYxMi/iZXxzyByr/iXj9LeFJ8caZ2R3Lgb79Gtt1tZL4jM+cuz1UXXoqyzxqZ/FT3t5Nk5secLMG6VcC2u8NtBv//z70njxjV9jQIlxynmKbWKTJ16tUeYg1no5XsOkLnlsHWfMNZ9poy1UG/XpT33iU4/NaD5gsJGCqbiMO+IzpnmYY+pGstRv4Y1Pjjb3i7+SZdH6GSafv/nV4eU1mp9dHj738/WamKTqjtG0mfEjHyOsOHXkr2x53VTyVifesVT5GhWbVLz1G+nEQFMvn3r9KBth1CVNu2rjGGptoNjbMN3kXtowtfeHC/iHRgzzyhySzzmk/KV8+tvCk98sx7Qf5ZN6+DVM6mZ2VT4a6wfdKPdqk/iZjutUcY6huWaW63r40g9rxQbo9T9GxWP77es/lt8yXmL4uv2w7xi/5jwbn4rHjzZSZFnTjCXGWjjeQtNPxlU+i6k+YyhLuqZXl3jXOzL1SRM7wyR+xlc/lxhnLP0h87rY4KH5FuTcfe0BB5w/Pf51WST8YS0/GMAf+vPHofyxK3w9+eNqziqfjStW+6Qz22Py9JFxyL2eL/FV/WeM6k9slY/Go9ywp/6cW+JUjPGr3PjqGcMbh18d8Zd++HCcDe2cgydM/PEnAMTiD6fNyZjmZC7qrYv6zFnZFlrtHEvThzJoytd48hzpzT9p4tLOuKmf8WIzx5TJb7FPH+BHuVZZ+kfHDxzwKv/U9WKzhLL38NN4/N2yOdU41gu5aycxo/mq30KP2ac+ayI/0qdsCz/LE9tRnC0+weB3hs2YGafGEzfzU+WjmPqoNG1Tl3L5qjdPqBgpWHjWC3+CxHGxL/2waHnC5JGXuw66Mo+2s0fvfDT2EXiNJn4Lv+ZL3TE/4nyFIFU+o8f8qh/Zo/POZqZPe3PKOusDP16H6ksfUvWOK1UPRWeO4vhgHBmvZDncyLY2zRHu55//8/TT49+WeMtdX3xBJeObm7kwti5VJwaqbkZHWGXGT1t0IzmYY/H0qz/zlyof0bRNvmLVSdU7NnfH0IpJXfLiRnS2Nlkz3NH/+OVPT7/88t+l8Y3WwbKgBv8By8km9u9/fVu+yegTArnh3zlYR8bMM+dac855ncKnn5GdenNJqg6qPGUzfhQHWc5Rn/pALy/Vj2Op8jUbMdqM6BaMdiOssktS4llrqPGlxGINcfJRI+uMdcp5zvGAI45TFvs5Adv2+ivgRsaN1JZ1AcbT2THGvo/9V4Dr7LllvVAR8HwJYyt+/1XsGf4vK+D6hJ5zdMM8p3o7tWUT40aKxbVlQwPjaUkYn7s49dX0uiuQm9GW9cJssOmGed3XdU/Z5Ro9Z14P5xi3bVegK9AV6Ap0Be6lAt0w7+VK9zy7Al2BrkBX4KwKdMM8q3xt3BXoCnQFugL3UoFumPdypXueXYGuQFegK3BWBbphnlW+Nu4KdAW6Al2Be6lAN8x7udI9z65AV6Ar0BU4qwLdMM8qXxufWoHHx8enjx8/Pn358mU5P3/+/Mwre/fu3dP3799Pdd34QwW21o/rwPXwyJonj55rAz4PxhWX+ua7AnurQDfMvV3RK59Pbrw0SzdhNl43X2WXmAoxjh3ErTEZf/369ZjpVI9PbwDIwblNDS6oePv27SZv3ryQmzcuzJu8379/v1Ad5XVThv2nT5+WIfo+ugJ7r0A3zL1f4SubX268bMpsuMjY5G1u2byQPzw8PJ9u0FumRcN7/fr1FugS303/FLuZ8w8fPjyryDnn9Ky4EEPd8O/55s2bZ15ZhqLR2SCZM7lCPcHylOqBHD9cLxspY/FcI/h6U2DsEcVPH12BW6tAN8xbu2I3nq+bL5TG5MabDQaZR/LYnHLQFLY+bRHfWKfYjfJxjqnLV58przxN55SbAuzJO5+Gc86jXLQxJ1/hguXEV82h+kFPnfBh3epcZk0R/zNd9dHjrsA1VaAb5jVdjTvIxY3XDZ5N99WrV7+Z+WgD9rXhb4ArA+Jgk81jBb40CJ+qzm2YxOXJlhxOPZh7bVbHfGTDpIFlM7Le1Qc45snJtZAHD18P/YAVQ57EVlfzzjzSXzfMrEbzt1SBbpi3dLV2kKubK1Nhs/V1IM2KDZdmg7weVUZDyle18G7Y+JDf2jDJi1eZHNimHTkaK5sJMpqCuWSONgX84NvDJo4tdj7loQdrHGjaEVddxsGOMfHkwZIzsbLe6JUhryfzRkZO0DzQcY3MFz/WK3HJd8PMajS/hwp0w9zDVbyhObAR0xjc5Nnc2VjZiJF55pTYnJFvPWyW4LPxrdmTFw0Bao7gaUQ+eTJOPnHkSAOE5oE9jcVGS27OxTknHn3mjw6fOQ9yyDj4I076gycf4hov4yBzrt60OAaHnhjG5hqlDXyObdIZoxtmVqP5PVSgG+YeruINzYFNmY2Wg009T6eh3vFs01dfKQ3HzZ9mBZ8NpuIZm5eNSYodG79Pd8rTRn/gaFw1lk0HHPPFh/7qXEcNk9zES5F54IOzNlpks9plXHl86heZPPnDiyOuzRBd3kSYU2JSBk+NtK+6HncFrrkC3TCv+ersMLe68bKh00B4yvHIjRkZutoMxB6j2eDWsORlMwOnHbmYDxt9NgdsHKOjOdNA4DNfZDYI8MThGDUz7IyHf47alPCPzAO8PpVJa72VG4OxPFhzYi7pM/2IUQYdHdQQ3/XkelqPkV3LugLXWoFumNd6ZXaal5tsnZ6bNvLkGb+0YRLL15LZYGpsdMYkls0PyokPnuzA0ARskvhn41dPI/Hwydb5Gp8xvviiE3iosbElHv41N9sAAADmSURBVDJOeA+wPl2SYx7YJxYdzQ45+aV/7ZCTi3NA7hhf8Hkwrn5sfNCKx9Y6pR94/HfDrFXp8S1UoBvmLVylHeXIxpqbNeN6+nR37dMm79pE/h85k4MNOeMjo2nVZgomm7tPkl6H9AGP3BsAfPoUrJ1xHFf7HncF9lKBbph7uZI3Mo/Rxn4jqf8uTZ/4aCh7OI5dG/RrTfGY/R5q1HO47wp0w7zv69+z7wp0BboCXYGNFeiGubFQDesKdAW6Al2B+65AN8z7vv49+65AV6Ar0BXYWIFumBsL1bCuQFegK9AVuO8K/Ap0rLsQB87gxwAAAABJRU5ErkJggg==;" vertex="1" parent="1">
          <mxGeometry x="1095" y="1530" width="460" height="285" as="geometry" />
        </mxCell>
        <mxCell id="PKdy3DJYKVn4SzaQrBq4-85" value="OperatorStateStore(代理)" style="rounded=0;whiteSpace=wrap;html=1;" vertex="1" parent="1">
          <mxGeometry x="1590" y="1880" width="240" height="60" as="geometry" />
        </mxCell>
        <mxCell id="PKdy3DJYKVn4SzaQrBq4-90" style="edgeStyle=orthogonalEdgeStyle;rounded=0;orthogonalLoop=1;jettySize=auto;html=1;exitX=0.5;exitY=0;exitDx=0;exitDy=0;entryX=0.5;entryY=1;entryDx=0;entryDy=0;" edge="1" parent="1" source="PKdy3DJYKVn4SzaQrBq4-86" target="PKdy3DJYKVn4SzaQrBq4-89">
          <mxGeometry relative="1" as="geometry" />
        </mxCell>
        <mxCell id="PKdy3DJYKVn4SzaQrBq4-92" style="edgeStyle=orthogonalEdgeStyle;rounded=0;orthogonalLoop=1;jettySize=auto;html=1;exitX=0.5;exitY=0;exitDx=0;exitDy=0;entryX=0.5;entryY=1;entryDx=0;entryDy=0;" edge="1" parent="1" source="PKdy3DJYKVn4SzaQrBq4-86" target="PKdy3DJYKVn4SzaQrBq4-91">
          <mxGeometry relative="1" as="geometry" />
        </mxCell>
        <mxCell id="PKdy3DJYKVn4SzaQrBq4-86" value="KeyedStateStore（代理KeyedStateBackend）" style="rounded=0;whiteSpace=wrap;html=1;" vertex="1" parent="1">
          <mxGeometry x="1910" y="1880" width="250" height="60" as="geometry" />
        </mxCell>
        <mxCell id="PKdy3DJYKVn4SzaQrBq4-89" value="RocksDBStateBackend(状态存储访问状态)" style="rounded=0;whiteSpace=wrap;html=1;" vertex="1" parent="1">
          <mxGeometry x="1760" y="1750" width="250" height="60" as="geometry" />
        </mxCell>
        <mxCell id="PKdy3DJYKVn4SzaQrBq4-91" value="HeapKeyedStateBackend(状态存储访问状态)" style="rounded=0;whiteSpace=wrap;html=1;" vertex="1" parent="1">
          <mxGeometry x="2055" y="1750" width="250" height="60" as="geometry" />
        </mxCell>
      </root>
    </mxGraphModel>
  </diagram>
</mxfile>
